%FSAX44Y44*%
%MOMM*%
G71*
G01*
G75*
G04 Layer_Color=16711935*
%ADD10C,0.2540*%
%ADD11C,0.2032*%
%ADD12C,0.5080*%
%ADD13C,0.3048*%
%ADD14C,0.6350*%
%ADD15C,0.3810*%
%ADD16C,0.7620*%
%ADD17R,0.2032X1.1430*%
%ADD18R,0.9000X0.8000*%
%ADD19R,1.0000X1.0000*%
%ADD20R,1.0000X1.0000*%
%ADD21R,0.9000X1.0000*%
%ADD22R,0.6000X1.5000*%
%ADD23R,1.0000X0.9000*%
%ADD24R,0.8000X0.9000*%
%ADD25R,0.6000X1.5500*%
%ADD26R,1.2000X1.8000*%
%ADD27O,2.2000X0.6000*%
%ADD28R,0.3500X0.6500*%
%ADD29O,1.8500X0.2650*%
%ADD30O,0.2650X1.8500*%
%ADD31O,1.8500X0.2650*%
%ADD32R,0.3366X0.7112*%
%ADD33R,0.7112X0.3366*%
%ADD34R,1.0160X0.8000*%
%ADD35R,0.9000X0.6500*%
%ADD36R,1.1000X1.4000*%
%ADD37R,0.9500X1.4000*%
%ADD38R,0.4500X0.4500*%
%ADD39R,0.5500X0.5500*%
%ADD40R,0.5200X0.5200*%
%ADD41R,1.4000X0.6000*%
%ADD42R,0.6298X0.2500*%
%ADD43R,0.6298X0.2500*%
%ADD44R,0.2500X0.6298*%
%ADD45R,0.2500X0.6298*%
%ADD46R,0.4600X0.4200*%
%ADD47R,0.3200X0.3600*%
%ADD48R,0.4200X0.4600*%
%ADD49R,0.4500X0.5500*%
%ADD50R,1.4000X1.1000*%
%ADD51R,1.1000X1.1000*%
%ADD52R,0.6500X0.9000*%
%ADD53R,0.8000X0.9000*%
%ADD54R,0.9000X0.8000*%
%ADD55R,0.7000X0.9000*%
%ADD56R,0.9000X0.7000*%
%ADD57O,0.8500X0.2800*%
%ADD58O,0.2800X0.8500*%
%ADD59R,1.7000X1.7000*%
%ADD60O,0.8500X0.3000*%
%ADD61R,1.6500X2.4000*%
%ADD62R,0.8500X2.3000*%
%ADD63R,1.3500X0.9500*%
%ADD64C,0.5000*%
%ADD65C,0.2000*%
%ADD66C,0.1700*%
%ADD67C,0.4000*%
%ADD68C,0.3000*%
%ADD69C,2.1590*%
%ADD70C,0.1600*%
%ADD71C,0.1524*%
%ADD72C,0.1540*%
%ADD73C,1.0000*%
%ADD74C,2.0000*%
%ADD75C,0.6000*%
%ADD76C,0.7500*%
%ADD77C,0.3500*%
%ADD78C,0.2500*%
%ADD79C,0.5588*%
%ADD80C,0.4500*%
%ADD81C,1.5000*%
%ADD82C,0.0254*%
%ADD83C,2.5400*%
%ADD84C,0.9000*%
%ADD85C,1.8796*%
G04:AMPARAMS|DCode=86|XSize=1.8796mm|YSize=1.8796mm|CornerRadius=0.4699mm|HoleSize=0mm|Usage=FLASHONLY|Rotation=180.000|XOffset=0mm|YOffset=0mm|HoleType=Round|Shape=RoundedRectangle|*
%AMROUNDEDRECTD86*
21,1,1.8796,0.9398,0,0,180.0*
21,1,0.9398,1.8796,0,0,180.0*
1,1,0.9398,-0.4699,0.4699*
1,1,0.9398,0.4699,0.4699*
1,1,0.9398,0.4699,-0.4699*
1,1,0.9398,-0.4699,-0.4699*
%
%ADD86ROUNDEDRECTD86*%
%ADD87C,2.0066*%
%ADD88C,0.8000*%
%ADD89C,0.7112*%
%ADD90C,0.5000*%
%ADD91C,1.1000*%
%ADD92C,0.7300*%
%ADD93C,0.6900*%
%ADD94C,1.0000*%
%ADD95C,0.6600*%
%ADD96R,2.5000X2.0500*%
%ADD97R,2.3000X0.5000*%
%ADD98R,2.0500X2.5000*%
%ADD99R,0.5000X2.3000*%
%ADD100R,0.6500X0.5500*%
%ADD101R,1.8000X3.9000*%
%ADD102R,1.3000X4.5000*%
%ADD103R,1.2000X1.8000*%
%ADD104R,1.8000X1.2000*%
%ADD105R,1.5500X0.6000*%
%ADD106R,3.3000X3.3000*%
%ADD107R,0.3000X0.3000*%
%ADD108R,0.5000X0.3000*%
%ADD109R,0.3000X0.3000*%
%ADD110R,0.3000X0.5000*%
%ADD111R,0.3600X0.3200*%
%ADD112C,0.1000*%
%ADD113C,0.1500*%
%ADD114C,0.1270*%
%ADD115R,0.7750X0.4500*%
%ADD116R,0.7000X0.7000*%
%ADD117R,0.7000X0.7000*%
%ADD118R,0.7000X0.7000*%
%ADD119R,0.6500X1.0000*%
%ADD120R,0.2766X0.6512*%
%ADD121R,0.6512X0.2766*%
%ADD122O,0.8000X0.2300*%
%ADD123O,0.2300X0.8000*%
%ADD124O,0.8000X0.2500*%
%ADD125R,0.2232X1.1630*%
%ADD126R,1.0524X0.9524*%
%ADD127R,1.1524X1.1524*%
%ADD128R,1.1524X1.1524*%
%ADD129R,1.0524X1.1524*%
%ADD130R,0.7524X1.6524*%
%ADD131R,1.1524X1.0524*%
%ADD132R,0.9524X1.0524*%
%ADD133R,0.7020X1.6520*%
%ADD134R,1.3020X1.9020*%
%ADD135O,2.3524X0.7524*%
%ADD136R,0.5024X0.8024*%
%ADD137O,2.0024X0.4174*%
%ADD138O,0.4174X2.0024*%
%ADD139O,2.0024X0.4174*%
%ADD140R,0.4165X0.7912*%
%ADD141R,0.7912X0.4165*%
%ADD142R,1.0524X0.8024*%
%ADD143R,1.2524X1.5524*%
%ADD144R,1.1024X1.5524*%
%ADD145R,0.6024X0.6024*%
%ADD146R,0.7024X0.7024*%
%ADD147R,0.6724X0.6724*%
%ADD148R,1.5524X0.7524*%
%ADD149R,0.6806X0.3008*%
%ADD150R,0.6806X0.3008*%
%ADD151R,0.3008X0.6806*%
%ADD152R,0.3008X0.6806*%
%ADD153R,0.6124X0.5724*%
%ADD154R,0.4724X0.5124*%
%ADD155R,0.5724X0.6124*%
%ADD156R,0.6024X0.7024*%
%ADD157R,1.5524X1.2524*%
%ADD158R,1.2524X1.2524*%
%ADD159R,0.8024X1.0524*%
%ADD160R,0.9524X1.0524*%
%ADD161R,1.0524X0.9524*%
%ADD162R,0.8524X1.0524*%
%ADD163R,1.0524X0.8524*%
%ADD164O,0.9900X0.4200*%
%ADD165O,0.4200X0.9900*%
%ADD166R,1.8400X1.8400*%
%ADD167O,0.9900X0.4400*%
%ADD168R,1.7900X2.5400*%
%ADD169R,1.0024X2.4524*%
%ADD170R,1.5024X1.1024*%
%ADD171C,2.6924*%
%ADD172C,1.0524*%
%ADD173C,2.0320*%
G04:AMPARAMS|DCode=174|XSize=2.032mm|YSize=2.032mm|CornerRadius=0.5461mm|HoleSize=0mm|Usage=FLASHONLY|Rotation=180.000|XOffset=0mm|YOffset=0mm|HoleType=Round|Shape=RoundedRectangle|*
%AMROUNDEDRECTD174*
21,1,2.0320,0.9398,0,0,180.0*
21,1,0.9398,2.0320,0,0,180.0*
1,1,1.0922,-0.4699,0.4699*
1,1,1.0922,0.4699,0.4699*
1,1,1.0922,0.4699,-0.4699*
1,1,1.0922,-0.4699,-0.4699*
%
%ADD174ROUNDEDRECTD174*%
%ADD175C,0.1524*%
%ADD176C,2.1590*%
%ADD177C,0.9524*%
%ADD178C,0.8636*%
%ADD179C,0.6524*%
%ADD180C,1.2524*%
%ADD181C,0.8824*%
%ADD182C,0.8424*%
%ADD183C,1.1524*%
%ADD184R,2.6524X2.2024*%
%ADD185R,2.4700X0.6700*%
%ADD186R,2.2024X2.6524*%
%ADD187R,0.6700X2.4700*%
%ADD188R,0.8024X0.7024*%
%ADD189R,1.9524X4.0524*%
%ADD190R,1.4524X4.6524*%
%ADD191R,1.3524X1.9524*%
%ADD192R,1.9020X1.3020*%
%ADD193R,1.6520X0.7020*%
%ADD194R,1.7024X0.7524*%
%ADD195R,3.4524X3.4524*%
%ADD196R,0.4524X0.4524*%
%ADD197R,0.6524X0.4524*%
%ADD198R,0.4524X0.4524*%
%ADD199R,0.4524X0.6524*%
%ADD200R,0.5124X0.4724*%
%ADD201C,0.8124*%
D82*
X00616203Y00477266D02*
X01427634Y00477266D01*
X01427634Y01092505D02*
X01427634Y00477266D01*
X00616203Y01092505D02*
X01427634Y01092505D01*
X00616203Y00477266D02*
Y01092505D01*
D83*
X00645160Y01058925D02*
D03*
D87*
X01381252Y00533400D02*
D03*
D127*
X00698120Y00755142D02*
D03*
X00714119D02*
D03*
X00703960Y00662431D02*
D03*
X00687960D02*
D03*
D129*
X00856370Y00601471D02*
D03*
X00873370D02*
D03*
X00775090Y00633222D02*
D03*
X00792090D02*
D03*
X00841620Y00601471D02*
D03*
X00824620D02*
D03*
D131*
X00791209Y00617592D02*
D03*
Y00600592D02*
D03*
X00807719Y00617592D02*
D03*
Y00600592D02*
D03*
X00736600Y00704732D02*
D03*
Y00721732D02*
D03*
D147*
X01056703Y00605536D02*
D03*
X01064704D02*
D03*
D154*
X01332484Y00883926D02*
D03*
Y00878325D02*
D03*
D161*
X00813214Y00891285D02*
D03*
X00833214Y00881785D02*
D03*
Y00900786D02*
D03*
D171*
X00802894Y00929386D02*
D03*
X00914653Y01041145D02*
D03*
X00910844Y00780796D02*
D03*
X00642874Y00874775D02*
D03*
X00989584Y00503936D02*
D03*
X00959103Y00505205D02*
D03*
D172*
X01368523Y00637695D02*
D03*
Y00593695D02*
D03*
X01283813Y01032735D02*
D03*
X01327814D02*
D03*
X00817460Y00544282D02*
D03*
X00773459D02*
D03*
X01230883Y00571245D02*
D03*
X01199134Y00534416D02*
D03*
X01230883Y00511555D02*
D03*
D173*
X00672083Y01006855D02*
D03*
X00646683D02*
D03*
X00672083Y00978069D02*
D03*
X00646683D02*
D03*
X00672083Y00949282D02*
D03*
X00646683D02*
D03*
X00672083Y00920495D02*
D03*
X00646683D02*
D03*
D174*
X00697483Y01006855D02*
D03*
Y00978069D02*
D03*
Y00949282D02*
D03*
Y00920495D02*
D03*
D175*
X00645160Y00826462D02*
D03*
Y00521461D02*
D03*
D176*
X01094231Y00739393D02*
D03*
D177*
X01400000Y01010000D02*
D03*
Y00950000D02*
D03*
Y00710000D02*
D03*
X01370000Y01010000D02*
D03*
X01385000Y00980000D02*
D03*
X01370000Y00950000D02*
D03*
Y00890000D02*
D03*
X01385000Y00740000D02*
D03*
X01370000Y00710000D02*
D03*
X01385000Y00680000D02*
D03*
X01370000Y00650000D02*
D03*
X01385000Y00620000D02*
D03*
X01355000Y01040000D02*
D03*
Y00980000D02*
D03*
Y00920000D02*
D03*
Y00740000D02*
D03*
Y00680000D02*
D03*
Y00560000D02*
D03*
X01310000Y01070000D02*
D03*
X01325000Y00980000D02*
D03*
X01295000Y01040000D02*
D03*
X01250000Y01070000D02*
D03*
X01265000Y01040000D02*
D03*
X01250000Y01010000D02*
D03*
X01265000Y00980000D02*
D03*
X01220000Y01070000D02*
D03*
X01235000Y01040000D02*
D03*
X01220000Y01010000D02*
D03*
X01235000Y00980000D02*
D03*
X01190000Y01070000D02*
D03*
X01205000Y01040000D02*
D03*
X01190000Y01010000D02*
D03*
X01205000Y00980000D02*
D03*
X01160000Y01070000D02*
D03*
X01175000Y01040000D02*
D03*
X01160000Y01010000D02*
D03*
X01175000Y00980000D02*
D03*
X01130000Y01070000D02*
D03*
X01145000Y01040000D02*
D03*
X01130000Y01010000D02*
D03*
X01145000Y00980000D02*
D03*
X01130000Y00590000D02*
D03*
X01100000Y01070000D02*
D03*
X01115000Y01040000D02*
D03*
X01100000Y01010000D02*
D03*
X01115000Y00980000D02*
D03*
X01100000Y00950000D02*
D03*
X01070000Y01070000D02*
D03*
X01085000Y01040000D02*
D03*
X01070000Y01010000D02*
D03*
X01085000Y00980000D02*
D03*
X01070000Y00950000D02*
D03*
X01085000Y00920000D02*
D03*
X01070000Y00590000D02*
D03*
X01040000Y01070000D02*
D03*
X01055000Y01040000D02*
D03*
X01040000Y01010000D02*
D03*
X01055000Y00980000D02*
D03*
X01040000Y00950000D02*
D03*
X01055000Y00920000D02*
D03*
X01040000Y00890000D02*
D03*
X01055000Y00860000D02*
D03*
Y00620000D02*
D03*
X01025000Y01040000D02*
D03*
X01010000Y01010000D02*
D03*
X01025000Y00980000D02*
D03*
Y00920000D02*
D03*
X00995000Y00980000D02*
D03*
Y00620000D02*
D03*
X00950000Y01070000D02*
D03*
X00965000Y00920000D02*
D03*
Y00740000D02*
D03*
Y00680000D02*
D03*
X00905000Y00860000D02*
D03*
X00875000Y00920000D02*
D03*
X00830000Y01070000D02*
D03*
X00845000Y00860000D02*
D03*
X00800000Y00950000D02*
D03*
X00815000Y00860000D02*
D03*
X00770000Y00950000D02*
D03*
X00755000Y00920000D02*
D03*
X00725000D02*
D03*
X00680000Y01070000D02*
D03*
X00665000Y00860000D02*
D03*
X00908304Y00671575D02*
D03*
X00880363Y00699516D02*
D03*
X00887983Y00690626D02*
D03*
X00898403Y00680465D02*
D03*
D178*
X00776224Y00860806D02*
D03*
X00748283Y00854455D02*
D03*
X00769874Y00851916D02*
D03*
X00989584Y00525526D02*
D03*
X01256283Y00704595D02*
D03*
X01155954Y00782066D02*
D03*
X01364234Y00823976D02*
D03*
X01401064Y00844296D02*
D03*
X00976883Y00636016D02*
D03*
X01263904Y00801115D02*
D03*
X01290573Y00538226D02*
D03*
X01309624D02*
D03*
X01324863D02*
D03*
X01340103D02*
D03*
X01275333D02*
D03*
X01237234Y00717296D02*
D03*
X01255014Y00500126D02*
D03*
X01267388Y00509960D02*
D03*
X01273301Y00502665D02*
D03*
X01297177D02*
D03*
X01309115D02*
D03*
X01321308D02*
D03*
X01333246D02*
D03*
X01345184D02*
D03*
X01285240D02*
D03*
X01055623Y00774445D02*
D03*
X01074673Y00779526D02*
D03*
X01125473Y00709676D02*
D03*
X01171193Y00591566D02*
D03*
X01167383Y00782066D02*
D03*
X01164844Y00605536D02*
D03*
X01136904D02*
D03*
X01125952Y00627917D02*
D03*
X01061590Y00765939D02*
D03*
X01081023Y00773176D02*
D03*
X01107619Y00646249D02*
D03*
X01145794Y00605536D02*
D03*
X01132063Y00621806D02*
D03*
X01113730Y00640139D02*
D03*
X01279905Y00495046D02*
D03*
X01292097D02*
D03*
X01304035D02*
D03*
X01315974D02*
D03*
X01327912D02*
D03*
X01340103D02*
D03*
X01049274Y00766825D02*
D03*
X01068324Y00771906D02*
D03*
X01088419Y00778001D02*
D03*
X01138174Y00696975D02*
D03*
X01370583Y00571245D02*
D03*
X01257553Y00848105D02*
D03*
X01248663Y00680465D02*
D03*
X01154684Y00605536D02*
D03*
X01138174Y00615695D02*
D03*
X01119841Y00634028D02*
D03*
X01257050Y00817122D02*
D03*
X01199134Y00717296D02*
D03*
X01188973Y00802385D02*
D03*
X01243584Y00710946D02*
D03*
X01354073Y00776985D02*
D03*
X01042924Y00737616D02*
D03*
X00915923Y00511555D02*
D03*
X00932433Y00502665D02*
D03*
X00778764Y00732535D02*
D03*
X00674370Y00649732D02*
D03*
X01209294Y00872235D02*
D03*
X01399794Y00854455D02*
D03*
X01323593Y00923036D02*
D03*
X01307083Y00937005D02*
D03*
X01335023Y00929386D02*
D03*
Y00959865D02*
D03*
X01323593Y00967486D02*
D03*
X01307083Y00975106D02*
D03*
X00899414Y00817626D02*
D03*
X00882904Y00793495D02*
D03*
X00872744Y00808736D02*
D03*
X00843533Y00785875D02*
D03*
X00844803Y00813816D02*
D03*
X00847344Y00844296D02*
D03*
X00910844Y01072896D02*
D03*
X00987044Y00864615D02*
D03*
X01040384Y00702056D02*
D03*
X00997204Y00644905D02*
D03*
X00730503Y00735076D02*
D03*
X01047624Y00663576D02*
D03*
X00997582Y00583755D02*
D03*
X00957833Y00589025D02*
D03*
X01167383Y00865885D02*
D03*
X01262634Y00776985D02*
D03*
X01191514Y00552196D02*
D03*
X01011173Y00646176D02*
D03*
D179*
X01007283Y00609226D02*
D03*
Y00594225D02*
D03*
X00903223Y00964946D02*
D03*
X00904160Y00956390D02*
D03*
X00899160Y00961390D02*
D03*
X00894160Y00966390D02*
D03*
Y00956390D02*
D03*
X01002283Y00601726D02*
D03*
X00997284Y00609226D02*
D03*
Y00594225D02*
D03*
D180*
X01149604Y00585215D02*
D03*
X01411223Y00676656D02*
D03*
Y00703326D02*
D03*
Y00729995D02*
D03*
D181*
X01246124Y00511555D02*
D03*
D182*
X01201674Y00804926D02*
D03*
X01162303D02*
D03*
X01176273Y00802385D02*
D03*
X00915923Y00917955D02*
D03*
X00870203Y00958596D02*
D03*
X00849883Y00948436D02*
D03*
D183*
X00901954Y00933195D02*
D03*
D184*
X01398523Y00654945D02*
D03*
X01343523D02*
D03*
X01398523Y00576445D02*
D03*
X01343523D02*
D03*
D185*
X01342523Y00623695D02*
D03*
Y00631696D02*
D03*
Y00607696D02*
D03*
Y00615695D02*
D03*
Y00599696D02*
D03*
D186*
X01266564Y01062735D02*
D03*
Y01007735D02*
D03*
X01345064Y01062735D02*
D03*
Y01007735D02*
D03*
X00756210Y00569282D02*
D03*
X00834709D02*
D03*
Y00514282D02*
D03*
X00756210D02*
D03*
D187*
X01297814Y01006735D02*
D03*
X01289814D02*
D03*
X01313813D02*
D03*
X01305813D02*
D03*
X01321814D02*
D03*
X00811460Y00570282D02*
D03*
X00779460D02*
D03*
X00795460D02*
D03*
X00803460D02*
D03*
X00787460D02*
D03*
D188*
X00833373Y00948406D02*
D03*
Y00938406D02*
D03*
Y00928036D02*
D03*
Y00918036D02*
D03*
D189*
X00726693Y01066545D02*
D03*
X00865694D02*
D03*
D190*
X00758693Y00979045D02*
D03*
X00783694D02*
D03*
X00808693D02*
D03*
X00833693D02*
D03*
D191*
X00688599Y00728981D02*
D03*
Y00688981D02*
D03*
X00712599D02*
D03*
Y00728981D02*
D03*
D192*
X00964049Y00560771D02*
D03*
Y00616771D02*
D03*
D193*
X00925550Y00573771D02*
D03*
Y00593772D02*
D03*
Y00583772D02*
D03*
D194*
Y00603772D02*
D03*
D195*
X01364234Y00860806D02*
D03*
D196*
X01386233Y00843305D02*
D03*
Y00878306D02*
D03*
X01342233D02*
D03*
Y00843305D02*
D03*
D197*
X01385234Y00848306D02*
D03*
Y00853305D02*
D03*
Y00858306D02*
D03*
Y00863305D02*
D03*
Y00868306D02*
D03*
Y00873305D02*
D03*
X01343233D02*
D03*
Y00868306D02*
D03*
Y00863305D02*
D03*
Y00858306D02*
D03*
Y00853305D02*
D03*
Y00848306D02*
D03*
D198*
X01381734Y00882805D02*
D03*
X01346733D02*
D03*
Y00838805D02*
D03*
X01381734D02*
D03*
D199*
X01376733Y00881806D02*
D03*
X01371734D02*
D03*
X01366733D02*
D03*
X01361734D02*
D03*
X01356733D02*
D03*
X01351734D02*
D03*
Y00839805D02*
D03*
X01356733D02*
D03*
X01361734D02*
D03*
X01366733D02*
D03*
X01371734D02*
D03*
X01376733D02*
D03*
D200*
X01400054Y00836675D02*
D03*
X01394453D02*
D03*
X01346193Y00892555D02*
D03*
X01351794D02*
D03*
D201*
X01352233Y00872805D02*
D03*
Y00860806D02*
D03*
Y00848805D02*
D03*
X01364234Y00872805D02*
D03*
Y00860806D02*
D03*
Y00848805D02*
D03*
X01376234Y00872805D02*
D03*
Y00860806D02*
D03*
Y00848805D02*
D03*
M02*
