%FSAX44Y44*%
%MOMM*%
G71*
G01*
G75*
G04 Layer_Color=128*
%ADD10C,0.2540*%
%ADD11C,0.2032*%
%ADD12C,0.5080*%
%ADD13C,0.3048*%
%ADD14C,0.6350*%
%ADD15C,0.3810*%
%ADD16C,0.7620*%
%ADD17R,0.8500X2.3000*%
%ADD18R,1.3000X0.8500*%
%ADD19R,0.2032X1.1430*%
%ADD20R,0.9000X0.8000*%
%ADD21R,1.0000X1.0000*%
%ADD22R,1.0000X1.0000*%
%ADD23R,0.9000X1.0000*%
%ADD24R,0.6000X1.5000*%
%ADD25R,1.0000X0.9000*%
%ADD26R,0.8000X0.9000*%
%ADD27R,0.6000X1.5500*%
%ADD28R,1.2000X1.8000*%
%ADD29O,2.2000X0.6000*%
%ADD30R,0.3500X0.6500*%
%ADD31O,1.8500X0.2650*%
%ADD32O,0.2650X1.8500*%
%ADD33O,1.8500X0.2650*%
%ADD34R,0.3366X0.7112*%
%ADD35R,0.7112X0.3366*%
%ADD36R,1.0160X0.8000*%
%ADD37R,0.9000X0.6500*%
%ADD38R,1.1000X1.4000*%
%ADD39R,1.4000X1.1000*%
%ADD40O,0.8500X0.2800*%
%ADD41O,0.2800X0.8500*%
%ADD42R,1.7000X1.7000*%
%ADD43R,1.4000X0.6000*%
%ADD44R,0.6298X0.2500*%
%ADD45R,0.6298X0.2500*%
%ADD46R,0.2500X0.6298*%
%ADD47R,0.2500X0.6298*%
%ADD48R,1.1000X1.1000*%
%ADD49R,0.5200X0.5200*%
%ADD50R,0.7000X0.9000*%
%ADD51R,0.9500X1.4000*%
%ADD52R,0.6500X0.9000*%
%ADD53R,0.8000X0.9000*%
%ADD54O,0.8500X0.3000*%
%ADD55R,1.6500X2.4000*%
%ADD56R,1.3500X0.9500*%
%ADD57R,0.9000X0.8000*%
%ADD58R,0.9000X0.7000*%
%ADD59R,0.9500X1.3500*%
%ADD60R,0.8500X1.3000*%
%ADD61C,0.5000*%
%ADD62C,0.2000*%
%ADD63C,0.1700*%
%ADD64C,0.4000*%
%ADD65C,0.3000*%
%ADD66C,2.1590*%
%ADD67C,0.1600*%
%ADD68C,0.1524*%
%ADD69C,0.1540*%
%ADD70C,1.0000*%
%ADD71C,2.0000*%
%ADD72C,0.6000*%
%ADD73C,0.7500*%
%ADD74C,0.3500*%
%ADD75C,0.2500*%
%ADD76C,0.5588*%
%ADD77C,0.4500*%
%ADD78C,1.5000*%
%ADD79C,0.0254*%
%ADD80C,2.5400*%
%ADD81C,0.9000*%
%ADD82C,1.8796*%
G04:AMPARAMS|DCode=83|XSize=1.8796mm|YSize=1.8796mm|CornerRadius=0.4699mm|HoleSize=0mm|Usage=FLASHONLY|Rotation=180.000|XOffset=0mm|YOffset=0mm|HoleType=Round|Shape=RoundedRectangle|*
%AMROUNDEDRECTD83*
21,1,1.8796,0.9398,0,0,180.0*
21,1,0.9398,1.8796,0,0,180.0*
1,1,0.9398,-0.4699,0.4699*
1,1,0.9398,0.4699,0.4699*
1,1,0.9398,0.4699,-0.4699*
1,1,0.9398,-0.4699,-0.4699*
%
%ADD83ROUNDEDRECTD83*%
%ADD84C,2.0066*%
%ADD85C,0.8000*%
%ADD86C,0.7112*%
%ADD87C,1.1000*%
%ADD88C,0.7300*%
%ADD89C,0.6900*%
%ADD90C,1.0000*%
%ADD91C,0.5000*%
%ADD92C,0.6600*%
%ADD93R,2.5000X2.0500*%
%ADD94R,2.3000X0.5000*%
%ADD95R,2.0500X2.5000*%
%ADD96R,0.5000X2.3000*%
%ADD97R,1.2000X1.8000*%
%ADD98R,1.8000X1.2000*%
%ADD99R,1.5500X0.6000*%
%ADD100R,1.8000X3.9000*%
%ADD101R,1.3000X4.5000*%
%ADD102R,3.3000X3.3000*%
%ADD103R,0.3000X0.3000*%
%ADD104R,0.5000X0.3000*%
%ADD105R,0.3000X0.3000*%
%ADD106R,0.3000X0.5000*%
%ADD107C,0.1000*%
%ADD108C,0.1500*%
%ADD109C,0.1270*%
%ADD110R,0.7750X0.4500*%
%ADD111R,0.7000X0.7000*%
%ADD112R,0.7000X0.7000*%
%ADD113R,0.7000X0.7000*%
%ADD114R,0.6500X1.0000*%
%ADD115R,0.2766X0.6512*%
%ADD116R,0.6512X0.2766*%
%ADD117O,0.8000X0.2300*%
%ADD118O,0.2300X0.8000*%
%ADD119O,0.8000X0.2500*%
%ADD120R,1.0024X2.4524*%
%ADD121R,1.4524X1.0024*%
%ADD122R,0.2232X1.1630*%
%ADD123R,1.0524X0.9524*%
%ADD124R,1.1524X1.1524*%
%ADD125R,1.1524X1.1524*%
%ADD126R,1.0524X1.1524*%
%ADD127R,0.7524X1.6524*%
%ADD128R,1.1524X1.0524*%
%ADD129R,0.9524X1.0524*%
%ADD130R,0.7020X1.6520*%
%ADD131R,1.3020X1.9020*%
%ADD132O,2.3524X0.7524*%
%ADD133R,0.5024X0.8024*%
%ADD134O,2.0024X0.4174*%
%ADD135O,0.4174X2.0024*%
%ADD136O,2.0024X0.4174*%
%ADD137R,0.4165X0.7912*%
%ADD138R,0.7912X0.4165*%
%ADD139R,1.0524X0.8024*%
%ADD140R,1.2524X1.5524*%
%ADD141R,1.5524X1.2524*%
%ADD142O,0.9900X0.4200*%
%ADD143O,0.4200X0.9900*%
%ADD144R,1.8400X1.8400*%
%ADD145R,1.5524X0.7524*%
%ADD146R,0.6806X0.3008*%
%ADD147R,0.6806X0.3008*%
%ADD148R,0.3008X0.6806*%
%ADD149R,0.3008X0.6806*%
%ADD150R,1.2524X1.2524*%
%ADD151R,0.6724X0.6724*%
%ADD152R,0.8524X1.0524*%
%ADD153R,1.1024X1.5524*%
%ADD154R,0.8024X1.0524*%
%ADD155R,0.9524X1.0524*%
%ADD156O,0.9900X0.4400*%
%ADD157R,1.7900X2.5400*%
%ADD158R,1.5024X1.1024*%
%ADD159R,1.0524X0.9524*%
%ADD160R,1.0524X0.8524*%
%ADD161R,1.1024X1.5024*%
%ADD162R,1.0024X1.4524*%
%ADD163C,2.6924*%
%ADD164C,1.0524*%
%ADD165C,2.0320*%
G04:AMPARAMS|DCode=166|XSize=2.032mm|YSize=2.032mm|CornerRadius=0.5461mm|HoleSize=0mm|Usage=FLASHONLY|Rotation=180.000|XOffset=0mm|YOffset=0mm|HoleType=Round|Shape=RoundedRectangle|*
%AMROUNDEDRECTD166*
21,1,2.0320,0.9398,0,0,180.0*
21,1,0.9398,2.0320,0,0,180.0*
1,1,1.0922,-0.4699,0.4699*
1,1,1.0922,0.4699,0.4699*
1,1,1.0922,0.4699,-0.4699*
1,1,1.0922,-0.4699,-0.4699*
%
%ADD166ROUNDEDRECTD166*%
%ADD167C,0.1524*%
%ADD168C,2.1590*%
%ADD169C,0.9524*%
%ADD170C,0.8636*%
%ADD171C,1.2524*%
%ADD172C,0.8824*%
%ADD173C,0.8424*%
%ADD174C,1.1524*%
%ADD175C,0.6524*%
%ADD176R,2.6524X2.2024*%
%ADD177R,2.4700X0.6700*%
%ADD178R,2.2024X2.6524*%
%ADD179R,0.6700X2.4700*%
%ADD180R,1.3524X1.9524*%
%ADD181R,1.9020X1.3020*%
%ADD182R,1.6520X0.7020*%
%ADD183R,1.7024X0.7524*%
%ADD184R,1.9524X4.0524*%
%ADD185R,1.4524X4.6524*%
%ADD186R,3.4524X3.4524*%
%ADD187R,0.4524X0.4524*%
%ADD188R,0.6524X0.4524*%
%ADD189R,0.4524X0.4524*%
%ADD190R,0.4524X0.6524*%
%ADD191C,0.8124*%
%ADD192R,0.3000X0.6000*%
%ADD193R,0.3000X0.6000*%
%ADD194R,0.6000X0.3000*%
%ADD195R,0.6000X0.3000*%
%ADD196R,0.0000X0.0000*%
D18*
X00833373Y00928996D02*
D03*
Y00911995D02*
D03*
D21*
X00698120Y00755142D02*
D03*
X00714119D02*
D03*
X00703960Y00662431D02*
D03*
X00687960D02*
D03*
D23*
X00856370Y00601471D02*
D03*
X00873370D02*
D03*
X00775090Y00633222D02*
D03*
X00792090D02*
D03*
X00841620Y00601471D02*
D03*
X00824620D02*
D03*
D25*
X00791209Y00617592D02*
D03*
Y00600592D02*
D03*
X00807719Y00617592D02*
D03*
Y00600592D02*
D03*
X00736600Y00704732D02*
D03*
Y00721732D02*
D03*
D56*
X01335023Y00894715D02*
D03*
Y00910715D02*
D03*
X01415034Y00829946D02*
D03*
Y00845946D02*
D03*
D57*
X00813214Y00886206D02*
D03*
X00833214Y00876705D02*
D03*
Y00895706D02*
D03*
D59*
X01367734Y00905256D02*
D03*
X01351734D02*
D03*
X01066163Y00602995D02*
D03*
X01050163D02*
D03*
D60*
X00840603Y00944625D02*
D03*
X00823604D02*
D03*
D79*
X00616203Y00477266D02*
X01427634Y00477266D01*
X01427634Y01092505D02*
X01427634Y00477266D01*
X00616203Y01092505D02*
X01427634Y01092505D01*
X00616203Y00477266D02*
Y01092505D01*
D93*
X01398523Y00654945D02*
D03*
X01343523D02*
D03*
X01398523Y00576445D02*
D03*
X01343523D02*
D03*
D94*
X01342523Y00623695D02*
D03*
Y00631696D02*
D03*
Y00607696D02*
D03*
Y00615695D02*
D03*
Y00599696D02*
D03*
D95*
X01266564Y01062735D02*
D03*
Y01007735D02*
D03*
X01345064Y01062735D02*
D03*
Y01007735D02*
D03*
X00756210Y00569282D02*
D03*
X00834709D02*
D03*
Y00514282D02*
D03*
X00756210D02*
D03*
D96*
X01297814Y01006735D02*
D03*
X01289814D02*
D03*
X01313813D02*
D03*
X01305813D02*
D03*
X01321814D02*
D03*
X00811460Y00570282D02*
D03*
X00779460D02*
D03*
X00795460D02*
D03*
X00803460D02*
D03*
X00787460D02*
D03*
D97*
X00688599Y00728981D02*
D03*
Y00688981D02*
D03*
X00712599D02*
D03*
Y00728981D02*
D03*
D98*
X00964049Y00560771D02*
D03*
Y00616771D02*
D03*
D99*
X00925550Y00573771D02*
D03*
Y00593772D02*
D03*
Y00603772D02*
D03*
Y00583772D02*
D03*
D100*
X00726693Y01066545D02*
D03*
X00865694D02*
D03*
D101*
X00758693Y00979045D02*
D03*
X00783694D02*
D03*
X00808693D02*
D03*
X00833693D02*
D03*
D192*
X01376734Y00882305D02*
D03*
X01371734D02*
D03*
X01366734D02*
D03*
X01361734D02*
D03*
X01356734D02*
D03*
X01351734D02*
D03*
X01346734D02*
D03*
X01381734D02*
D03*
D193*
X01381733Y00839306D02*
D03*
X01346734D02*
D03*
X01351733D02*
D03*
X01356734D02*
D03*
X01361733D02*
D03*
X01366734D02*
D03*
X01371733D02*
D03*
X01376734D02*
D03*
X01366734Y00860806D02*
D03*
Y00850806D02*
D03*
Y00870806D02*
D03*
X01361734Y00860806D02*
D03*
Y00870806D02*
D03*
Y00850806D02*
D03*
X01351733Y00850805D02*
D03*
Y00870805D02*
D03*
Y00860805D02*
D03*
X01356733Y00870805D02*
D03*
Y00850805D02*
D03*
Y00860805D02*
D03*
X01371733Y00850805D02*
D03*
Y00870805D02*
D03*
Y00860805D02*
D03*
X01376733Y00870805D02*
D03*
Y00850805D02*
D03*
Y00860805D02*
D03*
D194*
X01342734Y00843306D02*
D03*
Y00873306D02*
D03*
Y00863306D02*
D03*
Y00853306D02*
D03*
X01385733Y00843306D02*
D03*
Y00873306D02*
D03*
Y00863306D02*
D03*
Y00853306D02*
D03*
D195*
X01342734Y00878305D02*
D03*
Y00868305D02*
D03*
Y00858305D02*
D03*
Y00848305D02*
D03*
X01385734Y00878305D02*
D03*
Y00868305D02*
D03*
Y00858305D02*
D03*
Y00848305D02*
D03*
D196*
X01364234Y00860806D02*
D03*
M02*
