%FSAX44Y44*%
%MOMM*%
G71*
G01*
G75*
G04 Layer_Color=8421504*
%ADD10C,0.2540*%
%ADD11C,0.2032*%
%ADD12C,0.5080*%
%ADD13C,0.3048*%
%ADD14C,0.6350*%
%ADD15C,0.3810*%
%ADD16C,0.7620*%
%ADD17R,0.8500X2.3000*%
%ADD18R,1.3000X0.8500*%
%ADD19R,0.2032X1.1430*%
%ADD20R,0.9000X0.8000*%
%ADD21R,1.0000X1.0000*%
%ADD22R,1.0000X1.0000*%
%ADD23R,0.9000X1.0000*%
%ADD24R,0.6000X1.5000*%
%ADD25R,1.0000X0.9000*%
%ADD26R,0.8000X0.9000*%
%ADD27R,0.6000X1.5500*%
%ADD28R,1.2000X1.8000*%
%ADD29O,2.2000X0.6000*%
%ADD30R,0.3500X0.6500*%
%ADD31O,1.8500X0.2650*%
%ADD32O,0.2650X1.8500*%
%ADD33O,1.8500X0.2650*%
%ADD34R,0.3366X0.7112*%
%ADD35R,0.7112X0.3366*%
%ADD36R,1.0160X0.8000*%
%ADD37R,0.9000X0.6500*%
%ADD38R,1.1000X1.4000*%
%ADD39R,1.4000X1.1000*%
%ADD40O,0.8500X0.2800*%
%ADD41O,0.2800X0.8500*%
%ADD42R,1.7000X1.7000*%
%ADD43R,1.4000X0.6000*%
%ADD44R,0.6298X0.2500*%
%ADD45R,0.6298X0.2500*%
%ADD46R,0.2500X0.6298*%
%ADD47R,0.2500X0.6298*%
%ADD48R,1.1000X1.1000*%
%ADD49R,0.5200X0.5200*%
%ADD50R,0.7000X0.9000*%
%ADD51R,0.9500X1.4000*%
%ADD52R,0.6500X0.9000*%
%ADD53R,0.8000X0.9000*%
%ADD54O,0.8500X0.3000*%
%ADD55R,1.6500X2.4000*%
%ADD56R,1.3500X0.9500*%
%ADD57R,0.9000X0.8000*%
%ADD58R,0.9000X0.7000*%
%ADD59R,0.9500X1.3500*%
%ADD60R,0.8500X1.3000*%
%ADD61C,0.5000*%
%ADD62C,0.2000*%
%ADD63C,0.1700*%
%ADD64C,0.4000*%
%ADD65C,0.3000*%
%ADD66C,2.1590*%
%ADD67C,0.1600*%
%ADD68C,0.1524*%
%ADD69C,0.1540*%
%ADD70C,1.0000*%
%ADD71C,2.0000*%
%ADD72C,0.6000*%
%ADD73C,0.7500*%
%ADD74C,0.3500*%
%ADD75C,0.2500*%
%ADD76C,0.5588*%
%ADD77C,0.4500*%
%ADD78C,1.5000*%
%ADD79C,0.0254*%
%ADD80C,2.5400*%
%ADD81C,0.9000*%
%ADD82C,1.8796*%
G04:AMPARAMS|DCode=83|XSize=1.8796mm|YSize=1.8796mm|CornerRadius=0.4699mm|HoleSize=0mm|Usage=FLASHONLY|Rotation=180.000|XOffset=0mm|YOffset=0mm|HoleType=Round|Shape=RoundedRectangle|*
%AMROUNDEDRECTD83*
21,1,1.8796,0.9398,0,0,180.0*
21,1,0.9398,1.8796,0,0,180.0*
1,1,0.9398,-0.4699,0.4699*
1,1,0.9398,0.4699,0.4699*
1,1,0.9398,0.4699,-0.4699*
1,1,0.9398,-0.4699,-0.4699*
%
%ADD83ROUNDEDRECTD83*%
%ADD84C,2.0066*%
%ADD85C,0.8000*%
%ADD86C,0.7112*%
%ADD87C,1.1000*%
%ADD88C,0.7300*%
%ADD89C,0.6900*%
%ADD90C,1.0000*%
%ADD91C,0.5000*%
%ADD92C,0.6600*%
%ADD93R,2.5000X2.0500*%
%ADD94R,2.3000X0.5000*%
%ADD95R,2.0500X2.5000*%
%ADD96R,0.5000X2.3000*%
%ADD97R,1.2000X1.8000*%
%ADD98R,1.8000X1.2000*%
%ADD99R,1.5500X0.6000*%
%ADD100R,1.8000X3.9000*%
%ADD101R,1.3000X4.5000*%
%ADD102R,3.3000X3.3000*%
%ADD103R,0.3000X0.3000*%
%ADD104R,0.5000X0.3000*%
%ADD105R,0.3000X0.3000*%
%ADD106R,0.3000X0.5000*%
%ADD107C,0.1000*%
%ADD108C,0.1500*%
%ADD109C,0.1270*%
%ADD110R,0.7750X0.4500*%
%ADD111R,0.7000X0.7000*%
%ADD112R,0.7000X0.7000*%
%ADD113R,0.7000X0.7000*%
%ADD114R,0.6500X1.0000*%
%ADD115R,0.2766X0.6512*%
%ADD116R,0.6512X0.2766*%
%ADD117O,0.8000X0.2300*%
%ADD118O,0.2300X0.8000*%
%ADD119O,0.8000X0.2500*%
D17*
X00882043Y01005585D02*
D03*
X00901544D02*
D03*
D18*
X00890524Y01072505D02*
D03*
Y01055506D02*
D03*
X00794004Y01011056D02*
D03*
Y01028055D02*
D03*
X01031494Y00579255D02*
D03*
Y00596255D02*
D03*
D19*
X01341120Y00523747D02*
D03*
X01329182D02*
D03*
X01317243D02*
D03*
X01269238D02*
D03*
X01281176D02*
D03*
X01293114D02*
D03*
X01345184D02*
D03*
X01333246D02*
D03*
X01321308D02*
D03*
X01309115D02*
D03*
X01273301D02*
D03*
X01285240D02*
D03*
X01297177D02*
D03*
X01337310D02*
D03*
X01325117D02*
D03*
X01313179D02*
D03*
X01305305D02*
D03*
X01265173D02*
D03*
X01277112D02*
D03*
X01289303D02*
D03*
X01301241D02*
D03*
X01345184Y00550163D02*
D03*
X01337310D02*
D03*
X01317243D02*
D03*
X01341120D02*
D03*
X01333246D02*
D03*
X01329182D02*
D03*
X01321308D02*
D03*
X01325117D02*
D03*
X01289303D02*
D03*
X01285240D02*
D03*
X01293114D02*
D03*
X01277112D02*
D03*
X01273301D02*
D03*
X01281176D02*
D03*
X01309115D02*
D03*
X01305305D02*
D03*
X01313179D02*
D03*
X01297177D02*
D03*
X01301241D02*
D03*
X01265173D02*
D03*
X01261364D02*
D03*
X01269238D02*
D03*
X01253235D02*
D03*
X01241298D02*
D03*
X01257299D02*
D03*
X01245361D02*
D03*
X01237234D02*
D03*
X01249172D02*
D03*
X01225295D02*
D03*
X01221232D02*
D03*
X01233169D02*
D03*
X01217168D02*
D03*
X01213357D02*
D03*
X01229360D02*
D03*
X01209294D02*
D03*
X01245361Y00523747D02*
D03*
X01241298D02*
D03*
X01249172D02*
D03*
X01233169D02*
D03*
X01229360D02*
D03*
X01237234D02*
D03*
X01261364D02*
D03*
X01253235D02*
D03*
X01257299D02*
D03*
X01217168D02*
D03*
X01221232D02*
D03*
X01213357D02*
D03*
X01209294D02*
D03*
X01225295D02*
D03*
X01199174Y00844589D02*
D03*
Y00818174D02*
D03*
X01195109Y00844589D02*
D03*
Y00818174D02*
D03*
X01191300Y00844589D02*
D03*
Y00818174D02*
D03*
X01187235Y00844589D02*
D03*
Y00818174D02*
D03*
X01183171Y00844589D02*
D03*
Y00818174D02*
D03*
X01179108Y00844589D02*
D03*
Y00818174D02*
D03*
X01175297Y00844589D02*
D03*
Y00818174D02*
D03*
X01171234Y00844589D02*
D03*
Y00818174D02*
D03*
X01167169Y00844589D02*
D03*
Y00818174D02*
D03*
X01163105Y00844589D02*
D03*
Y00818174D02*
D03*
X01159296Y00844589D02*
D03*
Y00818174D02*
D03*
X01155231Y00844589D02*
D03*
Y00818174D02*
D03*
X01151168Y00844589D02*
D03*
Y00818174D02*
D03*
X01147104Y00844589D02*
D03*
Y00818174D02*
D03*
X01143294Y00844589D02*
D03*
Y00818174D02*
D03*
X01139230Y00844589D02*
D03*
Y00818174D02*
D03*
X01135165Y00844589D02*
D03*
Y00818174D02*
D03*
X01131356Y00844589D02*
D03*
Y00818174D02*
D03*
X01127291Y00844589D02*
D03*
Y00818174D02*
D03*
X01123227Y00844589D02*
D03*
Y00818174D02*
D03*
X01119164Y00844589D02*
D03*
Y00818174D02*
D03*
X01115353Y00844589D02*
D03*
Y00818174D02*
D03*
X01111290Y00844589D02*
D03*
Y00818174D02*
D03*
X01107225Y00844589D02*
D03*
Y00818174D02*
D03*
X01103161Y00844589D02*
D03*
Y00818174D02*
D03*
X01099352Y00844589D02*
D03*
Y00818174D02*
D03*
X01095287Y00844589D02*
D03*
Y00818174D02*
D03*
X01091224Y00844589D02*
D03*
Y00818174D02*
D03*
X01087160Y00844589D02*
D03*
Y00818174D02*
D03*
X01083350Y00844589D02*
D03*
Y00818174D02*
D03*
X01079286Y00844589D02*
D03*
Y00818174D02*
D03*
X01075221Y00844589D02*
D03*
Y00818174D02*
D03*
X01071158Y00844589D02*
D03*
Y00818174D02*
D03*
X01067347Y00844589D02*
D03*
Y00818174D02*
D03*
X01063283Y00844589D02*
D03*
Y00818174D02*
D03*
D20*
X00748029Y00804602D02*
D03*
Y00790601D02*
D03*
X00760730Y00804601D02*
D03*
Y00790601D02*
D03*
Y00778651D02*
D03*
Y00764651D02*
D03*
X00847344Y00753475D02*
D03*
Y00767475D02*
D03*
X00872744Y00834786D02*
D03*
Y00820786D02*
D03*
X00860043Y00806786D02*
D03*
Y00820786D02*
D03*
D21*
X00729360Y00821182D02*
D03*
X00713360D02*
D03*
X00729360Y00770382D02*
D03*
X00713360D02*
D03*
X00865760Y00620522D02*
D03*
X00881760D02*
D03*
X00633349Y00750062D02*
D03*
X00649350D02*
D03*
X00806830Y00743712D02*
D03*
X00790829D02*
D03*
X00633349Y00770382D02*
D03*
X00649350D02*
D03*
X00670180Y00607822D02*
D03*
X00686180D02*
D03*
X00868553Y00715146D02*
D03*
X00884554D02*
D03*
D22*
X00689610Y00805052D02*
D03*
Y00789052D02*
D03*
X00834643Y00767475D02*
D03*
Y00751475D02*
D03*
X00703579Y00561721D02*
D03*
Y00577721D02*
D03*
X00693419Y00630302D02*
D03*
Y00646301D02*
D03*
X00787400Y00535812D02*
D03*
Y00519812D02*
D03*
X00748030Y00818811D02*
D03*
Y00834811D02*
D03*
X00852170Y00591692D02*
D03*
Y00575691D02*
D03*
D23*
X00823350Y00830071D02*
D03*
X00840349D02*
D03*
X00742559Y00614171D02*
D03*
X00725560D02*
D03*
X00742560Y00630681D02*
D03*
X00725560D02*
D03*
X00682870Y00750061D02*
D03*
X00665870D02*
D03*
Y00770381D02*
D03*
X00682870D02*
D03*
D24*
X00918210Y00609702D02*
D03*
X00927710Y00590702D02*
D03*
X00908710D02*
D03*
D25*
X00709930Y00646802D02*
D03*
Y00629802D02*
D03*
X00901700Y00561711D02*
D03*
Y00544711D02*
D03*
X00803910Y00536312D02*
D03*
Y00519312D02*
D03*
X00903223Y00715146D02*
D03*
Y00732146D02*
D03*
X01026413Y00718945D02*
D03*
Y00702945D02*
D03*
X01030223Y00679576D02*
D03*
Y00663576D02*
D03*
D26*
X00780400Y00832611D02*
D03*
X00794400D02*
D03*
X00805829Y00728472D02*
D03*
X00791829D02*
D03*
X00630540Y00584962D02*
D03*
X00644540D02*
D03*
D27*
X00866500Y00545042D02*
D03*
X00846500D02*
D03*
X00856500D02*
D03*
X00876500D02*
D03*
D28*
X00833500Y00506541D02*
D03*
X00889500D02*
D03*
D29*
X00772290Y00595121D02*
D03*
Y00582421D02*
D03*
Y00569721D02*
D03*
Y00557021D02*
D03*
X00820290Y00595121D02*
D03*
Y00582421D02*
D03*
Y00569721D02*
D03*
Y00557021D02*
D03*
D30*
X00869800Y00576982D02*
D03*
X00876300D02*
D03*
X00882800D02*
D03*
Y00595482D02*
D03*
X00869800D02*
D03*
D31*
X00844410Y00692472D02*
D03*
Y00687472D02*
D03*
Y00682472D02*
D03*
Y00677472D02*
D03*
Y00672472D02*
D03*
Y00667471D02*
D03*
Y00662472D02*
D03*
Y00657471D02*
D03*
Y00652472D02*
D03*
Y00647471D02*
D03*
Y00642472D02*
D03*
Y00637471D02*
D03*
D32*
X00831410Y00624472D02*
D03*
X00826410D02*
D03*
X00821410D02*
D03*
X00816410D02*
D03*
X00811410D02*
D03*
X00806409D02*
D03*
X00801410D02*
D03*
X00796409D02*
D03*
X00791410D02*
D03*
X00786409D02*
D03*
X00781410D02*
D03*
X00776409D02*
D03*
Y00705472D02*
D03*
X00781410D02*
D03*
X00786409D02*
D03*
X00791410D02*
D03*
X00796409D02*
D03*
X00801410D02*
D03*
X00806409D02*
D03*
X00811410D02*
D03*
X00816410D02*
D03*
X00821410D02*
D03*
X00826410D02*
D03*
X00831410D02*
D03*
D33*
X00763410Y00637471D02*
D03*
Y00642472D02*
D03*
Y00647471D02*
D03*
Y00652472D02*
D03*
Y00657471D02*
D03*
Y00662472D02*
D03*
Y00667471D02*
D03*
Y00672472D02*
D03*
Y00677472D02*
D03*
Y00682472D02*
D03*
Y00687472D02*
D03*
Y00692472D02*
D03*
D36*
X00903223Y00757935D02*
D03*
Y00745235D02*
D03*
D37*
X00688079Y00591853D02*
D03*
Y00572854D02*
D03*
X00664079D02*
D03*
Y00582354D02*
D03*
Y00591853D02*
D03*
X00730819Y00786282D02*
D03*
Y00805282D02*
D03*
X00706820Y00795782D02*
D03*
Y00805282D02*
D03*
Y00786282D02*
D03*
D38*
X00643770Y00600201D02*
D03*
X00628770D02*
D03*
X00730130Y00838961D02*
D03*
X00715129D02*
D03*
D39*
X00706120Y00611512D02*
D03*
Y00596511D02*
D03*
D43*
X00887783Y00779225D02*
D03*
Y00766725D02*
D03*
Y00754226D02*
D03*
Y00741726D02*
D03*
X00862784D02*
D03*
Y00754226D02*
D03*
Y00766725D02*
D03*
Y00779225D02*
D03*
D44*
X00911051Y00808575D02*
D03*
Y00823576D02*
D03*
X00882503D02*
D03*
Y00808575D02*
D03*
D45*
X00911051Y00813576D02*
D03*
Y00818575D02*
D03*
X00882503D02*
D03*
Y00813576D02*
D03*
D46*
X00904277Y00801802D02*
D03*
X00889277D02*
D03*
Y00830350D02*
D03*
X00904277D02*
D03*
D47*
X00899277Y00801802D02*
D03*
X00894277D02*
D03*
Y00830350D02*
D03*
X00899277D02*
D03*
D48*
X00908414Y00844296D02*
D03*
X00890414D02*
D03*
D49*
X00864743D02*
D03*
X00872744D02*
D03*
D50*
X00858744Y00794765D02*
D03*
X00872744D02*
D03*
X01001664Y00554735D02*
D03*
X00987663D02*
D03*
D51*
X00769033Y01011936D02*
D03*
X00727534D02*
D03*
D52*
X00989663Y00539606D02*
D03*
X00999663D02*
D03*
D53*
X01023874Y00539655D02*
D03*
X01014373Y00559655D02*
D03*
X01033374D02*
D03*
D56*
X00960374Y00945516D02*
D03*
Y00961516D02*
D03*
X00938783Y00945516D02*
D03*
Y00961516D02*
D03*
X00973074Y00628775D02*
D03*
Y00612775D02*
D03*
D57*
X00993553Y00710946D02*
D03*
X01013553Y00720446D02*
D03*
Y00701445D02*
D03*
X00996094Y00672846D02*
D03*
X01016094Y00682346D02*
D03*
Y00663345D02*
D03*
D58*
X00829564Y00818276D02*
D03*
Y00804276D02*
D03*
X00852423Y00982105D02*
D03*
Y00968105D02*
D03*
X00839724Y00968105D02*
D03*
Y00982105D02*
D03*
D59*
X00961264Y00569976D02*
D03*
X00977263D02*
D03*
X00925704Y00925575D02*
D03*
X00941703D02*
D03*
X00852423Y00996695D02*
D03*
X00836423D02*
D03*
D60*
X01020453Y00632206D02*
D03*
X01037454D02*
D03*
D79*
X00616203Y00477266D02*
X01427634Y00477266D01*
X01427634Y01092505D02*
X01427634Y00477266D01*
X00616203Y01092505D02*
X01427634Y01092505D01*
X00616203Y00477266D02*
Y01092505D01*
D111*
X00894660Y00965890D02*
D03*
D112*
Y00956890D02*
D03*
X00903660Y00956890D02*
D03*
D113*
Y00965890D02*
D03*
D114*
X01006784Y00595475D02*
D03*
X00997783D02*
D03*
Y00607976D02*
D03*
X01006784D02*
D03*
D115*
X00810059Y00774041D02*
D03*
X00805059D02*
D03*
X00800059D02*
D03*
X00795059D02*
D03*
X00790059D02*
D03*
X00785059D02*
D03*
Y00813541D02*
D03*
X00790059D02*
D03*
X00795059D02*
D03*
X00800059D02*
D03*
X00805059D02*
D03*
X00810059D02*
D03*
D116*
X00777810Y00781291D02*
D03*
Y00786291D02*
D03*
Y00791291D02*
D03*
Y00796291D02*
D03*
Y00801291D02*
D03*
Y00806292D02*
D03*
X00817309D02*
D03*
Y00801291D02*
D03*
Y00796291D02*
D03*
Y00791291D02*
D03*
Y00786291D02*
D03*
Y00781291D02*
D03*
D117*
X00884410Y00968890D02*
D03*
Y00963890D02*
D03*
Y00958890D02*
D03*
Y00953890D02*
D03*
X00913910D02*
D03*
Y00958890D02*
D03*
Y00963890D02*
D03*
Y00968890D02*
D03*
D118*
X00891660Y00946640D02*
D03*
X00896660D02*
D03*
X00901660D02*
D03*
X00906660D02*
D03*
Y00976140D02*
D03*
X00901660D02*
D03*
X00896660D02*
D03*
X00891660D02*
D03*
D119*
X01017033Y00591975D02*
D03*
Y00598475D02*
D03*
Y00604976D02*
D03*
Y00611475D02*
D03*
X00987534D02*
D03*
Y00604976D02*
D03*
Y00598475D02*
D03*
Y00591975D02*
D03*
M02*
