%FSAX44Y44*%
%MOMM*%
G71*
G01*
G75*
%ADD10C,0.2540*%
%ADD11C,0.2032*%
%ADD12C,0.6350*%
%ADD13C,0.5080*%
%ADD14C,0.3048*%
%ADD15C,0.7620*%
%ADD16C,0.3810*%
%ADD17R,0.7000X0.9000*%
%ADD18R,0.9000X0.7000*%
%ADD19R,1.3000X0.8500*%
%ADD20R,0.8500X1.3000*%
%ADD21R,0.9500X1.3500*%
%ADD22R,1.3500X0.9500*%
%ADD23R,1.0000X0.9000*%
%ADD24R,0.9000X0.8000*%
%ADD25R,1.6500X2.4000*%
%ADD26O,0.8500X0.3000*%
%ADD27R,0.8000X0.9000*%
%ADD28R,0.6500X0.9000*%
%ADD29R,0.9500X1.4000*%
%ADD30R,1.0000X1.0000*%
%ADD31R,0.9000X0.8000*%
%ADD32R,0.5200X0.5200*%
%ADD33R,1.1000X1.1000*%
%ADD34R,0.6298X0.2500*%
%ADD35R,0.6298X0.2500*%
%ADD36R,0.2500X0.6298*%
%ADD37R,0.2500X0.6298*%
%ADD38R,1.4000X0.6000*%
%ADD39R,1.7000X1.7000*%
%ADD40O,0.2800X0.8500*%
%ADD41O,0.8500X0.2800*%
%ADD42R,0.8500X2.3000*%
%ADD43R,0.2032X1.1430*%
%ADD44R,1.4000X1.1000*%
%ADD45R,1.1000X1.4000*%
%ADD46R,0.9000X0.6500*%
%ADD47R,0.9000X1.0000*%
%ADD48R,0.8000X0.9000*%
%ADD49R,1.0000X1.0000*%
%ADD50R,1.0160X0.8000*%
%ADD51R,0.7112X0.3366*%
%ADD52R,0.3366X0.7112*%
%ADD53O,0.2650X1.8500*%
%ADD54O,1.8500X0.2650*%
%ADD55O,1.8500X0.2650*%
%ADD56R,0.3500X0.6500*%
%ADD57O,2.2000X0.6000*%
%ADD58R,1.2000X1.8000*%
%ADD59R,0.6000X1.5500*%
%ADD60R,0.6000X1.5000*%
%ADD61C,0.5000*%
%ADD62C,0.4000*%
%ADD63C,0.4500*%
%ADD64C,2.1590*%
%ADD65C,1.0000*%
%ADD66C,0.3000*%
%ADD67C,0.1524*%
%ADD68C,1.5000*%
%ADD69C,0.1540*%
%ADD70C,0.7500*%
%ADD71C,0.2500*%
%ADD72C,0.2000*%
%ADD73C,0.5588*%
%ADD74C,2.0000*%
%ADD75C,0.1600*%
%ADD76C,0.1700*%
%ADD77C,0.3500*%
%ADD78C,0.6000*%
%ADD79C,0.0254*%
%ADD80C,2.0066*%
%ADD81C,0.9000*%
%ADD82C,2.5400*%
G04:AMPARAMS|DCode=83|XSize=1.8796mm|YSize=1.8796mm|CornerRadius=0.4699mm|HoleSize=0mm|Usage=FLASHONLY|Rotation=180.000|XOffset=0mm|YOffset=0mm|HoleType=Round|Shape=RoundedRectangle|*
%AMROUNDEDRECTD83*
21,1,1.8796,0.9398,0,0,180.0*
21,1,0.9398,1.8796,0,0,180.0*
1,1,0.9398,-0.4699,0.4699*
1,1,0.9398,0.4699,0.4699*
1,1,0.9398,0.4699,-0.4699*
1,1,0.9398,-0.4699,-0.4699*
%
%ADD83ROUNDEDRECTD83*%
%ADD84C,1.8796*%
%ADD85C,0.7112*%
%ADD86C,0.6600*%
%ADD87C,0.5000*%
%ADD88C,0.6900*%
%ADD89C,1.0000*%
%ADD90C,0.7300*%
%ADD91C,1.1000*%
%ADD92C,0.8000*%
%ADD93R,0.3000X0.3000*%
%ADD94R,0.3000X0.5000*%
%ADD95R,0.3000X0.3000*%
%ADD96R,0.5000X0.3000*%
%ADD97R,3.3000X3.3000*%
%ADD98R,1.3000X4.5000*%
%ADD99R,1.8000X3.9000*%
%ADD100R,1.5500X0.6000*%
%ADD101R,1.8000X1.2000*%
%ADD102R,1.2000X1.8000*%
%ADD103R,2.0500X2.5000*%
%ADD104R,0.5000X2.3000*%
%ADD105R,2.3000X0.5000*%
%ADD106R,2.5000X2.0500*%
%ADD107C,0.1000*%
%ADD108C,0.1270*%
%ADD109C,0.1500*%
%ADD110R,0.7750X0.4500*%
G36*
X00914498Y00526811D02*
X00914637Y00526787D01*
X00914812Y00526741D01*
X00915010Y00526683D01*
X00915207Y00526601D01*
X00915417Y00526497D01*
X00914882Y00524996D01*
X00914858Y00525008D01*
X00914812Y00525042D01*
X00914730Y00525089D01*
X00914626Y00525147D01*
X00914498Y00525194D01*
X00914358Y00525240D01*
X00914219Y00525275D01*
X00914079Y00525287D01*
X00914021D01*
X00913951Y00525275D01*
X00913858Y00525264D01*
X00913765Y00525240D01*
X00913660Y00525194D01*
X00913555Y00525147D01*
X00913451Y00525077D01*
X00913439Y00525066D01*
X00913416Y00525042D01*
X00913369Y00524984D01*
X00913311Y00524915D01*
X00913253Y00524810D01*
X00913183Y00524693D01*
X00913125Y00524542D01*
X00913067Y00524356D01*
Y00524333D01*
X00913055Y00524298D01*
X00913044Y00524252D01*
X00913032Y00524182D01*
X00913020Y00524112D01*
X00913009Y00524007D01*
X00912997Y00523891D01*
X00912985Y00523763D01*
X00912974Y00523600D01*
X00912962Y00523425D01*
X00912951Y00523228D01*
X00912939Y00523007D01*
Y00522762D01*
X00912927Y00522495D01*
Y00522192D01*
Y00520191D01*
X00911217D01*
Y00526671D01*
X00912811D01*
Y00525752D01*
X00912834Y00525764D01*
X00912846Y00525799D01*
X00912881Y00525845D01*
X00912962Y00525962D01*
X00913055Y00526090D01*
X00913172Y00526241D01*
X00913288Y00526380D01*
X00913416Y00526508D01*
X00913544Y00526601D01*
X00913555Y00526613D01*
X00913602Y00526636D01*
X00913672Y00526671D01*
X00913753Y00526718D01*
X00913869Y00526753D01*
X00913986Y00526787D01*
X00914126Y00526811D01*
X00914277Y00526822D01*
X00914381D01*
X00914498Y00526811D01*
D02*
G37*
G36*
X00898781Y00529126D02*
X00899119D01*
X00899491Y00529103D01*
X00899840Y00529079D01*
X00900003Y00529068D01*
X00900154Y00529044D01*
X00900282Y00529021D01*
X00900387Y00528998D01*
X00900398D01*
X00900422Y00528986D01*
X00900456Y00528975D01*
X00900515Y00528951D01*
X00900573Y00528928D01*
X00900654Y00528905D01*
X00900829Y00528812D01*
X00901027Y00528695D01*
X00901247Y00528544D01*
X00901457Y00528358D01*
X00901666Y00528125D01*
X00901678Y00528114D01*
X00901690Y00528090D01*
X00901713Y00528055D01*
X00901748Y00528009D01*
X00901783Y00527939D01*
X00901829Y00527858D01*
X00901876Y00527765D01*
X00901934Y00527660D01*
X00901980Y00527532D01*
X00902027Y00527404D01*
X00902074Y00527265D01*
X00902108Y00527102D01*
X00902167Y00526764D01*
X00902190Y00526578D01*
Y00526380D01*
Y00526369D01*
Y00526345D01*
Y00526299D01*
Y00526241D01*
X00902178Y00526171D01*
Y00526090D01*
X00902155Y00525903D01*
X00902120Y00525682D01*
X00902062Y00525450D01*
X00901992Y00525217D01*
X00901887Y00524996D01*
Y00524984D01*
X00901876Y00524973D01*
X00901829Y00524903D01*
X00901771Y00524798D01*
X00901678Y00524682D01*
X00901562Y00524531D01*
X00901434Y00524391D01*
X00901282Y00524240D01*
X00901120Y00524112D01*
X00901096Y00524100D01*
X00901038Y00524065D01*
X00900957Y00524007D01*
X00900829Y00523937D01*
X00900689Y00523868D01*
X00900538Y00523798D01*
X00900363Y00523740D01*
X00900189Y00523693D01*
X00900154D01*
X00900119Y00523681D01*
X00900073Y00523670D01*
X00900003Y00523658D01*
X00899921D01*
X00899828Y00523647D01*
X00899712Y00523635D01*
X00899596Y00523623D01*
X00899456Y00523612D01*
X00899305Y00523600D01*
X00899130Y00523588D01*
X00898956Y00523577D01*
X00898758D01*
X00898549Y00523565D01*
X00897153D01*
Y00520191D01*
X00895350D01*
Y00529137D01*
X00898630D01*
X00898781Y00529126D01*
D02*
G37*
G36*
X00912678Y00530351D02*
X00911125D01*
Y00536237D01*
X00912678D01*
Y00530351D01*
D02*
G37*
G36*
X00907364Y00536364D02*
X00907469D01*
X00907575Y00536353D01*
X00907702Y00536343D01*
X00907945Y00536311D01*
X00908209Y00536269D01*
X00908452Y00536205D01*
X00908558Y00536163D01*
X00908663Y00536121D01*
X00908674D01*
X00908684Y00536110D01*
X00908748Y00536078D01*
X00908832Y00536026D01*
X00908948Y00535952D01*
X00909065Y00535867D01*
X00909181Y00535751D01*
X00909287Y00535635D01*
X00909382Y00535497D01*
X00909392Y00535476D01*
X00909413Y00535423D01*
X00909435Y00535381D01*
X00909445Y00535328D01*
X00909466Y00535254D01*
X00909487Y00535180D01*
X00909509Y00535096D01*
X00909530Y00534990D01*
X00909540Y00534874D01*
X00909561Y00534747D01*
X00909572Y00534610D01*
X00909582Y00534451D01*
X00909593Y00534282D01*
Y00534103D01*
X00909572Y00532285D01*
Y00532275D01*
Y00532253D01*
Y00532211D01*
Y00532158D01*
Y00532095D01*
Y00532021D01*
X00909582Y00531852D01*
X00909593Y00531662D01*
X00909604Y00531471D01*
X00909625Y00531292D01*
X00909646Y00531133D01*
Y00531112D01*
X00909656Y00531070D01*
X00909678Y00530996D01*
X00909709Y00530901D01*
X00909752Y00530785D01*
X00909794Y00530647D01*
X00909857Y00530499D01*
X00909931Y00530351D01*
X00908388D01*
Y00530362D01*
X00908378Y00530383D01*
X00908367Y00530415D01*
X00908346Y00530468D01*
X00908325Y00530531D01*
X00908293Y00530605D01*
X00908262Y00530700D01*
X00908230Y00530806D01*
Y00530816D01*
Y00530827D01*
X00908209Y00530880D01*
X00908198Y00530943D01*
X00908177Y00530985D01*
X00908156Y00530964D01*
X00908103Y00530922D01*
X00908029Y00530848D01*
X00907924Y00530764D01*
X00907797Y00530668D01*
X00907649Y00530573D01*
X00907490Y00530489D01*
X00907321Y00530404D01*
X00907300Y00530394D01*
X00907247Y00530373D01*
X00907152Y00530341D01*
X00907036Y00530309D01*
X00906888Y00530277D01*
X00906730Y00530246D01*
X00906550Y00530225D01*
X00906360Y00530214D01*
X00906275D01*
X00906212Y00530225D01*
X00906138D01*
X00906043Y00530235D01*
X00905842Y00530277D01*
X00905610Y00530330D01*
X00905366Y00530415D01*
X00905134Y00530542D01*
X00905028Y00530616D01*
X00904923Y00530700D01*
X00904912Y00530711D01*
X00904902Y00530721D01*
X00904880Y00530753D01*
X00904838Y00530785D01*
X00904764Y00530901D01*
X00904669Y00531038D01*
X00904574Y00531218D01*
X00904489Y00531440D01*
X00904426Y00531683D01*
X00904416Y00531810D01*
X00904405Y00531947D01*
Y00531958D01*
Y00531968D01*
Y00532032D01*
X00904416Y00532127D01*
X00904437Y00532243D01*
X00904458Y00532380D01*
X00904500Y00532528D01*
X00904563Y00532687D01*
X00904637Y00532835D01*
X00904648Y00532856D01*
X00904680Y00532898D01*
X00904733Y00532972D01*
X00904817Y00533056D01*
X00904912Y00533152D01*
X00905018Y00533247D01*
X00905155Y00533342D01*
X00905303Y00533426D01*
X00905324Y00533437D01*
X00905388Y00533458D01*
X00905483Y00533500D01*
X00905620Y00533553D01*
X00905800Y00533606D01*
X00906011Y00533669D01*
X00906254Y00533733D01*
X00906539Y00533786D01*
X00906550D01*
X00906592Y00533796D01*
X00906645Y00533807D01*
X00906719Y00533817D01*
X00906804Y00533838D01*
X00906909Y00533859D01*
X00907142Y00533912D01*
X00907395Y00533976D01*
X00907649Y00534039D01*
X00907765Y00534071D01*
X00907871Y00534113D01*
X00907976Y00534145D01*
X00908061Y00534176D01*
Y00534324D01*
Y00534335D01*
Y00534346D01*
Y00534398D01*
X00908050Y00534483D01*
X00908029Y00534578D01*
X00908008Y00534694D01*
X00907966Y00534800D01*
X00907902Y00534895D01*
X00907828Y00534980D01*
X00907818Y00534990D01*
X00907786Y00535011D01*
X00907723Y00535043D01*
X00907638Y00535085D01*
X00907533Y00535117D01*
X00907385Y00535149D01*
X00907205Y00535170D01*
X00906994Y00535180D01*
X00906920D01*
X00906846Y00535170D01*
X00906751Y00535159D01*
X00906645Y00535138D01*
X00906539Y00535106D01*
X00906434Y00535064D01*
X00906339Y00535011D01*
X00906328Y00535001D01*
X00906296Y00534980D01*
X00906254Y00534937D01*
X00906201Y00534874D01*
X00906148Y00534800D01*
X00906085Y00534694D01*
X00906022Y00534578D01*
X00905969Y00534430D01*
X00904563Y00534684D01*
Y00534694D01*
X00904574Y00534726D01*
X00904585Y00534768D01*
X00904606Y00534821D01*
X00904637Y00534895D01*
X00904669Y00534980D01*
X00904754Y00535159D01*
X00904859Y00535370D01*
X00905007Y00535582D01*
X00905176Y00535783D01*
X00905377Y00535952D01*
X00905388D01*
X00905409Y00535973D01*
X00905440Y00535994D01*
X00905483Y00536015D01*
X00905546Y00536047D01*
X00905620Y00536089D01*
X00905715Y00536121D01*
X00905810Y00536163D01*
X00905927Y00536205D01*
X00906053Y00536237D01*
X00906201Y00536279D01*
X00906349Y00536311D01*
X00906518Y00536332D01*
X00906708Y00536353D01*
X00906899Y00536374D01*
X00907279D01*
X00907364Y00536364D01*
D02*
G37*
G36*
X00917941Y00526671D02*
X00919116D01*
Y00525310D01*
X00917941D01*
Y00522681D01*
Y00522669D01*
Y00522646D01*
Y00522611D01*
Y00522553D01*
Y00522425D01*
Y00522274D01*
X00917953Y00522111D01*
Y00521960D01*
Y00521832D01*
X00917964Y00521785D01*
Y00521750D01*
X00917976Y00521727D01*
X00917999Y00521680D01*
X00918046Y00521611D01*
X00918116Y00521541D01*
X00918127D01*
X00918139Y00521529D01*
X00918197Y00521506D01*
X00918302Y00521471D01*
X00918418Y00521460D01*
X00918465D01*
X00918511Y00521471D01*
X00918593Y00521483D01*
X00918686Y00521494D01*
X00918802Y00521529D01*
X00918942Y00521564D01*
X00919105Y00521622D01*
X00919256Y00520285D01*
X00919244D01*
X00919232Y00520273D01*
X00919198Y00520261D01*
X00919151Y00520250D01*
X00919023Y00520203D01*
X00918860Y00520168D01*
X00918662Y00520122D01*
X00918430Y00520075D01*
X00918174Y00520052D01*
X00917895Y00520040D01*
X00917813D01*
X00917732Y00520052D01*
X00917627Y00520064D01*
X00917499Y00520075D01*
X00917359Y00520110D01*
X00917208Y00520145D01*
X00917069Y00520191D01*
X00917057Y00520203D01*
X00917010Y00520215D01*
X00916941Y00520250D01*
X00916859Y00520296D01*
X00916685Y00520424D01*
X00916592Y00520506D01*
X00916522Y00520587D01*
X00916510Y00520599D01*
X00916499Y00520634D01*
X00916464Y00520692D01*
X00916429Y00520773D01*
X00916382Y00520866D01*
X00916347Y00520983D01*
X00916312Y00521110D01*
X00916278Y00521262D01*
Y00521273D01*
X00916266Y00521320D01*
Y00521401D01*
X00916254Y00521529D01*
X00916243Y00521692D01*
Y00521785D01*
Y00521902D01*
X00916231Y00522018D01*
Y00522158D01*
Y00522309D01*
Y00522472D01*
Y00525310D01*
X00915440D01*
Y00526671D01*
X00916231D01*
Y00527962D01*
X00917941Y00528975D01*
Y00526671D01*
D02*
G37*
G36*
X00751155Y01067815D02*
X00749593D01*
X00747687Y01072408D01*
X00749510D01*
X00750405Y01069492D01*
X00751332Y01072408D01*
X00753113D01*
X00751155Y01067815D01*
D02*
G37*
G36*
X00756373Y01072502D02*
X00756581Y01072491D01*
X00756789Y01072470D01*
X00757008Y01072450D01*
X00757195Y01072419D01*
X00757216D01*
X00757279Y01072398D01*
X00757362Y01072377D01*
X00757477Y01072335D01*
X00757601Y01072283D01*
X00757737Y01072221D01*
X00757872Y01072137D01*
X00757997Y01072044D01*
X00758008Y01072033D01*
X00758039Y01072012D01*
X00758081Y01071960D01*
X00758133Y01071908D01*
X00758185Y01071825D01*
X00758247Y01071731D01*
X00758299Y01071617D01*
X00758351Y01071492D01*
X00758362Y01071481D01*
X00758372Y01071429D01*
X00758393Y01071367D01*
X00758424Y01071273D01*
X00758445Y01071169D01*
X00758466Y01071054D01*
X00758476Y01070940D01*
X00758487Y01070815D01*
Y01068784D01*
Y01068774D01*
Y01068732D01*
Y01068669D01*
Y01068596D01*
X00758497Y01068430D01*
X00758508Y01068347D01*
X00758518Y01068274D01*
Y01068263D01*
X00758528Y01068242D01*
X00758539Y01068201D01*
X00758560Y01068149D01*
X00758580Y01068086D01*
X00758612Y01068003D01*
X00758653Y01067920D01*
X00758705Y01067815D01*
X00757049D01*
Y01067826D01*
X00757039Y01067847D01*
X00756998Y01067920D01*
X00756956Y01068003D01*
X00756925Y01068076D01*
Y01068097D01*
X00756904Y01068149D01*
X00756883Y01068242D01*
X00756872Y01068305D01*
X00756862Y01068378D01*
X00756852Y01068367D01*
X00756800Y01068326D01*
X00756737Y01068263D01*
X00756643Y01068190D01*
X00756539Y01068118D01*
X00756425Y01068034D01*
X00756300Y01067961D01*
X00756175Y01067899D01*
X00756154Y01067888D01*
X00756092Y01067868D01*
X00755998Y01067836D01*
X00755862Y01067805D01*
X00755706Y01067774D01*
X00755519Y01067743D01*
X00755310Y01067722D01*
X00755081Y01067711D01*
X00754998D01*
X00754946Y01067722D01*
X00754873D01*
X00754800Y01067732D01*
X00754613Y01067763D01*
X00754415Y01067805D01*
X00754206Y01067868D01*
X00754009Y01067961D01*
X00753832Y01068086D01*
X00753811Y01068107D01*
X00753769Y01068159D01*
X00753696Y01068242D01*
X00753623Y01068347D01*
X00753540Y01068482D01*
X00753467Y01068649D01*
X00753426Y01068826D01*
X00753405Y01069024D01*
Y01069034D01*
Y01069044D01*
Y01069107D01*
X00753426Y01069211D01*
X00753446Y01069325D01*
X00753477Y01069461D01*
X00753530Y01069607D01*
X00753603Y01069753D01*
X00753707Y01069888D01*
X00753717Y01069898D01*
X00753769Y01069940D01*
X00753852Y01070002D01*
X00753967Y01070075D01*
X00754123Y01070159D01*
X00754217Y01070200D01*
X00754321Y01070242D01*
X00754436Y01070284D01*
X00754561Y01070315D01*
X00754696Y01070357D01*
X00754842Y01070388D01*
X00754852D01*
X00754883Y01070398D01*
X00754936Y01070409D01*
X00754998Y01070419D01*
X00755081Y01070440D01*
X00755175Y01070450D01*
X00755383Y01070492D01*
X00755592Y01070544D01*
X00755810Y01070586D01*
X00755904Y01070606D01*
X00755998Y01070627D01*
X00756071Y01070648D01*
X00756133Y01070658D01*
X00756143D01*
X00756185Y01070669D01*
X00756248Y01070690D01*
X00756331Y01070721D01*
X00756425Y01070752D01*
X00756529Y01070783D01*
X00756768Y01070877D01*
Y01070888D01*
Y01070929D01*
X00756758Y01070981D01*
X00756748Y01071054D01*
X00756716Y01071200D01*
X00756675Y01071273D01*
X00756633Y01071325D01*
X00756623Y01071335D01*
X00756602Y01071346D01*
X00756571Y01071367D01*
X00756518Y01071398D01*
X00756456Y01071419D01*
X00756373Y01071440D01*
X00756268Y01071450D01*
X00756154Y01071460D01*
X00756081D01*
X00756008Y01071450D01*
X00755904Y01071440D01*
X00755696Y01071398D01*
X00755592Y01071367D01*
X00755498Y01071315D01*
X00755487D01*
X00755467Y01071294D01*
X00755435Y01071263D01*
X00755404Y01071231D01*
X00755362Y01071169D01*
X00755310Y01071106D01*
X00755269Y01071023D01*
X00755227Y01070919D01*
X00753540Y01071096D01*
Y01071117D01*
X00753561Y01071169D01*
X00753582Y01071252D01*
X00753613Y01071346D01*
X00753644Y01071460D01*
X00753696Y01071575D01*
X00753748Y01071679D01*
X00753811Y01071783D01*
X00753821Y01071794D01*
X00753842Y01071825D01*
X00753884Y01071877D01*
X00753946Y01071939D01*
X00754019Y01072002D01*
X00754102Y01072075D01*
X00754206Y01072148D01*
X00754332Y01072221D01*
X00754342Y01072231D01*
X00754373Y01072241D01*
X00754425Y01072273D01*
X00754509Y01072293D01*
X00754602Y01072335D01*
X00754717Y01072366D01*
X00754852Y01072398D01*
X00754998Y01072429D01*
X00755019D01*
X00755071Y01072439D01*
X00755154Y01072460D01*
X00755269Y01072470D01*
X00755415Y01072491D01*
X00755560Y01072502D01*
X00755737Y01072512D01*
X00756196D01*
X00756373Y01072502D01*
D02*
G37*
G36*
X00906727Y00526811D02*
X00906832D01*
X00906959Y00526787D01*
X00907099Y00526776D01*
X00907262Y00526741D01*
X00907448Y00526706D01*
X00907634Y00526648D01*
X00907832Y00526590D01*
X00908030Y00526508D01*
X00908227Y00526415D01*
X00908437Y00526311D01*
X00908635Y00526171D01*
X00908821Y00526031D01*
X00909007Y00525857D01*
X00909018Y00525845D01*
X00909053Y00525810D01*
X00909100Y00525764D01*
X00909158Y00525682D01*
X00909228Y00525589D01*
X00909309Y00525473D01*
X00909391Y00525345D01*
X00909484Y00525194D01*
X00909565Y00525031D01*
X00909647Y00524845D01*
X00909728Y00524647D01*
X00909798Y00524438D01*
X00909868Y00524217D01*
X00909914Y00523972D01*
X00909938Y00523716D01*
X00909949Y00523449D01*
Y00523437D01*
Y00523379D01*
X00909938Y00523309D01*
Y00523204D01*
X00909926Y00523077D01*
X00909903Y00522925D01*
X00909868Y00522762D01*
X00909833Y00522588D01*
X00909775Y00522402D01*
X00909716Y00522204D01*
X00909635Y00522006D01*
X00909542Y00521797D01*
X00909437Y00521587D01*
X00909309Y00521390D01*
X00909158Y00521192D01*
X00908995Y00521006D01*
X00908984Y00520994D01*
X00908949Y00520959D01*
X00908902Y00520913D01*
X00908821Y00520855D01*
X00908728Y00520785D01*
X00908623Y00520703D01*
X00908483Y00520610D01*
X00908344Y00520529D01*
X00908169Y00520436D01*
X00907995Y00520343D01*
X00907797Y00520261D01*
X00907588Y00520191D01*
X00907367Y00520133D01*
X00907122Y00520087D01*
X00906878Y00520052D01*
X00906610Y00520040D01*
X00906517D01*
X00906459Y00520052D01*
X00906378D01*
X00906285Y00520064D01*
X00906180Y00520075D01*
X00906064Y00520087D01*
X00905796Y00520133D01*
X00905517Y00520203D01*
X00905203Y00520308D01*
X00904900Y00520436D01*
X00904889D01*
X00904865Y00520459D01*
X00904819Y00520482D01*
X00904772Y00520517D01*
X00904703Y00520552D01*
X00904621Y00520610D01*
X00904447Y00520738D01*
X00904249Y00520901D01*
X00904051Y00521110D01*
X00903853Y00521343D01*
X00903679Y00521622D01*
Y00521634D01*
X00903656Y00521657D01*
X00903644Y00521704D01*
X00903609Y00521762D01*
X00903586Y00521843D01*
X00903551Y00521925D01*
X00903504Y00522029D01*
X00903469Y00522158D01*
X00903435Y00522285D01*
X00903388Y00522425D01*
X00903353Y00522588D01*
X00903330Y00522751D01*
X00903283Y00523111D01*
X00903260Y00523519D01*
Y00523530D01*
Y00523554D01*
Y00523600D01*
X00903272Y00523670D01*
Y00523740D01*
X00903283Y00523833D01*
X00903295Y00523937D01*
X00903318Y00524042D01*
X00903365Y00524298D01*
X00903435Y00524577D01*
X00903539Y00524868D01*
X00903679Y00525171D01*
Y00525182D01*
X00903702Y00525205D01*
X00903725Y00525252D01*
X00903760Y00525299D01*
X00903795Y00525368D01*
X00903853Y00525450D01*
X00903981Y00525624D01*
X00904156Y00525822D01*
X00904354Y00526020D01*
X00904598Y00526217D01*
X00904865Y00526392D01*
X00904877D01*
X00904900Y00526415D01*
X00904947Y00526427D01*
X00905005Y00526462D01*
X00905075Y00526497D01*
X00905168Y00526532D01*
X00905261Y00526567D01*
X00905377Y00526613D01*
X00905633Y00526683D01*
X00905924Y00526753D01*
X00906238Y00526799D01*
X00906587Y00526822D01*
X00906657D01*
X00906727Y00526811D01*
D02*
G37*
G36*
X00727495Y01072502D02*
X00727557D01*
X00727630Y01072491D01*
X00727797Y01072460D01*
X00727974Y01072408D01*
X00728171Y01072325D01*
X00728359Y01072210D01*
X00728442Y01072148D01*
X00728526Y01072064D01*
X00728546Y01072044D01*
X00728567Y01072023D01*
X00728588Y01071981D01*
X00728619Y01071939D01*
X00728661Y01071877D01*
X00728692Y01071804D01*
X00728734Y01071731D01*
X00728775Y01071637D01*
X00728807Y01071544D01*
X00728848Y01071429D01*
X00728880Y01071304D01*
X00728901Y01071169D01*
X00728921Y01071023D01*
X00728942Y01070867D01*
Y01070700D01*
Y01067815D01*
X00727172D01*
Y01070429D01*
Y01070440D01*
Y01070481D01*
X00727161Y01070534D01*
Y01070606D01*
X00727120Y01070763D01*
X00727088Y01070836D01*
X00727047Y01070898D01*
X00727036Y01070909D01*
X00727016Y01070940D01*
X00726974Y01070971D01*
X00726922Y01071023D01*
X00726859Y01071065D01*
X00726786Y01071096D01*
X00726703Y01071127D01*
X00726609Y01071138D01*
X00726557D01*
X00726505Y01071127D01*
X00726432Y01071106D01*
X00726349Y01071086D01*
X00726266Y01071044D01*
X00726182Y01070981D01*
X00726109Y01070909D01*
X00726099Y01070898D01*
X00726078Y01070867D01*
X00726047Y01070815D01*
X00726016Y01070731D01*
X00725985Y01070627D01*
X00725953Y01070502D01*
X00725932Y01070357D01*
X00725922Y01070180D01*
Y01067815D01*
X00724152D01*
Y01070336D01*
Y01070346D01*
Y01070388D01*
Y01070440D01*
Y01070502D01*
X00724131Y01070638D01*
X00724120Y01070700D01*
X00724110Y01070752D01*
Y01070763D01*
X00724100Y01070783D01*
X00724068Y01070846D01*
X00724006Y01070940D01*
X00723912Y01071023D01*
X00723902Y01071033D01*
X00723891Y01071044D01*
X00723860Y01071065D01*
X00723819Y01071086D01*
X00723714Y01071117D01*
X00723662Y01071138D01*
X00723537D01*
X00723485Y01071127D01*
X00723412Y01071106D01*
X00723339Y01071086D01*
X00723256Y01071044D01*
X00723173Y01070981D01*
X00723090Y01070909D01*
X00723079Y01070898D01*
X00723058Y01070867D01*
X00723027Y01070804D01*
X00722996Y01070731D01*
X00722964Y01070627D01*
X00722933Y01070492D01*
X00722912Y01070336D01*
X00722902Y01070148D01*
Y01067815D01*
X00721132D01*
Y01072408D01*
X00722777D01*
Y01071731D01*
X00722798Y01071752D01*
X00722840Y01071804D01*
X00722912Y01071877D01*
X00722996Y01071960D01*
X00723110Y01072064D01*
X00723225Y01072158D01*
X00723360Y01072252D01*
X00723496Y01072325D01*
X00723516Y01072335D01*
X00723558Y01072356D01*
X00723641Y01072387D01*
X00723746Y01072419D01*
X00723870Y01072450D01*
X00724016Y01072481D01*
X00724183Y01072502D01*
X00724370Y01072512D01*
X00724464D01*
X00724558Y01072502D01*
X00724683Y01072491D01*
X00724829Y01072460D01*
X00724964Y01072429D01*
X00725110Y01072377D01*
X00725235Y01072314D01*
X00725245Y01072304D01*
X00725287Y01072273D01*
X00725349Y01072231D01*
X00725422Y01072169D01*
X00725506Y01072085D01*
X00725599Y01071981D01*
X00725683Y01071867D01*
X00725766Y01071731D01*
Y01071742D01*
X00725787Y01071752D01*
X00725839Y01071804D01*
X00725912Y01071877D01*
X00726016Y01071981D01*
X00726130Y01072075D01*
X00726255Y01072179D01*
X00726391Y01072273D01*
X00726516Y01072346D01*
X00726536Y01072356D01*
X00726578Y01072377D01*
X00726651Y01072398D01*
X00726755Y01072429D01*
X00726880Y01072460D01*
X00727026Y01072491D01*
X00727182Y01072502D01*
X00727370Y01072512D01*
X00727442D01*
X00727495Y01072502D01*
D02*
G37*
G36*
X00739168Y00756765D02*
X00739400Y00756744D01*
X00739654Y00756702D01*
X00739929Y00756638D01*
X00740204Y00756553D01*
X00740458Y00756427D01*
X00740479Y00756405D01*
X00740585Y00756363D01*
X00740712Y00756278D01*
X00740860Y00756173D01*
X00741030Y00756046D01*
X00741220Y00755876D01*
X00741410Y00755686D01*
X00741580Y00755453D01*
X00741601Y00755432D01*
X00741643Y00755348D01*
X00741707Y00755220D01*
X00741791Y00755051D01*
X00741876Y00754840D01*
X00741961Y00754586D01*
X00742024Y00754311D01*
X00742066Y00754015D01*
Y00753972D01*
Y00753866D01*
Y00753697D01*
Y00753486D01*
X00742045Y00753211D01*
X00742003Y00752914D01*
X00741918Y00752597D01*
X00741812Y00752237D01*
X00741643Y00751729D01*
X00739146D01*
X00739316Y00752216D01*
Y00752237D01*
X00739337Y00752258D01*
X00739358Y00752364D01*
X00739400Y00752555D01*
X00739421Y00752766D01*
Y00753020D01*
X00739400Y00753274D01*
X00739337Y00753549D01*
X00739210Y00753803D01*
X00739189Y00753824D01*
X00739146Y00753909D01*
X00739041Y00754015D01*
X00738893Y00754141D01*
X00738723Y00754247D01*
X00738491Y00754353D01*
X00738215Y00754438D01*
X00737877Y00754459D01*
X00730133D01*
X00729943Y00754417D01*
X00729710Y00754374D01*
X00729435Y00754290D01*
X00729139Y00754184D01*
X00728800Y00754015D01*
X00728483Y00753803D01*
X00728462Y00753782D01*
X00728419Y00753739D01*
X00728335Y00753676D01*
X00728250Y00753591D01*
X00728017Y00753359D01*
X00727763Y00753084D01*
X00727742Y00753062D01*
X00727721Y00753020D01*
X00727657Y00752935D01*
X00727594Y00752830D01*
X00727531Y00752703D01*
X00727446Y00752555D01*
X00727298Y00752216D01*
X00725097Y00745721D01*
Y00745699D01*
X00725076Y00745636D01*
X00725055Y00745551D01*
X00725013Y00745424D01*
X00724970Y00745149D01*
Y00744832D01*
Y00744811D01*
Y00744768D01*
X00724992Y00744705D01*
X00725013Y00744599D01*
X00725097Y00744388D01*
X00725203Y00744134D01*
X00725224Y00744112D01*
X00725288Y00744028D01*
X00725394Y00743943D01*
X00725542Y00743816D01*
X00725711Y00743710D01*
X00725944Y00743605D01*
X00726240Y00743520D01*
X00726557Y00743499D01*
X00734195D01*
X00734322Y00743520D01*
X00734492Y00743541D01*
X00734724Y00743584D01*
X00734999Y00743647D01*
X00735296Y00743774D01*
X00735613Y00743922D01*
X00735930Y00744134D01*
X00735973Y00744155D01*
X00736078Y00744261D01*
X00736227Y00744388D01*
X00736396Y00744578D01*
X00736607Y00744811D01*
X00736798Y00745086D01*
X00736967Y00745382D01*
X00737115Y00745721D01*
X00737284Y00746207D01*
X00739781D01*
X00739612Y00745721D01*
X00739591Y00745699D01*
X00739570Y00745657D01*
X00739527Y00745530D01*
X00739464Y00745361D01*
X00739358Y00745128D01*
X00739210Y00744853D01*
X00739062Y00744557D01*
X00738871Y00744239D01*
X00738639Y00743922D01*
X00738617Y00743880D01*
X00738533Y00743774D01*
X00738385Y00743626D01*
X00738215Y00743435D01*
X00738004Y00743203D01*
X00737750Y00742970D01*
X00737475Y00742716D01*
X00737158Y00742483D01*
X00737115Y00742462D01*
X00737009Y00742377D01*
X00736840Y00742272D01*
X00736629Y00742124D01*
X00736354Y00741975D01*
X00736057Y00741806D01*
X00735719Y00741658D01*
X00735380Y00741510D01*
X00735338Y00741489D01*
X00735232Y00741468D01*
X00735042Y00741404D01*
X00734809Y00741341D01*
X00734534Y00741277D01*
X00734217Y00741235D01*
X00733878Y00741193D01*
X00733518Y00741171D01*
X00725436D01*
X00725267Y00741193D01*
X00725034Y00741214D01*
X00724780Y00741256D01*
X00724505Y00741320D01*
X00724230Y00741404D01*
X00723955Y00741510D01*
X00723934Y00741531D01*
X00723849Y00741573D01*
X00723722Y00741658D01*
X00723553Y00741764D01*
X00723384Y00741891D01*
X00723193Y00742060D01*
X00723024Y00742251D01*
X00722855Y00742483D01*
X00722833Y00742505D01*
X00722791Y00742589D01*
X00722728Y00742737D01*
X00722643Y00742906D01*
X00722558Y00743118D01*
X00722474Y00743351D01*
X00722410Y00743626D01*
X00722368Y00743922D01*
Y00743964D01*
Y00744070D01*
Y00744239D01*
Y00744451D01*
X00722389Y00744726D01*
X00722431Y00745022D01*
X00722495Y00745361D01*
X00722601Y00745699D01*
X00724822Y00752237D01*
Y00752258D01*
X00724844Y00752280D01*
X00724886Y00752406D01*
X00724970Y00752576D01*
X00725076Y00752809D01*
X00725203Y00753084D01*
X00725372Y00753380D01*
X00725563Y00753697D01*
X00725796Y00754015D01*
X00725817Y00754057D01*
X00725901Y00754163D01*
X00726049Y00754311D01*
X00726219Y00754501D01*
X00726430Y00754734D01*
X00726684Y00754967D01*
X00726981Y00755220D01*
X00727277Y00755453D01*
X00727319Y00755474D01*
X00727425Y00755559D01*
X00727573Y00755665D01*
X00727806Y00755813D01*
X00728059Y00755961D01*
X00728356Y00756130D01*
X00728673Y00756278D01*
X00729012Y00756427D01*
X00729033D01*
X00729054Y00756448D01*
X00729181Y00756490D01*
X00729371Y00756532D01*
X00729604Y00756617D01*
X00729900Y00756681D01*
X00730218Y00756723D01*
X00730556Y00756765D01*
X00730916Y00756786D01*
X00738998D01*
X00739168Y00756765D01*
D02*
G37*
G36*
X00720443D02*
X00720675Y00756744D01*
X00720929Y00756702D01*
X00721204Y00756638D01*
X00721479Y00756553D01*
X00721733Y00756427D01*
X00721754Y00756405D01*
X00721860Y00756363D01*
X00721987Y00756278D01*
X00722135Y00756173D01*
X00722305Y00756046D01*
X00722495Y00755876D01*
X00722685Y00755686D01*
X00722855Y00755453D01*
X00722876Y00755432D01*
X00722918Y00755348D01*
X00722982Y00755220D01*
X00723066Y00755051D01*
X00723151Y00754840D01*
X00723235Y00754586D01*
X00723299Y00754311D01*
X00723341Y00754015D01*
Y00753972D01*
Y00753866D01*
Y00753697D01*
Y00753486D01*
X00723320Y00753211D01*
X00723278Y00752914D01*
X00723193Y00752597D01*
X00723087Y00752237D01*
X00722918Y00751729D01*
X00720421D01*
X00720591Y00752216D01*
Y00752237D01*
X00720612Y00752258D01*
X00720633Y00752364D01*
X00720675Y00752555D01*
X00720696Y00752766D01*
Y00753020D01*
X00720675Y00753274D01*
X00720612Y00753549D01*
X00720485Y00753803D01*
X00720464Y00753824D01*
X00720421Y00753909D01*
X00720316Y00754015D01*
X00720167Y00754141D01*
X00719998Y00754247D01*
X00719765Y00754353D01*
X00719491Y00754438D01*
X00719152Y00754459D01*
X00711408D01*
X00711218Y00754417D01*
X00710985Y00754374D01*
X00710710Y00754290D01*
X00710414Y00754184D01*
X00710075Y00754015D01*
X00709758Y00753803D01*
X00709736Y00753782D01*
X00709694Y00753739D01*
X00709610Y00753676D01*
X00709525Y00753591D01*
X00709292Y00753359D01*
X00709038Y00753084D01*
X00709017Y00753062D01*
X00708996Y00753020D01*
X00708932Y00752935D01*
X00708869Y00752830D01*
X00708806Y00752703D01*
X00708721Y00752555D01*
X00708573Y00752216D01*
X00706372Y00745721D01*
Y00745699D01*
X00706351Y00745636D01*
X00706330Y00745551D01*
X00706288Y00745424D01*
X00706245Y00745149D01*
Y00744832D01*
Y00744811D01*
Y00744768D01*
X00706267Y00744705D01*
X00706288Y00744599D01*
X00706372Y00744388D01*
X00706478Y00744134D01*
X00706499Y00744112D01*
X00706563Y00744028D01*
X00706669Y00743943D01*
X00706817Y00743816D01*
X00706986Y00743710D01*
X00707219Y00743605D01*
X00707515Y00743520D01*
X00707832Y00743499D01*
X00715470D01*
X00715597Y00743520D01*
X00715767Y00743541D01*
X00715999Y00743584D01*
X00716274Y00743647D01*
X00716571Y00743774D01*
X00716888Y00743922D01*
X00717205Y00744134D01*
X00717248Y00744155D01*
X00717354Y00744261D01*
X00717502Y00744388D01*
X00717671Y00744578D01*
X00717882Y00744811D01*
X00718073Y00745086D01*
X00718242Y00745382D01*
X00718390Y00745721D01*
X00718559Y00746207D01*
X00721056D01*
X00720887Y00745721D01*
X00720866Y00745699D01*
X00720845Y00745657D01*
X00720802Y00745530D01*
X00720739Y00745361D01*
X00720633Y00745128D01*
X00720485Y00744853D01*
X00720337Y00744557D01*
X00720146Y00744239D01*
X00719914Y00743922D01*
X00719893Y00743880D01*
X00719808Y00743774D01*
X00719660Y00743626D01*
X00719491Y00743435D01*
X00719279Y00743203D01*
X00719025Y00742970D01*
X00718750Y00742716D01*
X00718432Y00742483D01*
X00718390Y00742462D01*
X00718284Y00742377D01*
X00718115Y00742272D01*
X00717904Y00742124D01*
X00717628Y00741975D01*
X00717332Y00741806D01*
X00716994Y00741658D01*
X00716655Y00741510D01*
X00716613Y00741489D01*
X00716507Y00741468D01*
X00716317Y00741404D01*
X00716084Y00741341D01*
X00715809Y00741277D01*
X00715492Y00741235D01*
X00715153Y00741193D01*
X00714793Y00741171D01*
X00706711D01*
X00706542Y00741193D01*
X00706309Y00741214D01*
X00706055Y00741256D01*
X00705780Y00741320D01*
X00705505Y00741404D01*
X00705230Y00741510D01*
X00705209Y00741531D01*
X00705124Y00741573D01*
X00704997Y00741658D01*
X00704828Y00741764D01*
X00704659Y00741891D01*
X00704468Y00742060D01*
X00704299Y00742251D01*
X00704130Y00742483D01*
X00704108Y00742505D01*
X00704066Y00742589D01*
X00704003Y00742737D01*
X00703918Y00742906D01*
X00703833Y00743118D01*
X00703749Y00743351D01*
X00703685Y00743626D01*
X00703643Y00743922D01*
Y00743964D01*
Y00744070D01*
Y00744239D01*
Y00744451D01*
X00703664Y00744726D01*
X00703706Y00745022D01*
X00703770Y00745361D01*
X00703876Y00745699D01*
X00706097Y00752237D01*
Y00752258D01*
X00706118Y00752280D01*
X00706161Y00752406D01*
X00706245Y00752576D01*
X00706351Y00752809D01*
X00706478Y00753084D01*
X00706647Y00753380D01*
X00706838Y00753697D01*
X00707071Y00754015D01*
X00707092Y00754057D01*
X00707176Y00754163D01*
X00707325Y00754311D01*
X00707494Y00754501D01*
X00707705Y00754734D01*
X00707959Y00754967D01*
X00708255Y00755220D01*
X00708552Y00755453D01*
X00708594Y00755474D01*
X00708700Y00755559D01*
X00708848Y00755665D01*
X00709081Y00755813D01*
X00709334Y00755961D01*
X00709631Y00756130D01*
X00709948Y00756278D01*
X00710287Y00756427D01*
X00710308D01*
X00710329Y00756448D01*
X00710456Y00756490D01*
X00710646Y00756532D01*
X00710879Y00756617D01*
X00711175Y00756681D01*
X00711493Y00756723D01*
X00711831Y00756765D01*
X00712191Y00756786D01*
X00720273D01*
X00720443Y00756765D01*
D02*
G37*
G36*
X00664578Y00738238D02*
X00664692D01*
X00664819Y00738212D01*
X00664971Y00738200D01*
X00665137Y00738162D01*
X00665327Y00738123D01*
X00665518Y00738060D01*
X00665721Y00737997D01*
X00665937Y00737908D01*
X00666140Y00737806D01*
X00666343Y00737692D01*
X00666546Y00737539D01*
X00666737Y00737387D01*
X00666915Y00737196D01*
X00666927Y00737184D01*
X00666953Y00737146D01*
X00667003Y00737082D01*
X00667054Y00737006D01*
X00667131Y00736892D01*
X00667207Y00736752D01*
X00667283Y00736600D01*
X00667372Y00736409D01*
X00667448Y00736193D01*
X00667537Y00735965D01*
X00667600Y00735698D01*
X00667677Y00735418D01*
X00667727Y00735101D01*
X00667766Y00734758D01*
X00667791Y00734402D01*
Y00734009D01*
X00663105D01*
Y00733996D01*
Y00733971D01*
Y00733932D01*
X00663117Y00733869D01*
X00663130Y00733717D01*
X00663168Y00733526D01*
X00663219Y00733323D01*
X00663295Y00733107D01*
X00663409Y00732891D01*
X00663549Y00732701D01*
X00663575Y00732675D01*
X00663625Y00732624D01*
X00663714Y00732561D01*
X00663841Y00732472D01*
X00664006Y00732383D01*
X00664184Y00732320D01*
X00664400Y00732269D01*
X00664629Y00732243D01*
X00664705D01*
X00664781Y00732256D01*
X00664883Y00732269D01*
X00664997Y00732294D01*
X00665111Y00732345D01*
X00665238Y00732396D01*
X00665352Y00732472D01*
X00665365Y00732485D01*
X00665403Y00732523D01*
X00665454Y00732574D01*
X00665530Y00732663D01*
X00665607Y00732777D01*
X00665683Y00732904D01*
X00665759Y00733069D01*
X00665822Y00733259D01*
X00667689Y00732942D01*
Y00732929D01*
X00667677Y00732891D01*
X00667651Y00732840D01*
X00667626Y00732777D01*
X00667575Y00732688D01*
X00667537Y00732586D01*
X00667410Y00732358D01*
X00667245Y00732104D01*
X00667054Y00731850D01*
X00666813Y00731596D01*
X00666546Y00731380D01*
X00666534D01*
X00666508Y00731354D01*
X00666470Y00731329D01*
X00666407Y00731291D01*
X00666330Y00731253D01*
X00666242Y00731215D01*
X00666140Y00731164D01*
X00666013Y00731113D01*
X00665873Y00731062D01*
X00665733Y00731012D01*
X00665403Y00730935D01*
X00665022Y00730872D01*
X00664603Y00730846D01*
X00664527D01*
X00664425Y00730859D01*
X00664298Y00730872D01*
X00664146Y00730884D01*
X00663981Y00730910D01*
X00663778Y00730948D01*
X00663575Y00730999D01*
X00663359Y00731062D01*
X00663130Y00731139D01*
X00662901Y00731240D01*
X00662685Y00731354D01*
X00662457Y00731494D01*
X00662254Y00731659D01*
X00662063Y00731837D01*
X00661885Y00732053D01*
X00661873Y00732066D01*
X00661860Y00732104D01*
X00661822Y00732154D01*
X00661771Y00732231D01*
X00661720Y00732320D01*
X00661669Y00732434D01*
X00661606Y00732574D01*
X00661543Y00732726D01*
X00661466Y00732891D01*
X00661403Y00733069D01*
X00661352Y00733272D01*
X00661301Y00733488D01*
X00661250Y00733717D01*
X00661212Y00733958D01*
X00661200Y00734225D01*
X00661187Y00734491D01*
Y00734517D01*
Y00734567D01*
X00661200Y00734656D01*
Y00734783D01*
X00661212Y00734923D01*
X00661238Y00735101D01*
X00661263Y00735291D01*
X00661301Y00735495D01*
X00661352Y00735711D01*
X00661415Y00735939D01*
X00661479Y00736168D01*
X00661568Y00736396D01*
X00661682Y00736625D01*
X00661796Y00736841D01*
X00661936Y00737057D01*
X00662101Y00737247D01*
X00662114Y00737260D01*
X00662139Y00737285D01*
X00662190Y00737336D01*
X00662266Y00737400D01*
X00662355Y00737476D01*
X00662470Y00737565D01*
X00662597Y00737654D01*
X00662736Y00737755D01*
X00662901Y00737844D01*
X00663066Y00737933D01*
X00663257Y00738022D01*
X00663473Y00738098D01*
X00663689Y00738162D01*
X00663917Y00738212D01*
X00664171Y00738238D01*
X00664425Y00738251D01*
X00664502D01*
X00664578Y00738238D01*
D02*
G37*
G36*
X00646150D02*
X00646264D01*
X00646404Y00738212D01*
X00646556Y00738200D01*
X00646734Y00738162D01*
X00646937Y00738123D01*
X00647141Y00738060D01*
X00647357Y00737997D01*
X00647572Y00737908D01*
X00647788Y00737806D01*
X00648017Y00737692D01*
X00648233Y00737539D01*
X00648436Y00737387D01*
X00648639Y00737196D01*
X00648652Y00737184D01*
X00648690Y00737146D01*
X00648741Y00737095D01*
X00648804Y00737006D01*
X00648881Y00736904D01*
X00648969Y00736777D01*
X00649058Y00736638D01*
X00649160Y00736472D01*
X00649249Y00736295D01*
X00649338Y00736092D01*
X00649427Y00735876D01*
X00649503Y00735647D01*
X00649579Y00735406D01*
X00649630Y00735139D01*
X00649655Y00734860D01*
X00649668Y00734567D01*
Y00734555D01*
Y00734491D01*
X00649655Y00734415D01*
Y00734301D01*
X00649643Y00734161D01*
X00649617Y00733996D01*
X00649579Y00733818D01*
X00649541Y00733628D01*
X00649477Y00733425D01*
X00649414Y00733209D01*
X00649325Y00732993D01*
X00649223Y00732764D01*
X00649109Y00732535D01*
X00648969Y00732320D01*
X00648804Y00732104D01*
X00648627Y00731900D01*
X00648614Y00731888D01*
X00648576Y00731850D01*
X00648525Y00731799D01*
X00648436Y00731735D01*
X00648335Y00731659D01*
X00648220Y00731570D01*
X00648068Y00731469D01*
X00647915Y00731380D01*
X00647725Y00731278D01*
X00647534Y00731177D01*
X00647318Y00731088D01*
X00647090Y00731012D01*
X00646849Y00730948D01*
X00646582Y00730897D01*
X00646315Y00730859D01*
X00646023Y00730846D01*
X00645921D01*
X00645858Y00730859D01*
X00645769D01*
X00645667Y00730872D01*
X00645553Y00730884D01*
X00645426Y00730897D01*
X00645134Y00730948D01*
X00644829Y00731024D01*
X00644486Y00731139D01*
X00644156Y00731278D01*
X00644144D01*
X00644118Y00731304D01*
X00644067Y00731329D01*
X00644016Y00731367D01*
X00643940Y00731405D01*
X00643851Y00731469D01*
X00643661Y00731608D01*
X00643445Y00731786D01*
X00643229Y00732015D01*
X00643013Y00732269D01*
X00642823Y00732574D01*
Y00732586D01*
X00642797Y00732612D01*
X00642785Y00732663D01*
X00642747Y00732726D01*
X00642721Y00732815D01*
X00642683Y00732904D01*
X00642632Y00733018D01*
X00642594Y00733158D01*
X00642556Y00733298D01*
X00642505Y00733450D01*
X00642467Y00733628D01*
X00642442Y00733805D01*
X00642391Y00734199D01*
X00642365Y00734644D01*
Y00734656D01*
Y00734682D01*
Y00734733D01*
X00642378Y00734809D01*
Y00734885D01*
X00642391Y00734987D01*
X00642404Y00735101D01*
X00642429Y00735215D01*
X00642480Y00735495D01*
X00642556Y00735799D01*
X00642670Y00736117D01*
X00642823Y00736447D01*
Y00736460D01*
X00642848Y00736485D01*
X00642874Y00736536D01*
X00642912Y00736587D01*
X00642950Y00736663D01*
X00643013Y00736752D01*
X00643153Y00736942D01*
X00643343Y00737158D01*
X00643559Y00737374D01*
X00643826Y00737590D01*
X00644118Y00737781D01*
X00644131D01*
X00644156Y00737806D01*
X00644207Y00737819D01*
X00644270Y00737857D01*
X00644347Y00737895D01*
X00644448Y00737933D01*
X00644550Y00737971D01*
X00644677Y00738022D01*
X00644956Y00738098D01*
X00645274Y00738174D01*
X00645617Y00738225D01*
X00645998Y00738251D01*
X00646074D01*
X00646150Y00738238D01*
D02*
G37*
G36*
X00756962Y00756765D02*
X00757173Y00756744D01*
X00757427Y00756702D01*
X00757681Y00756638D01*
X00757956Y00756553D01*
X00758210Y00756448D01*
X00758231Y00756427D01*
X00758316Y00756384D01*
X00758443Y00756300D01*
X00758591Y00756215D01*
X00758760Y00756067D01*
X00758951Y00755919D01*
X00759120Y00755728D01*
X00759268Y00755517D01*
X00759289Y00755496D01*
X00759331Y00755411D01*
X00759395Y00755305D01*
X00759458Y00755136D01*
X00759543Y00754946D01*
X00759606Y00754713D01*
X00759670Y00754438D01*
X00759712Y00754163D01*
Y00754120D01*
Y00754036D01*
X00759733Y00753866D01*
X00759712Y00753655D01*
X00759691Y00753401D01*
X00759670Y00753126D01*
X00759585Y00752809D01*
X00759501Y00752491D01*
X00759480Y00752449D01*
X00759437Y00752322D01*
X00759352Y00752131D01*
X00759247Y00751899D01*
X00759099Y00751624D01*
X00758929Y00751327D01*
X00758718Y00751010D01*
X00758485Y00750693D01*
X00758464Y00750650D01*
X00758379Y00750566D01*
X00758231Y00750418D01*
X00758062Y00750227D01*
X00757829Y00749995D01*
X00757575Y00749762D01*
X00757300Y00749529D01*
X00756983Y00749296D01*
X00757004Y00749275D01*
X00757046Y00749190D01*
X00757131Y00749042D01*
X00757215Y00748873D01*
X00757300Y00748661D01*
X00757385Y00748408D01*
X00757469Y00748132D01*
X00757512Y00747815D01*
Y00747773D01*
X00757533Y00747667D01*
Y00747498D01*
Y00747265D01*
X00757512Y00746990D01*
X00757469Y00746694D01*
X00757385Y00746355D01*
X00757279Y00745996D01*
X00757173Y00745699D01*
X00757152Y00745657D01*
X00757110Y00745530D01*
X00757046Y00745361D01*
X00756941Y00745128D01*
X00756792Y00744853D01*
X00756644Y00744557D01*
X00756454Y00744239D01*
X00756221Y00743922D01*
X00756200Y00743880D01*
X00756115Y00743795D01*
X00755967Y00743626D01*
X00755798Y00743435D01*
X00755586Y00743224D01*
X00755332Y00742970D01*
X00755057Y00742737D01*
X00754761Y00742483D01*
X00754719Y00742462D01*
X00754613Y00742377D01*
X00754444Y00742272D01*
X00754232Y00742124D01*
X00753957Y00741975D01*
X00753661Y00741806D01*
X00753322Y00741658D01*
X00752984Y00741510D01*
X00752942Y00741489D01*
X00752815Y00741468D01*
X00752645Y00741404D01*
X00752392Y00741341D01*
X00752116Y00741277D01*
X00751799Y00741235D01*
X00751460Y00741193D01*
X00751101Y00741171D01*
X00739802D01*
X00740606Y00743499D01*
X00751799D01*
X00751905Y00743520D01*
X00752095Y00743541D01*
X00752328Y00743584D01*
X00752582Y00743647D01*
X00752899Y00743774D01*
X00753217Y00743922D01*
X00753534Y00744134D01*
X00753576Y00744155D01*
X00753682Y00744239D01*
X00753830Y00744388D01*
X00753999Y00744557D01*
X00754190Y00744790D01*
X00754401Y00745043D01*
X00754571Y00745361D01*
X00754719Y00745699D01*
X00754803Y00746017D01*
Y00746038D01*
X00754825Y00746059D01*
X00754846Y00746165D01*
X00754888Y00746334D01*
X00754909Y00746546D01*
Y00746800D01*
X00754888Y00747054D01*
X00754825Y00747328D01*
X00754698Y00747582D01*
X00754677Y00747604D01*
X00754613Y00747688D01*
X00754507Y00747773D01*
X00754359Y00747900D01*
X00754169Y00748006D01*
X00753957Y00748111D01*
X00753682Y00748196D01*
X00753365Y00748238D01*
X00742214D01*
X00742997Y00750566D01*
X00754528Y00750545D01*
X00754677D01*
X00754825Y00750566D01*
X00755036Y00750608D01*
X00755269Y00750693D01*
X00755544Y00750777D01*
X00755819Y00750925D01*
X00756115Y00751116D01*
X00756158Y00751137D01*
X00756242Y00751222D01*
X00756369Y00751349D01*
X00756538Y00751497D01*
X00756708Y00751708D01*
X00756877Y00751941D01*
X00757046Y00752216D01*
X00757173Y00752512D01*
X00757194Y00752555D01*
X00757215Y00752639D01*
X00757237Y00752787D01*
X00757258Y00752978D01*
X00757279Y00753211D01*
X00757237Y00753422D01*
X00757173Y00753655D01*
X00757067Y00753888D01*
X00757046Y00753909D01*
X00757004Y00753972D01*
X00756898Y00754078D01*
X00756771Y00754184D01*
X00756602Y00754268D01*
X00756390Y00754374D01*
X00756158Y00754438D01*
X00755861Y00754459D01*
X00744330D01*
X00745113Y00756786D01*
X00756792D01*
X00756962Y00756765D01*
D02*
G37*
G36*
X00917835Y00536364D02*
X00917962Y00536353D01*
X00918099Y00536332D01*
X00918257Y00536290D01*
X00918427Y00536247D01*
X00918585Y00536184D01*
X00918606Y00536174D01*
X00918659Y00536152D01*
X00918733Y00536110D01*
X00918828Y00536057D01*
X00918934Y00535983D01*
X00919039Y00535899D01*
X00919145Y00535814D01*
X00919230Y00535709D01*
X00919240Y00535698D01*
X00919261Y00535656D01*
X00919304Y00535603D01*
X00919356Y00535518D01*
X00919399Y00535423D01*
X00919452Y00535307D01*
X00919494Y00535191D01*
X00919536Y00535053D01*
Y00535032D01*
X00919547Y00534990D01*
X00919568Y00534906D01*
X00919589Y00534789D01*
X00919599Y00534631D01*
X00919621Y00534462D01*
X00919631Y00534250D01*
Y00534007D01*
Y00530351D01*
X00918078D01*
Y00533352D01*
Y00533363D01*
Y00533395D01*
Y00533447D01*
Y00533511D01*
Y00533585D01*
Y00533669D01*
X00918067Y00533859D01*
X00918057Y00534071D01*
X00918036Y00534272D01*
X00918025Y00534367D01*
X00918004Y00534451D01*
X00917993Y00534515D01*
X00917972Y00534578D01*
Y00534589D01*
X00917951Y00534620D01*
X00917930Y00534673D01*
X00917888Y00534737D01*
X00917845Y00534810D01*
X00917793Y00534884D01*
X00917719Y00534958D01*
X00917645Y00535022D01*
X00917634Y00535032D01*
X00917602Y00535043D01*
X00917560Y00535075D01*
X00917497Y00535106D01*
X00917412Y00535127D01*
X00917317Y00535159D01*
X00917211Y00535170D01*
X00917095Y00535180D01*
X00917032D01*
X00916947Y00535170D01*
X00916852Y00535149D01*
X00916736Y00535127D01*
X00916620Y00535085D01*
X00916493Y00535032D01*
X00916366Y00534958D01*
X00916356Y00534948D01*
X00916313Y00534916D01*
X00916260Y00534874D01*
X00916186Y00534800D01*
X00916113Y00534715D01*
X00916039Y00534620D01*
X00915975Y00534493D01*
X00915922Y00534367D01*
Y00534346D01*
X00915901Y00534293D01*
X00915891Y00534250D01*
Y00534198D01*
X00915880Y00534134D01*
X00915869Y00534060D01*
X00915859Y00533976D01*
X00915848Y00533870D01*
X00915838Y00533764D01*
X00915827Y00533638D01*
X00915817Y00533500D01*
Y00533352D01*
X00915806Y00533194D01*
Y00533014D01*
Y00530351D01*
X00914253D01*
Y00536237D01*
X00915700D01*
Y00535370D01*
X00915711Y00535381D01*
X00915732Y00535413D01*
X00915774Y00535466D01*
X00915838Y00535529D01*
X00915912Y00535603D01*
X00916007Y00535687D01*
X00916113Y00535783D01*
X00916229Y00535878D01*
X00916366Y00535962D01*
X00916514Y00536057D01*
X00916673Y00536142D01*
X00916842Y00536216D01*
X00917032Y00536279D01*
X00917222Y00536332D01*
X00917433Y00536364D01*
X00917645Y00536374D01*
X00917729D01*
X00917835Y00536364D01*
D02*
G37*
G36*
X00903190Y00530351D02*
X00901668D01*
X00901658Y00536744D01*
X00900051Y00530351D01*
X00898467D01*
X00896871Y00536744D01*
Y00530351D01*
X00895350D01*
Y00538477D01*
X00897801D01*
X00899270Y00532930D01*
X00900728Y00538477D01*
X00903190D01*
Y00530351D01*
D02*
G37*
G36*
X00771794Y00756765D02*
X00771984Y00756744D01*
X00772174D01*
X00772386Y00756702D01*
X00772851Y00756638D01*
X00773359Y00756511D01*
X00773867Y00756363D01*
X00774375Y00756152D01*
X00774396D01*
X00774438Y00756130D01*
X00774502Y00756088D01*
X00774586Y00756046D01*
X00774840Y00755898D01*
X00775136Y00755707D01*
X00775454Y00755474D01*
X00775814Y00755178D01*
X00776131Y00754861D01*
X00776448Y00754480D01*
Y00754459D01*
X00776491Y00754438D01*
X00776512Y00754374D01*
X00776575Y00754290D01*
X00776702Y00754078D01*
X00776850Y00753782D01*
X00777020Y00753422D01*
X00777168Y00752999D01*
X00777295Y00752533D01*
X00777379Y00752004D01*
Y00751983D01*
Y00751941D01*
X00777401Y00751856D01*
Y00751751D01*
Y00751624D01*
Y00751476D01*
Y00751285D01*
Y00751095D01*
X00777358Y00750650D01*
X00777295Y00750121D01*
X00777168Y00749571D01*
X00776998Y00748979D01*
Y00748958D01*
X00776977Y00748915D01*
X00776935Y00748810D01*
X00776893Y00748704D01*
X00776829Y00748556D01*
X00776766Y00748386D01*
X00776681Y00748196D01*
X00776575Y00747984D01*
X00776342Y00747519D01*
X00776046Y00747011D01*
X00775708Y00746461D01*
X00775306Y00745932D01*
X00775285Y00745911D01*
X00775264Y00745869D01*
X00775200Y00745805D01*
X00775115Y00745699D01*
X00775010Y00745572D01*
X00774883Y00745424D01*
X00774565Y00745086D01*
X00774184Y00744705D01*
X00773740Y00744282D01*
X00773232Y00743859D01*
X00772703Y00743457D01*
X00772682Y00743435D01*
X00772640Y00743414D01*
X00772555Y00743351D01*
X00772449Y00743287D01*
X00772301Y00743203D01*
X00772153Y00743097D01*
X00771963Y00742970D01*
X00771751Y00742843D01*
X00771265Y00742589D01*
X00770714Y00742314D01*
X00770122Y00742039D01*
X00769487Y00741785D01*
X00769466D01*
X00769403Y00741764D01*
X00769318Y00741722D01*
X00769191Y00741700D01*
X00769043Y00741637D01*
X00768852Y00741595D01*
X00768641Y00741531D01*
X00768408Y00741489D01*
X00767900Y00741362D01*
X00767329Y00741277D01*
X00766694Y00741193D01*
X00766060Y00741171D01*
X00760622D01*
X00760432Y00741193D01*
X00760220D01*
X00759987Y00741214D01*
X00759733Y00741256D01*
X00759480Y00741320D01*
X00759247Y00741383D01*
X00759226Y00741404D01*
X00759162Y00741425D01*
X00759056Y00741489D01*
X00758929Y00741552D01*
X00758654Y00741764D01*
X00758527Y00741912D01*
X00758421Y00742060D01*
Y00742081D01*
X00758379Y00742145D01*
X00758337Y00742229D01*
X00758295Y00742356D01*
X00758252Y00742505D01*
X00758231Y00742695D01*
X00758210Y00742906D01*
Y00743118D01*
Y00743139D01*
X00758231Y00743224D01*
Y00743372D01*
X00758273Y00743541D01*
X00758316Y00743753D01*
X00758358Y00743986D01*
X00758443Y00744261D01*
X00758527Y00744557D01*
X00761532Y00753380D01*
X00761553Y00753422D01*
X00761574Y00753507D01*
X00761638Y00753676D01*
X00761722Y00753866D01*
X00761807Y00754078D01*
X00761934Y00754311D01*
X00762188Y00754797D01*
X00762209Y00754818D01*
X00762251Y00754903D01*
X00762336Y00755030D01*
X00762442Y00755178D01*
X00762590Y00755326D01*
X00762738Y00755517D01*
X00763119Y00755855D01*
X00763140Y00755876D01*
X00763224Y00755919D01*
X00763330Y00756003D01*
X00763478Y00756109D01*
X00763669Y00756215D01*
X00763880Y00756321D01*
X00764134Y00756427D01*
X00764388Y00756532D01*
X00764430Y00756553D01*
X00764515Y00756575D01*
X00764663Y00756617D01*
X00764875Y00756659D01*
X00765129Y00756702D01*
X00765425Y00756744D01*
X00765742Y00756786D01*
X00771667D01*
X00771794Y00756765D01*
D02*
G37*
G36*
X00912678Y00537040D02*
X00911125D01*
Y00538477D01*
X00912678D01*
Y00537040D01*
D02*
G37*
G36*
X00741179Y01067815D02*
X00739408D01*
Y01074158D01*
X00741179D01*
Y01067815D01*
D02*
G37*
G36*
X00814569Y01049428D02*
X00814286D01*
Y01049757D01*
X00814281Y01049749D01*
X00814265Y01049724D01*
X00814244Y01049691D01*
X00814211Y01049649D01*
X00814173Y01049603D01*
X00814127Y01049557D01*
X00814077Y01049511D01*
X00814023Y01049470D01*
X00814015Y01049466D01*
X00813998Y01049453D01*
X00813969Y01049441D01*
X00813927Y01049424D01*
X00813877Y01049403D01*
X00813823Y01049391D01*
X00813756Y01049378D01*
X00813690Y01049374D01*
X00813652D01*
X00813611Y01049382D01*
X00813557Y01049391D01*
X00813498Y01049403D01*
X00813431Y01049424D01*
X00813369Y01049453D01*
X00813307Y01049491D01*
X00813298Y01049495D01*
X00813282Y01049511D01*
X00813257Y01049541D01*
X00813223Y01049574D01*
X00813190Y01049620D01*
X00813152Y01049670D01*
X00813123Y01049728D01*
X00813098Y01049795D01*
Y01049799D01*
Y01049803D01*
X00813090Y01049828D01*
X00813082Y01049870D01*
X00813073Y01049928D01*
X00813065Y01049999D01*
X00813057Y01050082D01*
X00813053Y01050182D01*
X00813048Y01050295D01*
Y01051719D01*
X00813365D01*
Y01050445D01*
Y01050440D01*
Y01050428D01*
Y01050411D01*
Y01050386D01*
Y01050357D01*
Y01050328D01*
X00813369Y01050253D01*
X00813373Y01050174D01*
X00813377Y01050095D01*
X00813386Y01050024D01*
X00813394Y01049995D01*
X00813398Y01049970D01*
Y01049966D01*
X00813407Y01049949D01*
X00813415Y01049928D01*
X00813427Y01049899D01*
X00813448Y01049870D01*
X00813469Y01049836D01*
X00813498Y01049807D01*
X00813531Y01049778D01*
X00813536Y01049774D01*
X00813548Y01049766D01*
X00813569Y01049757D01*
X00813594Y01049745D01*
X00813627Y01049728D01*
X00813665Y01049720D01*
X00813702Y01049711D01*
X00813748Y01049707D01*
X00813769D01*
X00813786Y01049711D01*
X00813827Y01049716D01*
X00813881Y01049732D01*
X00813940Y01049753D01*
X00814002Y01049786D01*
X00814065Y01049832D01*
X00814094Y01049861D01*
X00814123Y01049895D01*
X00814127Y01049903D01*
X00814136Y01049911D01*
X00814144Y01049928D01*
X00814152Y01049945D01*
X00814165Y01049970D01*
X00814177Y01049999D01*
X00814190Y01050028D01*
X00814198Y01050070D01*
X00814211Y01050111D01*
X00814223Y01050157D01*
X00814231Y01050211D01*
X00814240Y01050274D01*
X00814248Y01050336D01*
X00814252Y01050407D01*
Y01050486D01*
Y01051719D01*
X00814569D01*
Y01049428D01*
D02*
G37*
G36*
X00815377D02*
X00815060D01*
Y01052590D01*
X00815377D01*
Y01049428D01*
D02*
G37*
G36*
X00810045Y01051765D02*
X00810070D01*
X00810099Y01051761D01*
X00810166Y01051748D01*
X00810245Y01051723D01*
X00810324Y01051690D01*
X00810407Y01051648D01*
X00810449Y01051619D01*
X00810487Y01051586D01*
X00810491D01*
X00810495Y01051578D01*
X00810507Y01051565D01*
X00810520Y01051553D01*
X00810536Y01051532D01*
X00810553Y01051511D01*
X00810574Y01051482D01*
X00810595Y01051453D01*
X00810616Y01051415D01*
X00810636Y01051374D01*
X00810657Y01051332D01*
X00810678Y01051282D01*
X00810699Y01051228D01*
X00810716Y01051173D01*
X00810732Y01051111D01*
X00810745Y01051044D01*
X00810436Y01050990D01*
Y01050994D01*
Y01050999D01*
X00810432Y01051011D01*
X00810428Y01051028D01*
X00810416Y01051069D01*
X00810399Y01051119D01*
X00810378Y01051173D01*
X00810349Y01051232D01*
X00810316Y01051286D01*
X00810278Y01051332D01*
X00810274Y01051336D01*
X00810257Y01051348D01*
X00810232Y01051369D01*
X00810203Y01051390D01*
X00810162Y01051411D01*
X00810116Y01051432D01*
X00810066Y01051444D01*
X00810007Y01051449D01*
X00809987D01*
X00809970Y01051444D01*
X00809924Y01051436D01*
X00809870Y01051423D01*
X00809812Y01051398D01*
X00809745Y01051361D01*
X00809712Y01051336D01*
X00809682Y01051311D01*
X00809649Y01051278D01*
X00809620Y01051240D01*
Y01051236D01*
X00809612Y01051232D01*
X00809607Y01051219D01*
X00809595Y01051203D01*
X00809583Y01051178D01*
X00809570Y01051149D01*
X00809557Y01051119D01*
X00809545Y01051078D01*
X00809528Y01051036D01*
X00809516Y01050986D01*
X00809503Y01050932D01*
X00809491Y01050874D01*
X00809478Y01050807D01*
X00809474Y01050736D01*
X00809466Y01050661D01*
Y01050578D01*
Y01050574D01*
Y01050557D01*
Y01050532D01*
X00809470Y01050503D01*
Y01050465D01*
X00809474Y01050420D01*
X00809478Y01050370D01*
X00809483Y01050320D01*
X00809503Y01050207D01*
X00809528Y01050095D01*
X00809562Y01049990D01*
X00809587Y01049945D01*
X00809612Y01049903D01*
Y01049899D01*
X00809620Y01049895D01*
X00809637Y01049870D01*
X00809670Y01049836D01*
X00809712Y01049799D01*
X00809766Y01049761D01*
X00809833Y01049728D01*
X00809903Y01049703D01*
X00809945Y01049699D01*
X00809987Y01049695D01*
X00809995D01*
X00810016Y01049699D01*
X00810053Y01049703D01*
X00810095Y01049711D01*
X00810141Y01049728D01*
X00810195Y01049753D01*
X00810245Y01049786D01*
X00810295Y01049832D01*
X00810299Y01049840D01*
X00810316Y01049857D01*
X00810337Y01049891D01*
X00810366Y01049936D01*
X00810391Y01049999D01*
X00810420Y01050074D01*
X00810445Y01050161D01*
X00810462Y01050265D01*
X00810778Y01050216D01*
Y01050211D01*
X00810774Y01050199D01*
X00810770Y01050178D01*
X00810766Y01050149D01*
X00810757Y01050111D01*
X00810749Y01050074D01*
X00810736Y01050028D01*
X00810724Y01049982D01*
X00810686Y01049882D01*
X00810641Y01049778D01*
X00810578Y01049674D01*
X00810545Y01049628D01*
X00810503Y01049586D01*
X00810499Y01049582D01*
X00810495Y01049578D01*
X00810482Y01049566D01*
X00810466Y01049553D01*
X00810445Y01049537D01*
X00810420Y01049520D01*
X00810357Y01049482D01*
X00810282Y01049441D01*
X00810191Y01049407D01*
X00810091Y01049382D01*
X00810037Y01049378D01*
X00809982Y01049374D01*
X00809966D01*
X00809949Y01049378D01*
X00809920D01*
X00809891Y01049382D01*
X00809853Y01049391D01*
X00809812Y01049399D01*
X00809770Y01049411D01*
X00809724Y01049428D01*
X00809674Y01049449D01*
X00809624Y01049470D01*
X00809574Y01049499D01*
X00809524Y01049537D01*
X00809474Y01049574D01*
X00809424Y01049620D01*
X00809378Y01049674D01*
X00809374Y01049678D01*
X00809370Y01049686D01*
X00809358Y01049707D01*
X00809341Y01049732D01*
X00809324Y01049761D01*
X00809303Y01049803D01*
X00809283Y01049849D01*
X00809262Y01049899D01*
X00809237Y01049961D01*
X00809216Y01050028D01*
X00809195Y01050103D01*
X00809178Y01050182D01*
X00809162Y01050270D01*
X00809149Y01050365D01*
X00809145Y01050465D01*
X00809141Y01050574D01*
Y01050582D01*
Y01050599D01*
Y01050632D01*
X00809145Y01050674D01*
X00809149Y01050720D01*
X00809154Y01050778D01*
X00809162Y01050840D01*
X00809170Y01050911D01*
X00809199Y01051053D01*
X00809220Y01051128D01*
X00809241Y01051203D01*
X00809270Y01051273D01*
X00809299Y01051344D01*
X00809337Y01051411D01*
X00809378Y01051469D01*
X00809383Y01051473D01*
X00809391Y01051482D01*
X00809403Y01051498D01*
X00809424Y01051515D01*
X00809445Y01051540D01*
X00809474Y01051565D01*
X00809508Y01051590D01*
X00809545Y01051619D01*
X00809587Y01051648D01*
X00809637Y01051673D01*
X00809741Y01051723D01*
X00809799Y01051740D01*
X00809862Y01051757D01*
X00809928Y01051765D01*
X00809995Y01051769D01*
X00810024D01*
X00810045Y01051765D01*
D02*
G37*
G36*
X00800272Y01049428D02*
X00799943D01*
Y01052069D01*
X00799189Y01049428D01*
X00798881D01*
X00798131Y01052115D01*
Y01049428D01*
X00797802D01*
Y01052590D01*
X00798315D01*
X00798931Y01050349D01*
X00799052Y01049882D01*
X00799056Y01049891D01*
X00799060Y01049915D01*
X00799073Y01049953D01*
X00799085Y01050011D01*
X00799106Y01050082D01*
X00799131Y01050170D01*
X00799156Y01050270D01*
X00799189Y01050386D01*
X00799810Y01052590D01*
X00800272D01*
Y01049428D01*
D02*
G37*
G36*
X00811361Y01051453D02*
X00811365Y01051461D01*
X00811382Y01051478D01*
X00811403Y01051507D01*
X00811432Y01051540D01*
X00811469Y01051582D01*
X00811511Y01051619D01*
X00811561Y01051657D01*
X00811611Y01051690D01*
X00811619Y01051694D01*
X00811636Y01051703D01*
X00811665Y01051715D01*
X00811703Y01051732D01*
X00811749Y01051744D01*
X00811803Y01051757D01*
X00811861Y01051765D01*
X00811924Y01051769D01*
X00811953D01*
X00811974Y01051765D01*
X00811999D01*
X00812028Y01051761D01*
X00812094Y01051744D01*
X00812173Y01051723D01*
X00812253Y01051690D01*
X00812328Y01051640D01*
X00812365Y01051611D01*
X00812399Y01051578D01*
X00812403Y01051573D01*
X00812407Y01051569D01*
X00812415Y01051557D01*
X00812428Y01051540D01*
X00812440Y01051519D01*
X00812453Y01051490D01*
X00812469Y01051457D01*
X00812486Y01051419D01*
X00812503Y01051374D01*
X00812519Y01051323D01*
X00812532Y01051265D01*
X00812544Y01051203D01*
X00812557Y01051132D01*
X00812565Y01051053D01*
X00812573Y01050969D01*
Y01050878D01*
Y01049428D01*
X00812257D01*
Y01050878D01*
Y01050882D01*
Y01050890D01*
Y01050907D01*
Y01050928D01*
X00812253Y01050949D01*
Y01050978D01*
X00812244Y01051040D01*
X00812232Y01051111D01*
X00812211Y01051182D01*
X00812186Y01051248D01*
X00812149Y01051303D01*
X00812144Y01051307D01*
X00812128Y01051323D01*
X00812107Y01051344D01*
X00812074Y01051369D01*
X00812032Y01051394D01*
X00811982Y01051415D01*
X00811924Y01051432D01*
X00811857Y01051436D01*
X00811849D01*
X00811824Y01051432D01*
X00811782Y01051428D01*
X00811736Y01051415D01*
X00811678Y01051394D01*
X00811619Y01051365D01*
X00811561Y01051323D01*
X00811503Y01051269D01*
X00811499Y01051261D01*
X00811490Y01051253D01*
X00811482Y01051236D01*
X00811469Y01051219D01*
X00811457Y01051194D01*
X00811445Y01051165D01*
X00811432Y01051132D01*
X00811420Y01051094D01*
X00811407Y01051053D01*
X00811395Y01051003D01*
X00811382Y01050949D01*
X00811374Y01050890D01*
X00811365Y01050824D01*
X00811361Y01050753D01*
Y01050678D01*
Y01049428D01*
X00811045D01*
Y01052590D01*
X00811361D01*
Y01051453D01*
D02*
G37*
G36*
X00816260Y01051719D02*
X00816581D01*
Y01051419D01*
X00816260D01*
Y01050078D01*
Y01050070D01*
Y01050049D01*
Y01050015D01*
X00816264Y01049978D01*
Y01049936D01*
X00816273Y01049899D01*
X00816277Y01049861D01*
X00816285Y01049836D01*
X00816289Y01049832D01*
X00816293Y01049824D01*
X00816306Y01049811D01*
X00816318Y01049799D01*
X00816339Y01049786D01*
X00816368Y01049774D01*
X00816402Y01049766D01*
X00816439Y01049761D01*
X00816477D01*
X00816522Y01049766D01*
X00816581Y01049774D01*
X00816622Y01049432D01*
X00816618D01*
X00816602Y01049428D01*
X00816577Y01049424D01*
X00816543Y01049416D01*
X00816506Y01049411D01*
X00816464Y01049403D01*
X00816385Y01049399D01*
X00816356D01*
X00816327Y01049403D01*
X00816289Y01049407D01*
X00816247Y01049416D01*
X00816202Y01049424D01*
X00816160Y01049441D01*
X00816118Y01049462D01*
X00816114Y01049466D01*
X00816102Y01049474D01*
X00816085Y01049491D01*
X00816064Y01049507D01*
X00816039Y01049537D01*
X00816018Y01049566D01*
X00815998Y01049599D01*
X00815981Y01049641D01*
Y01049645D01*
X00815977Y01049666D01*
X00815968Y01049695D01*
X00815964Y01049741D01*
X00815960Y01049770D01*
X00815956Y01049803D01*
X00815952Y01049840D01*
X00815948Y01049882D01*
Y01049928D01*
X00815943Y01049982D01*
Y01050036D01*
Y01050099D01*
Y01051419D01*
X00815710D01*
Y01051719D01*
X00815943D01*
Y01052286D01*
X00816260Y01052519D01*
Y01051719D01*
D02*
G37*
G36*
X00817714Y01051765D02*
X00817743Y01051761D01*
X00817780Y01051753D01*
X00817818Y01051744D01*
X00817864Y01051732D01*
X00817910Y01051715D01*
X00817960Y01051694D01*
X00818009Y01051669D01*
X00818059Y01051640D01*
X00818110Y01051603D01*
X00818159Y01051561D01*
X00818210Y01051515D01*
X00818255Y01051461D01*
X00818260Y01051457D01*
X00818268Y01051449D01*
X00818276Y01051428D01*
X00818293Y01051403D01*
X00818314Y01051374D01*
X00818335Y01051336D01*
X00818355Y01051290D01*
X00818380Y01051236D01*
X00818401Y01051178D01*
X00818422Y01051111D01*
X00818443Y01051036D01*
X00818464Y01050957D01*
X00818480Y01050874D01*
X00818489Y01050778D01*
X00818497Y01050678D01*
X00818501Y01050574D01*
Y01050474D01*
X00817101D01*
Y01050470D01*
Y01050457D01*
X00817106Y01050436D01*
Y01050411D01*
X00817110Y01050378D01*
X00817114Y01050340D01*
X00817131Y01050257D01*
X00817151Y01050161D01*
X00817181Y01050066D01*
X00817222Y01049974D01*
X00817247Y01049928D01*
X00817276Y01049891D01*
X00817285Y01049882D01*
X00817306Y01049861D01*
X00817339Y01049828D01*
X00817385Y01049795D01*
X00817443Y01049757D01*
X00817510Y01049724D01*
X00817585Y01049703D01*
X00817622Y01049699D01*
X00817664Y01049695D01*
X00817681D01*
X00817697Y01049699D01*
X00817722Y01049703D01*
X00817751Y01049707D01*
X00817785Y01049720D01*
X00817822Y01049732D01*
X00817860Y01049753D01*
X00817901Y01049778D01*
X00817943Y01049811D01*
X00817984Y01049849D01*
X00818026Y01049895D01*
X00818064Y01049949D01*
X00818101Y01050011D01*
X00818135Y01050082D01*
X00818164Y01050165D01*
X00818493Y01050116D01*
Y01050111D01*
X00818489Y01050099D01*
X00818484Y01050082D01*
X00818476Y01050053D01*
X00818468Y01050024D01*
X00818455Y01049986D01*
X00818426Y01049907D01*
X00818384Y01049816D01*
X00818330Y01049724D01*
X00818268Y01049636D01*
X00818230Y01049595D01*
X00818193Y01049557D01*
X00818189D01*
X00818185Y01049549D01*
X00818172Y01049541D01*
X00818155Y01049528D01*
X00818135Y01049516D01*
X00818110Y01049499D01*
X00818047Y01049466D01*
X00817972Y01049432D01*
X00817880Y01049403D01*
X00817776Y01049382D01*
X00817722Y01049378D01*
X00817664Y01049374D01*
X00817647D01*
X00817626Y01049378D01*
X00817597D01*
X00817564Y01049382D01*
X00817526Y01049391D01*
X00817480Y01049399D01*
X00817435Y01049411D01*
X00817385Y01049428D01*
X00817330Y01049449D01*
X00817276Y01049470D01*
X00817222Y01049499D01*
X00817168Y01049537D01*
X00817118Y01049574D01*
X00817064Y01049620D01*
X00817018Y01049674D01*
X00817014Y01049678D01*
X00817006Y01049686D01*
X00816997Y01049707D01*
X00816981Y01049732D01*
X00816960Y01049761D01*
X00816939Y01049799D01*
X00816918Y01049845D01*
X00816897Y01049899D01*
X00816872Y01049957D01*
X00816852Y01050020D01*
X00816831Y01050095D01*
X00816810Y01050170D01*
X00816793Y01050257D01*
X00816785Y01050349D01*
X00816777Y01050445D01*
X00816772Y01050549D01*
Y01050557D01*
Y01050574D01*
Y01050607D01*
X00816777Y01050649D01*
X00816781Y01050695D01*
X00816785Y01050753D01*
X00816793Y01050815D01*
X00816802Y01050886D01*
X00816831Y01051032D01*
X00816852Y01051107D01*
X00816877Y01051182D01*
X00816906Y01051257D01*
X00816939Y01051328D01*
X00816976Y01051394D01*
X00817018Y01051457D01*
X00817022Y01051461D01*
X00817031Y01051469D01*
X00817043Y01051486D01*
X00817064Y01051507D01*
X00817089Y01051528D01*
X00817118Y01051557D01*
X00817151Y01051586D01*
X00817193Y01051615D01*
X00817235Y01051644D01*
X00817285Y01051669D01*
X00817389Y01051719D01*
X00817451Y01051740D01*
X00817514Y01051757D01*
X00817580Y01051765D01*
X00817651Y01051769D01*
X00817685D01*
X00817714Y01051765D01*
D02*
G37*
G36*
X00804321Y01050790D02*
X00805067Y01051719D01*
X00805488D01*
X00804767Y01050865D01*
X00805559Y01049428D01*
X00805167D01*
X00804542Y01050599D01*
X00804321Y01050336D01*
Y01049428D01*
X00804005D01*
Y01052590D01*
X00804321D01*
Y01050790D01*
D02*
G37*
G36*
X00801651Y01051765D02*
X00801680D01*
X00801747Y01051757D01*
X00801822Y01051740D01*
X00801897Y01051723D01*
X00801972Y01051694D01*
X00802039Y01051657D01*
X00802047Y01051653D01*
X00802068Y01051636D01*
X00802097Y01051611D01*
X00802130Y01051582D01*
X00802168Y01051540D01*
X00802201Y01051494D01*
X00802234Y01051440D01*
X00802255Y01051382D01*
X00802259Y01051374D01*
X00802264Y01051353D01*
X00802272Y01051315D01*
X00802280Y01051261D01*
X00802289Y01051194D01*
X00802293Y01051111D01*
X00802301Y01051015D01*
Y01050903D01*
Y01050386D01*
Y01050382D01*
Y01050361D01*
Y01050336D01*
Y01050299D01*
Y01050257D01*
Y01050207D01*
Y01050153D01*
X00802305Y01050095D01*
Y01049978D01*
X00802309Y01049865D01*
Y01049816D01*
X00802314Y01049770D01*
Y01049728D01*
X00802318Y01049699D01*
Y01049695D01*
X00802322Y01049674D01*
X00802326Y01049649D01*
X00802334Y01049616D01*
X00802347Y01049574D01*
X00802364Y01049528D01*
X00802401Y01049428D01*
X00802068D01*
Y01049432D01*
X00802059Y01049449D01*
X00802051Y01049474D01*
X00802043Y01049507D01*
X00802030Y01049549D01*
X00802022Y01049595D01*
X00802014Y01049649D01*
X00802005Y01049707D01*
X00801997Y01049699D01*
X00801976Y01049678D01*
X00801943Y01049649D01*
X00801901Y01049616D01*
X00801851Y01049574D01*
X00801793Y01049532D01*
X00801734Y01049491D01*
X00801668Y01049457D01*
X00801660Y01049453D01*
X00801639Y01049445D01*
X00801605Y01049432D01*
X00801560Y01049416D01*
X00801505Y01049399D01*
X00801447Y01049387D01*
X00801380Y01049378D01*
X00801314Y01049374D01*
X00801285D01*
X00801264Y01049378D01*
X00801239D01*
X00801210Y01049382D01*
X00801143Y01049395D01*
X00801068Y01049416D01*
X00800989Y01049449D01*
X00800914Y01049491D01*
X00800843Y01049549D01*
Y01049553D01*
X00800835Y01049557D01*
X00800818Y01049582D01*
X00800789Y01049620D01*
X00800760Y01049678D01*
X00800726Y01049745D01*
X00800697Y01049828D01*
X00800681Y01049920D01*
X00800672Y01050028D01*
Y01050032D01*
Y01050036D01*
Y01050061D01*
X00800676Y01050099D01*
X00800681Y01050145D01*
X00800693Y01050199D01*
X00800706Y01050257D01*
X00800726Y01050320D01*
X00800751Y01050378D01*
X00800756Y01050386D01*
X00800768Y01050403D01*
X00800785Y01050432D01*
X00800810Y01050465D01*
X00800843Y01050503D01*
X00800881Y01050545D01*
X00800926Y01050586D01*
X00800976Y01050620D01*
X00800985Y01050624D01*
X00801001Y01050632D01*
X00801035Y01050649D01*
X00801085Y01050669D01*
X00801143Y01050690D01*
X00801218Y01050711D01*
X00801305Y01050732D01*
X00801405Y01050749D01*
X00801410D01*
X00801422Y01050753D01*
X00801443D01*
X00801468Y01050757D01*
X00801501Y01050765D01*
X00801539Y01050770D01*
X00801622Y01050786D01*
X00801718Y01050807D01*
X00801809Y01050828D01*
X00801901Y01050857D01*
X00801939Y01050870D01*
X00801976Y01050886D01*
X00801980Y01050982D01*
Y01050986D01*
Y01050990D01*
Y01051003D01*
Y01051019D01*
X00801976Y01051061D01*
X00801968Y01051111D01*
X00801960Y01051165D01*
X00801943Y01051219D01*
X00801922Y01051269D01*
X00801893Y01051311D01*
X00801889Y01051315D01*
X00801872Y01051332D01*
X00801843Y01051353D01*
X00801805Y01051382D01*
X00801751Y01051407D01*
X00801693Y01051428D01*
X00801618Y01051444D01*
X00801530Y01051449D01*
X00801493D01*
X00801455Y01051444D01*
X00801405Y01051436D01*
X00801351Y01051423D01*
X00801297Y01051407D01*
X00801247Y01051386D01*
X00801201Y01051353D01*
X00801197Y01051348D01*
X00801185Y01051336D01*
X00801164Y01051311D01*
X00801143Y01051278D01*
X00801114Y01051228D01*
X00801089Y01051169D01*
X00801064Y01051099D01*
X00801043Y01051011D01*
X00800726Y01051065D01*
Y01051069D01*
X00800731Y01051082D01*
X00800735Y01051099D01*
X00800739Y01051124D01*
X00800747Y01051157D01*
X00800760Y01051190D01*
X00800785Y01051269D01*
X00800822Y01051357D01*
X00800868Y01051444D01*
X00800926Y01051528D01*
X00800956Y01051565D01*
X00800993Y01051598D01*
X00800997D01*
X00801001Y01051607D01*
X00801014Y01051615D01*
X00801031Y01051623D01*
X00801051Y01051640D01*
X00801076Y01051653D01*
X00801110Y01051669D01*
X00801143Y01051686D01*
X00801180Y01051698D01*
X00801226Y01051715D01*
X00801276Y01051732D01*
X00801326Y01051744D01*
X00801385Y01051753D01*
X00801447Y01051761D01*
X00801510Y01051769D01*
X00801630D01*
X00801651Y01051765D01*
D02*
G37*
G36*
X00708520Y01072596D02*
X00706521D01*
Y01067815D01*
X00704563D01*
Y01072596D01*
X00702563D01*
Y01074158D01*
X00708520D01*
Y01072596D01*
D02*
G37*
G36*
X00766099Y01072502D02*
X00766193D01*
X00766297Y01072491D01*
X00766412Y01072470D01*
X00766662Y01072439D01*
X00766922Y01072387D01*
X00767172Y01072314D01*
X00767401Y01072210D01*
X00767411D01*
X00767422Y01072200D01*
X00767453Y01072179D01*
X00767495Y01072158D01*
X00767599Y01072085D01*
X00767724Y01071992D01*
X00767870Y01071867D01*
X00768016Y01071710D01*
X00768151Y01071533D01*
X00768276Y01071335D01*
Y01071325D01*
X00768286Y01071315D01*
X00768307Y01071273D01*
X00768328Y01071231D01*
X00768349Y01071179D01*
X00768370Y01071106D01*
X00768401Y01071033D01*
X00768432Y01070940D01*
X00768453Y01070846D01*
X00768484Y01070731D01*
X00768536Y01070481D01*
X00768567Y01070190D01*
X00768578Y01069867D01*
Y01069669D01*
X00765048D01*
Y01069648D01*
X00765058Y01069596D01*
X00765068Y01069523D01*
X00765089Y01069430D01*
X00765120Y01069325D01*
X00765162Y01069221D01*
X00765204Y01069117D01*
X00765266Y01069034D01*
X00765277Y01069024D01*
X00765318Y01068992D01*
X00765370Y01068940D01*
X00765443Y01068888D01*
X00765547Y01068836D01*
X00765662Y01068784D01*
X00765787Y01068753D01*
X00765933Y01068742D01*
X00765974D01*
X00766026Y01068753D01*
X00766089Y01068763D01*
X00766162Y01068774D01*
X00766245Y01068794D01*
X00766339Y01068826D01*
X00766422Y01068867D01*
X00766433D01*
X00766443Y01068888D01*
X00766474Y01068909D01*
X00766516Y01068940D01*
X00766568Y01068971D01*
X00766620Y01069024D01*
X00766672Y01069086D01*
X00766735Y01069159D01*
X00768474Y01069003D01*
Y01068992D01*
X00768453Y01068971D01*
X00768432Y01068940D01*
X00768401Y01068888D01*
X00768317Y01068763D01*
X00768203Y01068617D01*
X00768057Y01068451D01*
X00767890Y01068284D01*
X00767713Y01068128D01*
X00767505Y01068003D01*
X00767495D01*
X00767484Y01067992D01*
X00767443Y01067972D01*
X00767401Y01067961D01*
X00767339Y01067941D01*
X00767276Y01067909D01*
X00767193Y01067888D01*
X00767099Y01067857D01*
X00766984Y01067826D01*
X00766870Y01067805D01*
X00766735Y01067784D01*
X00766589Y01067753D01*
X00766433Y01067743D01*
X00766266Y01067722D01*
X00766089Y01067711D01*
X00765756D01*
X00765672Y01067722D01*
X00765589D01*
X00765381Y01067743D01*
X00765152Y01067774D01*
X00764912Y01067815D01*
X00764673Y01067878D01*
X00764464Y01067961D01*
X00764454D01*
X00764444Y01067972D01*
X00764381Y01068013D01*
X00764277Y01068076D01*
X00764162Y01068159D01*
X00764027Y01068274D01*
X00763881Y01068409D01*
X00763735Y01068576D01*
X00763600Y01068774D01*
Y01068784D01*
X00763589Y01068794D01*
X00763569Y01068826D01*
X00763548Y01068878D01*
X00763517Y01068930D01*
X00763496Y01068992D01*
X00763433Y01069148D01*
X00763360Y01069346D01*
X00763308Y01069565D01*
X00763267Y01069825D01*
X00763256Y01070096D01*
Y01070107D01*
Y01070148D01*
Y01070200D01*
X00763267Y01070273D01*
X00763277Y01070367D01*
X00763298Y01070471D01*
X00763319Y01070596D01*
X00763340Y01070721D01*
X00763423Y01071002D01*
X00763475Y01071148D01*
X00763548Y01071294D01*
X00763621Y01071440D01*
X00763715Y01071575D01*
X00763819Y01071721D01*
X00763944Y01071846D01*
X00763954Y01071856D01*
X00763975Y01071877D01*
X00764016Y01071908D01*
X00764069Y01071950D01*
X00764141Y01072002D01*
X00764225Y01072054D01*
X00764329Y01072116D01*
X00764444Y01072179D01*
X00764568Y01072241D01*
X00764714Y01072304D01*
X00764871Y01072356D01*
X00765037Y01072408D01*
X00765225Y01072450D01*
X00765422Y01072481D01*
X00765631Y01072502D01*
X00765849Y01072512D01*
X00766016D01*
X00766099Y01072502D01*
D02*
G37*
G36*
X00738315Y01072804D02*
X00735024D01*
Y01071794D01*
X00738075D01*
Y01070502D01*
X00735024D01*
Y01069253D01*
X00738409D01*
Y01067815D01*
X00733056D01*
Y01074158D01*
X00738315D01*
Y01072804D01*
D02*
G37*
G36*
X00717955Y01072502D02*
X00718164Y01072491D01*
X00718372Y01072470D01*
X00718591Y01072450D01*
X00718778Y01072419D01*
X00718799D01*
X00718861Y01072398D01*
X00718945Y01072377D01*
X00719059Y01072335D01*
X00719184Y01072283D01*
X00719320Y01072221D01*
X00719455Y01072137D01*
X00719580Y01072044D01*
X00719590Y01072033D01*
X00719622Y01072012D01*
X00719663Y01071960D01*
X00719715Y01071908D01*
X00719767Y01071825D01*
X00719830Y01071731D01*
X00719882Y01071617D01*
X00719934Y01071492D01*
X00719945Y01071481D01*
X00719955Y01071429D01*
X00719976Y01071367D01*
X00720007Y01071273D01*
X00720028Y01071169D01*
X00720049Y01071054D01*
X00720059Y01070940D01*
X00720069Y01070815D01*
Y01068784D01*
Y01068774D01*
Y01068732D01*
Y01068669D01*
Y01068596D01*
X00720080Y01068430D01*
X00720090Y01068347D01*
X00720101Y01068274D01*
Y01068263D01*
X00720111Y01068242D01*
X00720122Y01068201D01*
X00720142Y01068149D01*
X00720163Y01068086D01*
X00720194Y01068003D01*
X00720236Y01067920D01*
X00720288Y01067815D01*
X00718632D01*
Y01067826D01*
X00718622Y01067847D01*
X00718580Y01067920D01*
X00718539Y01068003D01*
X00718507Y01068076D01*
Y01068097D01*
X00718486Y01068149D01*
X00718466Y01068242D01*
X00718455Y01068305D01*
X00718445Y01068378D01*
X00718434Y01068367D01*
X00718382Y01068326D01*
X00718320Y01068263D01*
X00718226Y01068190D01*
X00718122Y01068118D01*
X00718008Y01068034D01*
X00717883Y01067961D01*
X00717757Y01067899D01*
X00717737Y01067888D01*
X00717674Y01067868D01*
X00717580Y01067836D01*
X00717445Y01067805D01*
X00717289Y01067774D01*
X00717101Y01067743D01*
X00716893Y01067722D01*
X00716664Y01067711D01*
X00716581D01*
X00716529Y01067722D01*
X00716456D01*
X00716383Y01067732D01*
X00716195Y01067763D01*
X00715998Y01067805D01*
X00715789Y01067868D01*
X00715591Y01067961D01*
X00715414Y01068086D01*
X00715394Y01068107D01*
X00715352Y01068159D01*
X00715279Y01068242D01*
X00715206Y01068347D01*
X00715123Y01068482D01*
X00715050Y01068649D01*
X00715008Y01068826D01*
X00714987Y01069024D01*
Y01069034D01*
Y01069044D01*
Y01069107D01*
X00715008Y01069211D01*
X00715029Y01069325D01*
X00715060Y01069461D01*
X00715112Y01069607D01*
X00715185Y01069753D01*
X00715289Y01069888D01*
X00715300Y01069898D01*
X00715352Y01069940D01*
X00715435Y01070002D01*
X00715550Y01070075D01*
X00715706Y01070159D01*
X00715800Y01070200D01*
X00715904Y01070242D01*
X00716018Y01070284D01*
X00716143Y01070315D01*
X00716279Y01070357D01*
X00716424Y01070388D01*
X00716435D01*
X00716466Y01070398D01*
X00716518Y01070409D01*
X00716581Y01070419D01*
X00716664Y01070440D01*
X00716758Y01070450D01*
X00716966Y01070492D01*
X00717174Y01070544D01*
X00717393Y01070586D01*
X00717487Y01070606D01*
X00717580Y01070627D01*
X00717653Y01070648D01*
X00717716Y01070658D01*
X00717726D01*
X00717768Y01070669D01*
X00717830Y01070690D01*
X00717914Y01070721D01*
X00718008Y01070752D01*
X00718112Y01070783D01*
X00718351Y01070877D01*
Y01070888D01*
Y01070929D01*
X00718341Y01070981D01*
X00718330Y01071054D01*
X00718299Y01071200D01*
X00718257Y01071273D01*
X00718216Y01071325D01*
X00718205Y01071335D01*
X00718185Y01071346D01*
X00718153Y01071367D01*
X00718101Y01071398D01*
X00718039Y01071419D01*
X00717955Y01071440D01*
X00717851Y01071450D01*
X00717737Y01071460D01*
X00717664D01*
X00717591Y01071450D01*
X00717487Y01071440D01*
X00717279Y01071398D01*
X00717174Y01071367D01*
X00717081Y01071315D01*
X00717070D01*
X00717049Y01071294D01*
X00717018Y01071263D01*
X00716987Y01071231D01*
X00716945Y01071169D01*
X00716893Y01071106D01*
X00716852Y01071023D01*
X00716810Y01070919D01*
X00715123Y01071096D01*
Y01071117D01*
X00715144Y01071169D01*
X00715164Y01071252D01*
X00715196Y01071346D01*
X00715227Y01071460D01*
X00715279Y01071575D01*
X00715331Y01071679D01*
X00715394Y01071783D01*
X00715404Y01071794D01*
X00715425Y01071825D01*
X00715466Y01071877D01*
X00715529Y01071939D01*
X00715602Y01072002D01*
X00715685Y01072075D01*
X00715789Y01072148D01*
X00715914Y01072221D01*
X00715925Y01072231D01*
X00715956Y01072241D01*
X00716008Y01072273D01*
X00716091Y01072293D01*
X00716185Y01072335D01*
X00716300Y01072366D01*
X00716435Y01072398D01*
X00716581Y01072429D01*
X00716602D01*
X00716654Y01072439D01*
X00716737Y01072460D01*
X00716852Y01072470D01*
X00716997Y01072491D01*
X00717143Y01072502D01*
X00717320Y01072512D01*
X00717778D01*
X00717955Y01072502D01*
D02*
G37*
G36*
X00761673Y01072408D02*
X00762642D01*
Y01071117D01*
X00761673D01*
Y01069492D01*
Y01069482D01*
Y01069451D01*
Y01069398D01*
X00761684Y01069336D01*
X00761694Y01069211D01*
X00761705Y01069148D01*
X00761725Y01069107D01*
Y01069096D01*
X00761746Y01069086D01*
X00761798Y01069034D01*
X00761840Y01069003D01*
X00761892Y01068982D01*
X00761954Y01068971D01*
X00762027Y01068961D01*
X00762069D01*
X00762111Y01068971D01*
X00762173D01*
X00762246Y01068982D01*
X00762340Y01069003D01*
X00762444Y01069034D01*
X00762569Y01069065D01*
X00762704Y01067847D01*
X00762694D01*
X00762673Y01067836D01*
X00762642D01*
X00762590Y01067826D01*
X00762538Y01067815D01*
X00762465Y01067805D01*
X00762309Y01067784D01*
X00762121Y01067753D01*
X00761913Y01067732D01*
X00761694Y01067722D01*
X00761476Y01067711D01*
X00761371D01*
X00761257Y01067722D01*
X00761111Y01067732D01*
X00760955Y01067753D01*
X00760788Y01067784D01*
X00760642Y01067826D01*
X00760507Y01067878D01*
X00760497Y01067888D01*
X00760455Y01067909D01*
X00760403Y01067951D01*
X00760330Y01068003D01*
X00760257Y01068076D01*
X00760184Y01068159D01*
X00760111Y01068263D01*
X00760049Y01068388D01*
X00760038Y01068409D01*
X00760028Y01068451D01*
X00760007Y01068534D01*
X00759976Y01068659D01*
X00759945Y01068815D01*
X00759924Y01069003D01*
X00759913Y01069232D01*
X00759903Y01069503D01*
Y01071117D01*
X00759257D01*
Y01072408D01*
X00759903D01*
Y01073252D01*
X00761673Y01074158D01*
Y01072408D01*
D02*
G37*
G36*
X00807837Y01052640D02*
X00807866D01*
X00807933Y01052632D01*
X00808012Y01052615D01*
X00808095Y01052594D01*
X00808183Y01052565D01*
X00808266Y01052527D01*
X00808270D01*
X00808275Y01052523D01*
X00808304Y01052506D01*
X00808341Y01052482D01*
X00808391Y01052444D01*
X00808441Y01052398D01*
X00808500Y01052340D01*
X00808554Y01052273D01*
X00808599Y01052198D01*
Y01052194D01*
X00808604Y01052190D01*
X00808612Y01052177D01*
X00808620Y01052161D01*
X00808629Y01052140D01*
X00808637Y01052115D01*
X00808662Y01052057D01*
X00808687Y01051982D01*
X00808708Y01051898D01*
X00808724Y01051803D01*
X00808733Y01051698D01*
X00808408Y01051669D01*
Y01051673D01*
Y01051682D01*
X00808404Y01051698D01*
X00808400Y01051719D01*
X00808395Y01051744D01*
X00808391Y01051773D01*
X00808374Y01051840D01*
X00808350Y01051915D01*
X00808316Y01051990D01*
X00808275Y01052061D01*
X00808220Y01052123D01*
X00808212Y01052132D01*
X00808191Y01052148D01*
X00808154Y01052169D01*
X00808104Y01052198D01*
X00808041Y01052227D01*
X00807966Y01052248D01*
X00807875Y01052265D01*
X00807775Y01052273D01*
X00807725D01*
X00807700Y01052269D01*
X00807675Y01052265D01*
X00807608Y01052257D01*
X00807533Y01052240D01*
X00807462Y01052219D01*
X00807387Y01052186D01*
X00807325Y01052140D01*
X00807316Y01052136D01*
X00807300Y01052115D01*
X00807279Y01052090D01*
X00807250Y01052048D01*
X00807221Y01052002D01*
X00807200Y01051944D01*
X00807183Y01051878D01*
X00807175Y01051803D01*
Y01051794D01*
Y01051773D01*
X00807179Y01051736D01*
X00807187Y01051694D01*
X00807200Y01051648D01*
X00807221Y01051598D01*
X00807246Y01051553D01*
X00807283Y01051507D01*
X00807287Y01051503D01*
X00807308Y01051490D01*
X00807341Y01051469D01*
X00807362Y01051457D01*
X00807387Y01051440D01*
X00807421Y01051428D01*
X00807458Y01051411D01*
X00807500Y01051390D01*
X00807546Y01051374D01*
X00807596Y01051353D01*
X00807658Y01051336D01*
X00807720Y01051315D01*
X00807791Y01051294D01*
X00807795D01*
X00807808Y01051290D01*
X00807829Y01051286D01*
X00807854Y01051278D01*
X00807883Y01051269D01*
X00807921Y01051257D01*
X00808004Y01051232D01*
X00808091Y01051203D01*
X00808179Y01051173D01*
X00808262Y01051140D01*
X00808295Y01051128D01*
X00808329Y01051111D01*
X00808333D01*
X00808341Y01051107D01*
X00808350Y01051099D01*
X00808366Y01051090D01*
X00808412Y01051061D01*
X00808462Y01051028D01*
X00808520Y01050978D01*
X00808579Y01050924D01*
X00808637Y01050861D01*
X00808687Y01050790D01*
Y01050786D01*
X00808691Y01050782D01*
X00808699Y01050770D01*
X00808708Y01050757D01*
X00808729Y01050715D01*
X00808749Y01050657D01*
X00808774Y01050590D01*
X00808791Y01050511D01*
X00808808Y01050424D01*
X00808812Y01050324D01*
Y01050320D01*
Y01050311D01*
Y01050299D01*
Y01050278D01*
X00808808Y01050253D01*
X00808804Y01050224D01*
X00808795Y01050157D01*
X00808779Y01050082D01*
X00808758Y01049999D01*
X00808724Y01049911D01*
X00808683Y01049824D01*
Y01049820D01*
X00808679Y01049816D01*
X00808670Y01049803D01*
X00808658Y01049786D01*
X00808629Y01049749D01*
X00808591Y01049699D01*
X00808541Y01049645D01*
X00808483Y01049591D01*
X00808412Y01049537D01*
X00808333Y01049486D01*
X00808329D01*
X00808325Y01049482D01*
X00808312Y01049478D01*
X00808295Y01049470D01*
X00808275Y01049462D01*
X00808250Y01049449D01*
X00808187Y01049432D01*
X00808108Y01049411D01*
X00808020Y01049391D01*
X00807921Y01049378D01*
X00807808Y01049374D01*
X00807762D01*
X00807729Y01049378D01*
X00807687Y01049382D01*
X00807641Y01049391D01*
X00807587Y01049399D01*
X00807529Y01049411D01*
X00807471Y01049424D01*
X00807408Y01049445D01*
X00807346Y01049466D01*
X00807279Y01049495D01*
X00807216Y01049528D01*
X00807154Y01049566D01*
X00807092Y01049611D01*
X00807037Y01049661D01*
X00807033Y01049666D01*
X00807025Y01049674D01*
X00807012Y01049691D01*
X00806992Y01049716D01*
X00806971Y01049745D01*
X00806946Y01049782D01*
X00806921Y01049824D01*
X00806896Y01049870D01*
X00806867Y01049924D01*
X00806842Y01049982D01*
X00806817Y01050049D01*
X00806796Y01050120D01*
X00806775Y01050195D01*
X00806762Y01050274D01*
X00806750Y01050361D01*
X00806746Y01050453D01*
X00807071Y01050482D01*
Y01050478D01*
Y01050470D01*
X00807075Y01050457D01*
Y01050440D01*
X00807083Y01050390D01*
X00807096Y01050332D01*
X00807112Y01050265D01*
X00807129Y01050199D01*
X00807158Y01050132D01*
X00807187Y01050074D01*
X00807191Y01050066D01*
X00807204Y01050049D01*
X00807225Y01050024D01*
X00807254Y01049990D01*
X00807291Y01049953D01*
X00807333Y01049915D01*
X00807387Y01049874D01*
X00807446Y01049840D01*
X00807454Y01049836D01*
X00807475Y01049828D01*
X00807512Y01049811D01*
X00807558Y01049799D01*
X00807616Y01049782D01*
X00807683Y01049766D01*
X00807754Y01049757D01*
X00807833Y01049753D01*
X00807862D01*
X00807883Y01049757D01*
X00807908D01*
X00807937Y01049761D01*
X00808008Y01049770D01*
X00808083Y01049791D01*
X00808162Y01049816D01*
X00808237Y01049849D01*
X00808308Y01049899D01*
X00808316Y01049907D01*
X00808333Y01049928D01*
X00808362Y01049957D01*
X00808395Y01050003D01*
X00808425Y01050061D01*
X00808454Y01050124D01*
X00808470Y01050203D01*
X00808479Y01050286D01*
Y01050295D01*
Y01050311D01*
X00808475Y01050336D01*
X00808470Y01050370D01*
X00808462Y01050407D01*
X00808454Y01050449D01*
X00808437Y01050490D01*
X00808416Y01050532D01*
X00808412Y01050536D01*
X00808404Y01050549D01*
X00808391Y01050570D01*
X00808370Y01050594D01*
X00808341Y01050620D01*
X00808312Y01050649D01*
X00808275Y01050678D01*
X00808229Y01050703D01*
X00808224Y01050707D01*
X00808204Y01050715D01*
X00808187Y01050724D01*
X00808166Y01050732D01*
X00808145Y01050740D01*
X00808116Y01050753D01*
X00808083Y01050765D01*
X00808041Y01050778D01*
X00808000Y01050795D01*
X00807950Y01050811D01*
X00807896Y01050828D01*
X00807833Y01050849D01*
X00807766Y01050870D01*
X00807691Y01050890D01*
X00807687D01*
X00807675Y01050894D01*
X00807658Y01050903D01*
X00807633Y01050911D01*
X00807600Y01050919D01*
X00807566Y01050932D01*
X00807487Y01050957D01*
X00807404Y01050990D01*
X00807316Y01051028D01*
X00807237Y01051065D01*
X00807204Y01051086D01*
X00807171Y01051107D01*
X00807162Y01051111D01*
X00807146Y01051128D01*
X00807116Y01051153D01*
X00807083Y01051186D01*
X00807046Y01051224D01*
X00807004Y01051273D01*
X00806966Y01051328D01*
X00806929Y01051386D01*
X00806925Y01051394D01*
X00806917Y01051415D01*
X00806904Y01051453D01*
X00806887Y01051498D01*
X00806871Y01051557D01*
X00806858Y01051619D01*
X00806850Y01051690D01*
X00806846Y01051769D01*
Y01051773D01*
Y01051786D01*
Y01051807D01*
X00806850Y01051832D01*
X00806854Y01051865D01*
X00806858Y01051907D01*
X00806867Y01051948D01*
X00806875Y01051994D01*
X00806904Y01052094D01*
X00806925Y01052144D01*
X00806950Y01052198D01*
X00806979Y01052252D01*
X00807012Y01052302D01*
X00807050Y01052352D01*
X00807092Y01052398D01*
X00807096Y01052402D01*
X00807104Y01052411D01*
X00807116Y01052419D01*
X00807137Y01052436D01*
X00807162Y01052457D01*
X00807191Y01052477D01*
X00807229Y01052498D01*
X00807271Y01052523D01*
X00807316Y01052544D01*
X00807366Y01052565D01*
X00807421Y01052586D01*
X00807479Y01052607D01*
X00807546Y01052623D01*
X00807612Y01052632D01*
X00807687Y01052640D01*
X00807762Y01052644D01*
X00807812D01*
X00807837Y01052640D01*
D02*
G37*
G36*
X00803542Y01051761D02*
X00803588Y01051753D01*
X00803634Y01051740D01*
X00803692Y01051715D01*
X00803751Y01051686D01*
X00803813Y01051644D01*
X00803705Y01051286D01*
X00803701Y01051290D01*
X00803684Y01051299D01*
X00803659Y01051311D01*
X00803630Y01051328D01*
X00803597Y01051344D01*
X00803555Y01051357D01*
X00803513Y01051365D01*
X00803472Y01051369D01*
X00803455D01*
X00803434Y01051365D01*
X00803409Y01051361D01*
X00803380Y01051353D01*
X00803351Y01051336D01*
X00803317Y01051319D01*
X00803284Y01051294D01*
X00803280Y01051290D01*
X00803272Y01051282D01*
X00803255Y01051265D01*
X00803238Y01051244D01*
X00803217Y01051215D01*
X00803201Y01051182D01*
X00803184Y01051144D01*
X00803167Y01051099D01*
Y01051094D01*
X00803163Y01051090D01*
Y01051078D01*
X00803159Y01051061D01*
X00803151Y01051015D01*
X00803138Y01050957D01*
X00803126Y01050882D01*
X00803118Y01050803D01*
X00803113Y01050715D01*
X00803109Y01050624D01*
Y01049428D01*
X00802793D01*
Y01051719D01*
X00803080D01*
Y01051374D01*
X00803084Y01051382D01*
X00803092Y01051394D01*
X00803097Y01051407D01*
X00803118Y01051449D01*
X00803147Y01051498D01*
X00803176Y01051553D01*
X00803209Y01051607D01*
X00803247Y01051653D01*
X00803280Y01051690D01*
X00803284Y01051694D01*
X00803297Y01051703D01*
X00803313Y01051715D01*
X00803338Y01051732D01*
X00803372Y01051744D01*
X00803405Y01051757D01*
X00803442Y01051765D01*
X00803484Y01051769D01*
X00803513D01*
X00803542Y01051761D01*
D02*
G37*
G36*
X00744917Y01072502D02*
X00745011D01*
X00745115Y01072491D01*
X00745230Y01072470D01*
X00745480Y01072439D01*
X00745740Y01072387D01*
X00745990Y01072314D01*
X00746219Y01072210D01*
X00746229D01*
X00746240Y01072200D01*
X00746271Y01072179D01*
X00746313Y01072158D01*
X00746417Y01072085D01*
X00746542Y01071992D01*
X00746688Y01071867D01*
X00746833Y01071710D01*
X00746969Y01071533D01*
X00747094Y01071335D01*
Y01071325D01*
X00747104Y01071315D01*
X00747125Y01071273D01*
X00747146Y01071231D01*
X00747167Y01071179D01*
X00747188Y01071106D01*
X00747219Y01071033D01*
X00747250Y01070940D01*
X00747271Y01070846D01*
X00747302Y01070731D01*
X00747354Y01070481D01*
X00747385Y01070190D01*
X00747396Y01069867D01*
Y01069669D01*
X00743865D01*
Y01069648D01*
X00743876Y01069596D01*
X00743886Y01069523D01*
X00743907Y01069430D01*
X00743938Y01069325D01*
X00743980Y01069221D01*
X00744022Y01069117D01*
X00744084Y01069034D01*
X00744094Y01069024D01*
X00744136Y01068992D01*
X00744188Y01068940D01*
X00744261Y01068888D01*
X00744365Y01068836D01*
X00744480Y01068784D01*
X00744605Y01068753D01*
X00744751Y01068742D01*
X00744792D01*
X00744844Y01068753D01*
X00744907Y01068763D01*
X00744980Y01068774D01*
X00745063Y01068794D01*
X00745157Y01068826D01*
X00745240Y01068867D01*
X00745250D01*
X00745261Y01068888D01*
X00745292Y01068909D01*
X00745334Y01068940D01*
X00745386Y01068971D01*
X00745438Y01069024D01*
X00745490Y01069086D01*
X00745553Y01069159D01*
X00747292Y01069003D01*
Y01068992D01*
X00747271Y01068971D01*
X00747250Y01068940D01*
X00747219Y01068888D01*
X00747135Y01068763D01*
X00747021Y01068617D01*
X00746875Y01068451D01*
X00746708Y01068284D01*
X00746531Y01068128D01*
X00746323Y01068003D01*
X00746313D01*
X00746302Y01067992D01*
X00746261Y01067972D01*
X00746219Y01067961D01*
X00746156Y01067941D01*
X00746094Y01067909D01*
X00746011Y01067888D01*
X00745917Y01067857D01*
X00745802Y01067826D01*
X00745688Y01067805D01*
X00745553Y01067784D01*
X00745407Y01067753D01*
X00745250Y01067743D01*
X00745084Y01067722D01*
X00744907Y01067711D01*
X00744574D01*
X00744490Y01067722D01*
X00744407D01*
X00744199Y01067743D01*
X00743970Y01067774D01*
X00743730Y01067815D01*
X00743491Y01067878D01*
X00743282Y01067961D01*
X00743272D01*
X00743261Y01067972D01*
X00743199Y01068013D01*
X00743095Y01068076D01*
X00742980Y01068159D01*
X00742845Y01068274D01*
X00742699Y01068409D01*
X00742553Y01068576D01*
X00742418Y01068774D01*
Y01068784D01*
X00742408Y01068794D01*
X00742387Y01068826D01*
X00742366Y01068878D01*
X00742335Y01068930D01*
X00742314Y01068992D01*
X00742251Y01069148D01*
X00742178Y01069346D01*
X00742126Y01069565D01*
X00742085Y01069825D01*
X00742074Y01070096D01*
Y01070107D01*
Y01070148D01*
Y01070200D01*
X00742085Y01070273D01*
X00742095Y01070367D01*
X00742116Y01070471D01*
X00742137Y01070596D01*
X00742158Y01070721D01*
X00742241Y01071002D01*
X00742293Y01071148D01*
X00742366Y01071294D01*
X00742439Y01071440D01*
X00742532Y01071575D01*
X00742637Y01071721D01*
X00742762Y01071846D01*
X00742772Y01071856D01*
X00742793Y01071877D01*
X00742834Y01071908D01*
X00742887Y01071950D01*
X00742959Y01072002D01*
X00743043Y01072054D01*
X00743147Y01072116D01*
X00743261Y01072179D01*
X00743386Y01072241D01*
X00743532Y01072304D01*
X00743688Y01072356D01*
X00743855Y01072408D01*
X00744043Y01072450D01*
X00744240Y01072481D01*
X00744449Y01072502D01*
X00744667Y01072512D01*
X00744834D01*
X00744917Y01072502D01*
D02*
G37*
G36*
X00711915D02*
X00712009D01*
X00712113Y01072491D01*
X00712228Y01072470D01*
X00712478Y01072439D01*
X00712738Y01072387D01*
X00712988Y01072314D01*
X00713217Y01072210D01*
X00713227D01*
X00713238Y01072200D01*
X00713269Y01072179D01*
X00713311Y01072158D01*
X00713415Y01072085D01*
X00713540Y01071992D01*
X00713686Y01071867D01*
X00713831Y01071710D01*
X00713967Y01071533D01*
X00714092Y01071335D01*
Y01071325D01*
X00714102Y01071315D01*
X00714123Y01071273D01*
X00714144Y01071231D01*
X00714165Y01071179D01*
X00714185Y01071106D01*
X00714217Y01071033D01*
X00714248Y01070940D01*
X00714269Y01070846D01*
X00714300Y01070731D01*
X00714352Y01070481D01*
X00714383Y01070190D01*
X00714394Y01069867D01*
Y01069669D01*
X00710863D01*
Y01069648D01*
X00710874Y01069596D01*
X00710884Y01069523D01*
X00710905Y01069430D01*
X00710936Y01069325D01*
X00710978Y01069221D01*
X00711020Y01069117D01*
X00711082Y01069034D01*
X00711093Y01069024D01*
X00711134Y01068992D01*
X00711186Y01068940D01*
X00711259Y01068888D01*
X00711363Y01068836D01*
X00711478Y01068784D01*
X00711603Y01068753D01*
X00711749Y01068742D01*
X00711790D01*
X00711842Y01068753D01*
X00711905Y01068763D01*
X00711978Y01068774D01*
X00712061Y01068794D01*
X00712155Y01068826D01*
X00712238Y01068867D01*
X00712249D01*
X00712259Y01068888D01*
X00712290Y01068909D01*
X00712332Y01068940D01*
X00712384Y01068971D01*
X00712436Y01069024D01*
X00712488Y01069086D01*
X00712551Y01069159D01*
X00714290Y01069003D01*
Y01068992D01*
X00714269Y01068971D01*
X00714248Y01068940D01*
X00714217Y01068888D01*
X00714133Y01068763D01*
X00714019Y01068617D01*
X00713873Y01068451D01*
X00713707Y01068284D01*
X00713529Y01068128D01*
X00713321Y01068003D01*
X00713311D01*
X00713300Y01067992D01*
X00713259Y01067972D01*
X00713217Y01067961D01*
X00713155Y01067941D01*
X00713092Y01067909D01*
X00713009Y01067888D01*
X00712915Y01067857D01*
X00712801Y01067826D01*
X00712686Y01067805D01*
X00712551Y01067784D01*
X00712405Y01067753D01*
X00712249Y01067743D01*
X00712082Y01067722D01*
X00711905Y01067711D01*
X00711572D01*
X00711488Y01067722D01*
X00711405D01*
X00711197Y01067743D01*
X00710968Y01067774D01*
X00710728Y01067815D01*
X00710489Y01067878D01*
X00710280Y01067961D01*
X00710270D01*
X00710259Y01067972D01*
X00710197Y01068013D01*
X00710093Y01068076D01*
X00709978Y01068159D01*
X00709843Y01068274D01*
X00709697Y01068409D01*
X00709551Y01068576D01*
X00709416Y01068774D01*
Y01068784D01*
X00709406Y01068794D01*
X00709385Y01068826D01*
X00709364Y01068878D01*
X00709333Y01068930D01*
X00709312Y01068992D01*
X00709249Y01069148D01*
X00709176Y01069346D01*
X00709124Y01069565D01*
X00709083Y01069825D01*
X00709072Y01070096D01*
Y01070107D01*
Y01070148D01*
Y01070200D01*
X00709083Y01070273D01*
X00709093Y01070367D01*
X00709114Y01070471D01*
X00709135Y01070596D01*
X00709156Y01070721D01*
X00709239Y01071002D01*
X00709291Y01071148D01*
X00709364Y01071294D01*
X00709437Y01071440D01*
X00709530Y01071575D01*
X00709635Y01071721D01*
X00709760Y01071846D01*
X00709770Y01071856D01*
X00709791Y01071877D01*
X00709833Y01071908D01*
X00709884Y01071950D01*
X00709957Y01072002D01*
X00710041Y01072054D01*
X00710145Y01072116D01*
X00710259Y01072179D01*
X00710384Y01072241D01*
X00710530Y01072304D01*
X00710686Y01072356D01*
X00710853Y01072408D01*
X00711040Y01072450D01*
X00711238Y01072481D01*
X00711447Y01072502D01*
X00711665Y01072512D01*
X00711832D01*
X00711915Y01072502D01*
D02*
G37*
G36*
X00637476Y00740765D02*
X00637844D01*
X00638251Y00740740D01*
X00638632Y00740714D01*
X00638810Y00740702D01*
X00638975Y00740676D01*
X00639114Y00740651D01*
X00639229Y00740625D01*
X00639241D01*
X00639267Y00740613D01*
X00639305Y00740600D01*
X00639368Y00740575D01*
X00639432Y00740549D01*
X00639521Y00740524D01*
X00639711Y00740422D01*
X00639927Y00740295D01*
X00640168Y00740130D01*
X00640397Y00739927D01*
X00640626Y00739673D01*
X00640638Y00739660D01*
X00640651Y00739635D01*
X00640676Y00739597D01*
X00640714Y00739546D01*
X00640753Y00739470D01*
X00640803Y00739381D01*
X00640854Y00739279D01*
X00640918Y00739165D01*
X00640968Y00739025D01*
X00641019Y00738885D01*
X00641070Y00738733D01*
X00641108Y00738555D01*
X00641172Y00738187D01*
X00641197Y00737984D01*
Y00737768D01*
Y00737755D01*
Y00737730D01*
Y00737679D01*
Y00737616D01*
X00641184Y00737539D01*
Y00737450D01*
X00641159Y00737247D01*
X00641121Y00737006D01*
X00641057Y00736752D01*
X00640981Y00736498D01*
X00640867Y00736257D01*
Y00736244D01*
X00640854Y00736231D01*
X00640803Y00736155D01*
X00640740Y00736041D01*
X00640638Y00735914D01*
X00640511Y00735749D01*
X00640372Y00735596D01*
X00640207Y00735431D01*
X00640029Y00735291D01*
X00640003Y00735279D01*
X00639940Y00735241D01*
X00639851Y00735177D01*
X00639711Y00735101D01*
X00639559Y00735025D01*
X00639394Y00734949D01*
X00639203Y00734885D01*
X00639013Y00734834D01*
X00638975D01*
X00638937Y00734821D01*
X00638886Y00734809D01*
X00638810Y00734796D01*
X00638721D01*
X00638619Y00734783D01*
X00638492Y00734771D01*
X00638365Y00734758D01*
X00638213Y00734745D01*
X00638047Y00734733D01*
X00637857Y00734720D01*
X00637667Y00734707D01*
X00637451D01*
X00637222Y00734695D01*
X00635698D01*
Y00731012D01*
X00633730D01*
Y00740778D01*
X00637311D01*
X00637476Y00740765D01*
D02*
G37*
G36*
X00915653Y00758859D02*
X00917788D01*
Y00757401D01*
X00915653D01*
Y00755298D01*
X00914237D01*
Y00757401D01*
X00912113D01*
Y00758859D01*
X00914237D01*
Y00760962D01*
X00915653D01*
Y00758859D01*
D02*
G37*
G36*
X00930953Y00762283D02*
X00931049Y00762272D01*
X00931165Y00762251D01*
X00931292Y00762230D01*
X00931429Y00762198D01*
X00931566Y00762167D01*
X00931714Y00762114D01*
X00931873Y00762050D01*
X00932021Y00761987D01*
X00932179Y00761892D01*
X00932327Y00761797D01*
X00932464Y00761681D01*
X00932602Y00761554D01*
X00932612Y00761543D01*
X00932623Y00761522D01*
X00932655Y00761490D01*
X00932697Y00761448D01*
X00932739Y00761395D01*
X00932781Y00761321D01*
X00932898Y00761163D01*
X00933003Y00760962D01*
X00933088Y00760730D01*
X00933162Y00760476D01*
X00933172Y00760339D01*
X00933183Y00760201D01*
Y00760191D01*
Y00760159D01*
X00933172Y00760096D01*
X00933162Y00760022D01*
X00933151Y00759937D01*
X00933120Y00759831D01*
X00933088Y00759715D01*
X00933035Y00759588D01*
X00932972Y00759451D01*
X00932898Y00759314D01*
X00932803Y00759166D01*
X00932686Y00759028D01*
X00932549Y00758880D01*
X00932401Y00758743D01*
X00932221Y00758616D01*
X00932010Y00758489D01*
X00932021D01*
X00932042Y00758479D01*
X00932073Y00758468D01*
X00932126Y00758458D01*
X00932190Y00758437D01*
X00932253Y00758416D01*
X00932411Y00758342D01*
X00932591Y00758257D01*
X00932771Y00758141D01*
X00932950Y00757993D01*
X00933120Y00757813D01*
Y00757803D01*
X00933141Y00757792D01*
X00933162Y00757760D01*
X00933183Y00757718D01*
X00933257Y00757612D01*
X00933331Y00757465D01*
X00933405Y00757274D01*
X00933479Y00757063D01*
X00933521Y00756820D01*
X00933542Y00756556D01*
Y00756545D01*
Y00756514D01*
Y00756450D01*
X00933532Y00756376D01*
X00933521Y00756281D01*
X00933500Y00756175D01*
X00933479Y00756059D01*
X00933447Y00755922D01*
X00933405Y00755784D01*
X00933352Y00755637D01*
X00933289Y00755489D01*
X00933215Y00755330D01*
X00933120Y00755172D01*
X00933014Y00755024D01*
X00932898Y00754876D01*
X00932760Y00754728D01*
X00932750Y00754717D01*
X00932729Y00754696D01*
X00932676Y00754654D01*
X00932623Y00754612D01*
X00932538Y00754559D01*
X00932454Y00754495D01*
X00932348Y00754421D01*
X00932221Y00754358D01*
X00932084Y00754284D01*
X00931936Y00754210D01*
X00931778Y00754147D01*
X00931609Y00754094D01*
X00931418Y00754052D01*
X00931228Y00754009D01*
X00931017Y00753988D01*
X00930806Y00753978D01*
X00930700D01*
X00930626Y00753988D01*
X00930531Y00753999D01*
X00930415Y00754009D01*
X00930298Y00754030D01*
X00930161Y00754052D01*
X00929876Y00754126D01*
X00929728Y00754178D01*
X00929569Y00754242D01*
X00929421Y00754316D01*
X00929263Y00754400D01*
X00929115Y00754495D01*
X00928978Y00754601D01*
X00928967Y00754612D01*
X00928946Y00754633D01*
X00928914Y00754664D01*
X00928861Y00754717D01*
X00928808Y00754781D01*
X00928745Y00754855D01*
X00928671Y00754950D01*
X00928608Y00755045D01*
X00928534Y00755161D01*
X00928460Y00755288D01*
X00928386Y00755425D01*
X00928322Y00755573D01*
X00928259Y00755732D01*
X00928217Y00755890D01*
X00928174Y00756070D01*
X00928143Y00756260D01*
X00929654Y00756450D01*
Y00756440D01*
Y00756429D01*
X00929664Y00756397D01*
Y00756355D01*
X00929696Y00756249D01*
X00929728Y00756123D01*
X00929770Y00755975D01*
X00929844Y00755827D01*
X00929928Y00755689D01*
X00930034Y00755563D01*
X00930045Y00755552D01*
X00930087Y00755520D01*
X00930161Y00755467D01*
X00930245Y00755415D01*
X00930362Y00755362D01*
X00930489Y00755309D01*
X00930647Y00755277D01*
X00930806Y00755267D01*
X00930827D01*
X00930890Y00755277D01*
X00930975Y00755288D01*
X00931080Y00755309D01*
X00931207Y00755351D01*
X00931344Y00755415D01*
X00931482Y00755510D01*
X00931609Y00755626D01*
X00931619Y00755647D01*
X00931661Y00755689D01*
X00931714Y00755774D01*
X00931778Y00755890D01*
X00931841Y00756027D01*
X00931894Y00756197D01*
X00931936Y00756397D01*
X00931947Y00756619D01*
Y00756630D01*
Y00756651D01*
Y00756672D01*
Y00756714D01*
X00931926Y00756820D01*
X00931904Y00756957D01*
X00931873Y00757105D01*
X00931809Y00757264D01*
X00931735Y00757422D01*
X00931630Y00757560D01*
X00931619Y00757570D01*
X00931577Y00757612D01*
X00931503Y00757665D01*
X00931418Y00757739D01*
X00931302Y00757803D01*
X00931175Y00757855D01*
X00931027Y00757898D01*
X00930858Y00757908D01*
X00930806D01*
X00930742Y00757898D01*
X00930658D01*
X00930552Y00757877D01*
X00930436Y00757855D01*
X00930298Y00757824D01*
X00930150Y00757782D01*
X00930319Y00759049D01*
X00930425D01*
X00930541Y00759060D01*
X00930679Y00759071D01*
X00930837Y00759102D01*
X00930996Y00759155D01*
X00931144Y00759219D01*
X00931281Y00759314D01*
X00931292Y00759324D01*
X00931334Y00759366D01*
X00931387Y00759430D01*
X00931450Y00759525D01*
X00931513Y00759631D01*
X00931566Y00759768D01*
X00931609Y00759926D01*
X00931619Y00760096D01*
Y00760117D01*
Y00760159D01*
X00931609Y00760243D01*
X00931587Y00760328D01*
X00931556Y00760434D01*
X00931513Y00760550D01*
X00931450Y00760656D01*
X00931366Y00760751D01*
X00931355Y00760761D01*
X00931323Y00760793D01*
X00931270Y00760835D01*
X00931196Y00760877D01*
X00931101Y00760920D01*
X00930996Y00760962D01*
X00930869Y00760994D01*
X00930721Y00761004D01*
X00930658D01*
X00930584Y00760994D01*
X00930489Y00760973D01*
X00930372Y00760930D01*
X00930267Y00760888D01*
X00930150Y00760814D01*
X00930034Y00760719D01*
X00930023Y00760708D01*
X00929992Y00760666D01*
X00929939Y00760603D01*
X00929886Y00760518D01*
X00929823Y00760402D01*
X00929770Y00760265D01*
X00929728Y00760106D01*
X00929696Y00759916D01*
X00928259Y00760159D01*
Y00760170D01*
X00928270Y00760191D01*
X00928280Y00760233D01*
X00928291Y00760286D01*
X00928301Y00760349D01*
X00928322Y00760413D01*
X00928375Y00760582D01*
X00928428Y00760772D01*
X00928512Y00760973D01*
X00928597Y00761163D01*
X00928703Y00761342D01*
X00928713Y00761364D01*
X00928756Y00761416D01*
X00928829Y00761501D01*
X00928925Y00761596D01*
X00929041Y00761712D01*
X00929189Y00761828D01*
X00929358Y00761934D01*
X00929548Y00762040D01*
X00929559D01*
X00929569Y00762050D01*
X00929601Y00762061D01*
X00929643Y00762082D01*
X00929759Y00762124D01*
X00929907Y00762167D01*
X00930087Y00762209D01*
X00930288Y00762251D01*
X00930520Y00762283D01*
X00930763Y00762293D01*
X00930879D01*
X00930953Y00762283D01*
D02*
G37*
G36*
X00921497D02*
X00921592Y00762272D01*
X00921708Y00762251D01*
X00921835Y00762230D01*
X00921972Y00762198D01*
X00922109Y00762167D01*
X00922257Y00762114D01*
X00922416Y00762050D01*
X00922564Y00761987D01*
X00922722Y00761892D01*
X00922870Y00761797D01*
X00923008Y00761681D01*
X00923145Y00761554D01*
X00923155Y00761543D01*
X00923166Y00761522D01*
X00923198Y00761490D01*
X00923240Y00761448D01*
X00923282Y00761395D01*
X00923324Y00761321D01*
X00923441Y00761163D01*
X00923546Y00760962D01*
X00923631Y00760730D01*
X00923705Y00760476D01*
X00923715Y00760339D01*
X00923726Y00760201D01*
Y00760191D01*
Y00760159D01*
X00923715Y00760096D01*
X00923705Y00760022D01*
X00923694Y00759937D01*
X00923663Y00759831D01*
X00923631Y00759715D01*
X00923578Y00759588D01*
X00923515Y00759451D01*
X00923441Y00759314D01*
X00923346Y00759166D01*
X00923229Y00759028D01*
X00923092Y00758880D01*
X00922944Y00758743D01*
X00922764Y00758616D01*
X00922553Y00758489D01*
X00922564D01*
X00922585Y00758479D01*
X00922617Y00758468D01*
X00922669Y00758458D01*
X00922733Y00758437D01*
X00922796Y00758416D01*
X00922955Y00758342D01*
X00923134Y00758257D01*
X00923314Y00758141D01*
X00923493Y00757993D01*
X00923663Y00757813D01*
Y00757803D01*
X00923684Y00757792D01*
X00923705Y00757760D01*
X00923726Y00757718D01*
X00923800Y00757612D01*
X00923874Y00757465D01*
X00923948Y00757274D01*
X00924022Y00757063D01*
X00924064Y00756820D01*
X00924085Y00756556D01*
Y00756545D01*
Y00756514D01*
Y00756450D01*
X00924075Y00756376D01*
X00924064Y00756281D01*
X00924043Y00756175D01*
X00924022Y00756059D01*
X00923990Y00755922D01*
X00923948Y00755784D01*
X00923895Y00755637D01*
X00923832Y00755489D01*
X00923758Y00755330D01*
X00923663Y00755172D01*
X00923557Y00755024D01*
X00923441Y00754876D01*
X00923303Y00754728D01*
X00923293Y00754717D01*
X00923272Y00754696D01*
X00923219Y00754654D01*
X00923166Y00754612D01*
X00923081Y00754559D01*
X00922997Y00754495D01*
X00922891Y00754421D01*
X00922764Y00754358D01*
X00922627Y00754284D01*
X00922479Y00754210D01*
X00922321Y00754147D01*
X00922152Y00754094D01*
X00921961Y00754052D01*
X00921771Y00754009D01*
X00921560Y00753988D01*
X00921348Y00753978D01*
X00921243D01*
X00921169Y00753988D01*
X00921074Y00753999D01*
X00920958Y00754009D01*
X00920841Y00754030D01*
X00920704Y00754052D01*
X00920419Y00754126D01*
X00920271Y00754178D01*
X00920112Y00754242D01*
X00919964Y00754316D01*
X00919806Y00754400D01*
X00919658Y00754495D01*
X00919520Y00754601D01*
X00919510Y00754612D01*
X00919489Y00754633D01*
X00919457Y00754664D01*
X00919404Y00754717D01*
X00919352Y00754781D01*
X00919288Y00754855D01*
X00919214Y00754950D01*
X00919151Y00755045D01*
X00919077Y00755161D01*
X00919003Y00755288D01*
X00918929Y00755425D01*
X00918865Y00755573D01*
X00918802Y00755732D01*
X00918760Y00755890D01*
X00918717Y00756070D01*
X00918686Y00756260D01*
X00920197Y00756450D01*
Y00756440D01*
Y00756429D01*
X00920207Y00756397D01*
Y00756355D01*
X00920239Y00756249D01*
X00920271Y00756123D01*
X00920313Y00755975D01*
X00920387Y00755827D01*
X00920471Y00755689D01*
X00920577Y00755563D01*
X00920588Y00755552D01*
X00920630Y00755520D01*
X00920704Y00755467D01*
X00920788Y00755415D01*
X00920905Y00755362D01*
X00921031Y00755309D01*
X00921190Y00755277D01*
X00921348Y00755267D01*
X00921370D01*
X00921433Y00755277D01*
X00921518Y00755288D01*
X00921623Y00755309D01*
X00921750Y00755351D01*
X00921887Y00755415D01*
X00922025Y00755510D01*
X00922152Y00755626D01*
X00922162Y00755647D01*
X00922204Y00755689D01*
X00922257Y00755774D01*
X00922321Y00755890D01*
X00922384Y00756027D01*
X00922437Y00756197D01*
X00922479Y00756397D01*
X00922490Y00756619D01*
Y00756630D01*
Y00756651D01*
Y00756672D01*
Y00756714D01*
X00922469Y00756820D01*
X00922447Y00756957D01*
X00922416Y00757105D01*
X00922352Y00757264D01*
X00922278Y00757422D01*
X00922173Y00757560D01*
X00922162Y00757570D01*
X00922120Y00757612D01*
X00922046Y00757665D01*
X00921961Y00757739D01*
X00921845Y00757803D01*
X00921718Y00757855D01*
X00921570Y00757898D01*
X00921401Y00757908D01*
X00921348D01*
X00921285Y00757898D01*
X00921201D01*
X00921095Y00757877D01*
X00920979Y00757855D01*
X00920841Y00757824D01*
X00920693Y00757782D01*
X00920863Y00759049D01*
X00920968D01*
X00921084Y00759060D01*
X00921222Y00759071D01*
X00921380Y00759102D01*
X00921539Y00759155D01*
X00921687Y00759219D01*
X00921824Y00759314D01*
X00921835Y00759324D01*
X00921877Y00759366D01*
X00921930Y00759430D01*
X00921993Y00759525D01*
X00922057Y00759631D01*
X00922109Y00759768D01*
X00922152Y00759926D01*
X00922162Y00760096D01*
Y00760117D01*
Y00760159D01*
X00922152Y00760243D01*
X00922130Y00760328D01*
X00922099Y00760434D01*
X00922057Y00760550D01*
X00921993Y00760656D01*
X00921908Y00760751D01*
X00921898Y00760761D01*
X00921866Y00760793D01*
X00921813Y00760835D01*
X00921740Y00760877D01*
X00921644Y00760920D01*
X00921539Y00760962D01*
X00921412Y00760994D01*
X00921264Y00761004D01*
X00921201D01*
X00921127Y00760994D01*
X00921031Y00760973D01*
X00920915Y00760930D01*
X00920810Y00760888D01*
X00920693Y00760814D01*
X00920577Y00760719D01*
X00920567Y00760708D01*
X00920535Y00760666D01*
X00920482Y00760603D01*
X00920429Y00760518D01*
X00920366Y00760402D01*
X00920313Y00760265D01*
X00920271Y00760106D01*
X00920239Y00759916D01*
X00918802Y00760159D01*
Y00760170D01*
X00918813Y00760191D01*
X00918823Y00760233D01*
X00918834Y00760286D01*
X00918844Y00760349D01*
X00918865Y00760413D01*
X00918918Y00760582D01*
X00918971Y00760772D01*
X00919056Y00760973D01*
X00919140Y00761163D01*
X00919246Y00761342D01*
X00919256Y00761364D01*
X00919299Y00761416D01*
X00919373Y00761501D01*
X00919468Y00761596D01*
X00919584Y00761712D01*
X00919732Y00761828D01*
X00919901Y00761934D01*
X00920091Y00762040D01*
X00920102D01*
X00920112Y00762050D01*
X00920144Y00762061D01*
X00920186Y00762082D01*
X00920303Y00762124D01*
X00920450Y00762167D01*
X00920630Y00762209D01*
X00920831Y00762251D01*
X00921063Y00762283D01*
X00921306Y00762293D01*
X00921423D01*
X00921497Y00762283D01*
D02*
G37*
G36*
X00697234Y00530351D02*
X00695524D01*
Y00536831D01*
X00697234D01*
Y00530351D01*
D02*
G37*
G36*
X00684240Y00536971D02*
X00684345D01*
X00684461Y00536948D01*
X00684601Y00536936D01*
X00684752Y00536901D01*
X00684927Y00536866D01*
X00685101Y00536808D01*
X00685287Y00536750D01*
X00685485Y00536668D01*
X00685671Y00536575D01*
X00685857Y00536471D01*
X00686043Y00536331D01*
X00686218Y00536191D01*
X00686381Y00536017D01*
X00686392Y00536005D01*
X00686415Y00535970D01*
X00686462Y00535912D01*
X00686509Y00535842D01*
X00686578Y00535738D01*
X00686648Y00535610D01*
X00686718Y00535470D01*
X00686799Y00535296D01*
X00686869Y00535098D01*
X00686951Y00534888D01*
X00687009Y00534644D01*
X00687079Y00534388D01*
X00687125Y00534097D01*
X00687160Y00533783D01*
X00687183Y00533458D01*
Y00533097D01*
X00682891D01*
Y00533085D01*
Y00533062D01*
Y00533027D01*
X00682902Y00532969D01*
X00682914Y00532829D01*
X00682949Y00532655D01*
X00682995Y00532469D01*
X00683065Y00532271D01*
X00683170Y00532073D01*
X00683298Y00531899D01*
X00683321Y00531875D01*
X00683368Y00531829D01*
X00683449Y00531771D01*
X00683565Y00531689D01*
X00683717Y00531608D01*
X00683879Y00531550D01*
X00684077Y00531503D01*
X00684287Y00531480D01*
X00684357D01*
X00684426Y00531492D01*
X00684519Y00531503D01*
X00684624Y00531526D01*
X00684729Y00531573D01*
X00684845Y00531619D01*
X00684950Y00531689D01*
X00684961Y00531701D01*
X00684996Y00531736D01*
X00685043Y00531782D01*
X00685113Y00531864D01*
X00685182Y00531968D01*
X00685252Y00532085D01*
X00685322Y00532236D01*
X00685380Y00532411D01*
X00687090Y00532120D01*
Y00532108D01*
X00687079Y00532073D01*
X00687055Y00532027D01*
X00687032Y00531968D01*
X00686986Y00531887D01*
X00686951Y00531794D01*
X00686834Y00531585D01*
X00686683Y00531352D01*
X00686509Y00531119D01*
X00686288Y00530887D01*
X00686043Y00530689D01*
X00686032D01*
X00686008Y00530666D01*
X00685974Y00530642D01*
X00685915Y00530607D01*
X00685845Y00530573D01*
X00685764Y00530538D01*
X00685671Y00530491D01*
X00685555Y00530445D01*
X00685427Y00530398D01*
X00685299Y00530351D01*
X00684996Y00530282D01*
X00684647Y00530224D01*
X00684263Y00530200D01*
X00684194D01*
X00684100Y00530212D01*
X00683984Y00530224D01*
X00683845Y00530235D01*
X00683693Y00530258D01*
X00683507Y00530293D01*
X00683321Y00530340D01*
X00683123Y00530398D01*
X00682914Y00530468D01*
X00682705Y00530561D01*
X00682507Y00530666D01*
X00682297Y00530794D01*
X00682111Y00530945D01*
X00681937Y00531108D01*
X00681774Y00531305D01*
X00681762Y00531317D01*
X00681751Y00531352D01*
X00681716Y00531399D01*
X00681669Y00531468D01*
X00681623Y00531550D01*
X00681576Y00531654D01*
X00681518Y00531782D01*
X00681460Y00531922D01*
X00681390Y00532073D01*
X00681332Y00532236D01*
X00681285Y00532422D01*
X00681239Y00532620D01*
X00681192Y00532829D01*
X00681157Y00533050D01*
X00681146Y00533295D01*
X00681134Y00533539D01*
Y00533562D01*
Y00533609D01*
X00681146Y00533690D01*
Y00533807D01*
X00681157Y00533935D01*
X00681181Y00534097D01*
X00681204Y00534272D01*
X00681239Y00534458D01*
X00681285Y00534656D01*
X00681344Y00534865D01*
X00681402Y00535075D01*
X00681483Y00535284D01*
X00681588Y00535493D01*
X00681693Y00535691D01*
X00681820Y00535889D01*
X00681972Y00536063D01*
X00681983Y00536075D01*
X00682007Y00536098D01*
X00682053Y00536145D01*
X00682123Y00536203D01*
X00682204Y00536273D01*
X00682309Y00536354D01*
X00682425Y00536436D01*
X00682553Y00536529D01*
X00682705Y00536610D01*
X00682856Y00536692D01*
X00683030Y00536773D01*
X00683228Y00536843D01*
X00683426Y00536901D01*
X00683635Y00536948D01*
X00683868Y00536971D01*
X00684100Y00536982D01*
X00684170D01*
X00684240Y00536971D01*
D02*
G37*
G36*
X00676690Y00537785D02*
X00672363D01*
Y00535668D01*
X00676097D01*
Y00534156D01*
X00672363D01*
Y00530351D01*
X00670559D01*
Y00539297D01*
X00676690D01*
Y00537785D01*
D02*
G37*
G36*
X00679878Y00530351D02*
X00678168D01*
Y00539297D01*
X00679878D01*
Y00530351D01*
D02*
G37*
G36*
X00926938Y00754126D02*
X00925385D01*
Y00755679D01*
X00926938D01*
Y00754126D01*
D02*
G37*
G36*
X00695691Y00526671D02*
X00696866D01*
Y00525310D01*
X00695691D01*
Y00522681D01*
Y00522669D01*
Y00522646D01*
Y00522611D01*
Y00522553D01*
Y00522425D01*
Y00522274D01*
X00695703Y00522111D01*
Y00521960D01*
Y00521832D01*
X00695714Y00521785D01*
Y00521750D01*
X00695726Y00521727D01*
X00695749Y00521680D01*
X00695796Y00521611D01*
X00695866Y00521541D01*
X00695877D01*
X00695889Y00521529D01*
X00695947Y00521506D01*
X00696052Y00521471D01*
X00696168Y00521460D01*
X00696215D01*
X00696261Y00521471D01*
X00696343Y00521483D01*
X00696436Y00521494D01*
X00696552Y00521529D01*
X00696692Y00521564D01*
X00696854Y00521622D01*
X00697006Y00520285D01*
X00696994D01*
X00696982Y00520273D01*
X00696948Y00520261D01*
X00696901Y00520250D01*
X00696773Y00520203D01*
X00696610Y00520168D01*
X00696412Y00520122D01*
X00696180Y00520075D01*
X00695924Y00520052D01*
X00695645Y00520040D01*
X00695563D01*
X00695482Y00520052D01*
X00695377Y00520064D01*
X00695249Y00520075D01*
X00695109Y00520110D01*
X00694958Y00520145D01*
X00694819Y00520191D01*
X00694807Y00520203D01*
X00694761Y00520215D01*
X00694691Y00520250D01*
X00694609Y00520296D01*
X00694435Y00520424D01*
X00694342Y00520506D01*
X00694272Y00520587D01*
X00694260Y00520599D01*
X00694249Y00520634D01*
X00694214Y00520692D01*
X00694179Y00520773D01*
X00694132Y00520866D01*
X00694097Y00520983D01*
X00694062Y00521110D01*
X00694028Y00521262D01*
Y00521273D01*
X00694016Y00521320D01*
Y00521401D01*
X00694004Y00521529D01*
X00693993Y00521692D01*
Y00521785D01*
Y00521902D01*
X00693981Y00522018D01*
Y00522158D01*
Y00522309D01*
Y00522472D01*
Y00525310D01*
X00693190D01*
Y00526671D01*
X00693981D01*
Y00527962D01*
X00695691Y00528975D01*
Y00526671D01*
D02*
G37*
G36*
X00676531Y00529126D02*
X00676869D01*
X00677241Y00529103D01*
X00677590Y00529079D01*
X00677753Y00529068D01*
X00677904Y00529044D01*
X00678032Y00529021D01*
X00678137Y00528998D01*
X00678148D01*
X00678172Y00528986D01*
X00678206Y00528975D01*
X00678265Y00528951D01*
X00678323Y00528928D01*
X00678404Y00528905D01*
X00678579Y00528812D01*
X00678776Y00528695D01*
X00678997Y00528544D01*
X00679207Y00528358D01*
X00679416Y00528125D01*
X00679428Y00528114D01*
X00679440Y00528090D01*
X00679463Y00528055D01*
X00679498Y00528009D01*
X00679533Y00527939D01*
X00679579Y00527858D01*
X00679626Y00527765D01*
X00679684Y00527660D01*
X00679730Y00527532D01*
X00679777Y00527404D01*
X00679824Y00527265D01*
X00679858Y00527102D01*
X00679917Y00526764D01*
X00679940Y00526578D01*
Y00526380D01*
Y00526369D01*
Y00526345D01*
Y00526299D01*
Y00526241D01*
X00679928Y00526171D01*
Y00526090D01*
X00679905Y00525903D01*
X00679870Y00525682D01*
X00679812Y00525450D01*
X00679742Y00525217D01*
X00679637Y00524996D01*
Y00524984D01*
X00679626Y00524973D01*
X00679579Y00524903D01*
X00679521Y00524798D01*
X00679428Y00524682D01*
X00679312Y00524531D01*
X00679184Y00524391D01*
X00679032Y00524240D01*
X00678870Y00524112D01*
X00678846Y00524100D01*
X00678788Y00524065D01*
X00678707Y00524007D01*
X00678579Y00523937D01*
X00678439Y00523868D01*
X00678288Y00523798D01*
X00678113Y00523740D01*
X00677939Y00523693D01*
X00677904D01*
X00677869Y00523681D01*
X00677823Y00523670D01*
X00677753Y00523658D01*
X00677671D01*
X00677578Y00523647D01*
X00677462Y00523635D01*
X00677346Y00523623D01*
X00677206Y00523612D01*
X00677055Y00523600D01*
X00676880Y00523588D01*
X00676706Y00523577D01*
X00676508D01*
X00676299Y00523565D01*
X00674903D01*
Y00520191D01*
X00673100D01*
Y00529137D01*
X00676380D01*
X00676531Y00529126D01*
D02*
G37*
G36*
X00692248Y00526811D02*
X00692387Y00526787D01*
X00692562Y00526741D01*
X00692760Y00526683D01*
X00692957Y00526601D01*
X00693167Y00526497D01*
X00692632Y00524996D01*
X00692608Y00525008D01*
X00692562Y00525042D01*
X00692480Y00525089D01*
X00692376Y00525147D01*
X00692248Y00525194D01*
X00692108Y00525240D01*
X00691969Y00525275D01*
X00691829Y00525287D01*
X00691771D01*
X00691701Y00525275D01*
X00691608Y00525264D01*
X00691515Y00525240D01*
X00691410Y00525194D01*
X00691305Y00525147D01*
X00691201Y00525077D01*
X00691189Y00525066D01*
X00691166Y00525042D01*
X00691119Y00524984D01*
X00691061Y00524915D01*
X00691003Y00524810D01*
X00690933Y00524693D01*
X00690875Y00524542D01*
X00690817Y00524356D01*
Y00524333D01*
X00690805Y00524298D01*
X00690794Y00524252D01*
X00690782Y00524182D01*
X00690770Y00524112D01*
X00690759Y00524007D01*
X00690747Y00523891D01*
X00690735Y00523763D01*
X00690724Y00523600D01*
X00690712Y00523425D01*
X00690701Y00523228D01*
X00690689Y00523007D01*
Y00522762D01*
X00690677Y00522495D01*
Y00522192D01*
Y00520191D01*
X00688967D01*
Y00526671D01*
X00690561D01*
Y00525752D01*
X00690584Y00525764D01*
X00690596Y00525799D01*
X00690631Y00525845D01*
X00690712Y00525962D01*
X00690805Y00526090D01*
X00690922Y00526241D01*
X00691038Y00526380D01*
X00691166Y00526508D01*
X00691294Y00526601D01*
X00691305Y00526613D01*
X00691352Y00526636D01*
X00691422Y00526671D01*
X00691503Y00526718D01*
X00691619Y00526753D01*
X00691736Y00526787D01*
X00691876Y00526811D01*
X00692027Y00526822D01*
X00692131D01*
X00692248Y00526811D01*
D02*
G37*
G36*
X00684477D02*
X00684582D01*
X00684709Y00526787D01*
X00684849Y00526776D01*
X00685012Y00526741D01*
X00685198Y00526706D01*
X00685384Y00526648D01*
X00685582Y00526590D01*
X00685780Y00526508D01*
X00685977Y00526415D01*
X00686187Y00526311D01*
X00686385Y00526171D01*
X00686571Y00526031D01*
X00686757Y00525857D01*
X00686768Y00525845D01*
X00686803Y00525810D01*
X00686850Y00525764D01*
X00686908Y00525682D01*
X00686978Y00525589D01*
X00687059Y00525473D01*
X00687141Y00525345D01*
X00687234Y00525194D01*
X00687315Y00525031D01*
X00687397Y00524845D01*
X00687478Y00524647D01*
X00687548Y00524438D01*
X00687618Y00524217D01*
X00687664Y00523972D01*
X00687688Y00523716D01*
X00687699Y00523449D01*
Y00523437D01*
Y00523379D01*
X00687688Y00523309D01*
Y00523204D01*
X00687676Y00523077D01*
X00687653Y00522925D01*
X00687618Y00522762D01*
X00687583Y00522588D01*
X00687525Y00522402D01*
X00687467Y00522204D01*
X00687385Y00522006D01*
X00687292Y00521797D01*
X00687187Y00521587D01*
X00687059Y00521390D01*
X00686908Y00521192D01*
X00686745Y00521006D01*
X00686734Y00520994D01*
X00686699Y00520959D01*
X00686652Y00520913D01*
X00686571Y00520855D01*
X00686478Y00520785D01*
X00686373Y00520703D01*
X00686233Y00520610D01*
X00686094Y00520529D01*
X00685919Y00520436D01*
X00685745Y00520343D01*
X00685547Y00520261D01*
X00685338Y00520191D01*
X00685117Y00520133D01*
X00684872Y00520087D01*
X00684628Y00520052D01*
X00684360Y00520040D01*
X00684267D01*
X00684209Y00520052D01*
X00684128D01*
X00684035Y00520064D01*
X00683930Y00520075D01*
X00683814Y00520087D01*
X00683546Y00520133D01*
X00683267Y00520203D01*
X00682953Y00520308D01*
X00682650Y00520436D01*
X00682639D01*
X00682615Y00520459D01*
X00682569Y00520482D01*
X00682522Y00520517D01*
X00682453Y00520552D01*
X00682371Y00520610D01*
X00682197Y00520738D01*
X00681999Y00520901D01*
X00681801Y00521110D01*
X00681603Y00521343D01*
X00681429Y00521622D01*
Y00521634D01*
X00681406Y00521657D01*
X00681394Y00521704D01*
X00681359Y00521762D01*
X00681336Y00521843D01*
X00681301Y00521925D01*
X00681254Y00522029D01*
X00681219Y00522158D01*
X00681185Y00522285D01*
X00681138Y00522425D01*
X00681103Y00522588D01*
X00681080Y00522751D01*
X00681033Y00523111D01*
X00681010Y00523519D01*
Y00523530D01*
Y00523554D01*
Y00523600D01*
X00681022Y00523670D01*
Y00523740D01*
X00681033Y00523833D01*
X00681045Y00523937D01*
X00681068Y00524042D01*
X00681115Y00524298D01*
X00681185Y00524577D01*
X00681289Y00524868D01*
X00681429Y00525171D01*
Y00525182D01*
X00681452Y00525205D01*
X00681475Y00525252D01*
X00681510Y00525299D01*
X00681545Y00525368D01*
X00681603Y00525450D01*
X00681731Y00525624D01*
X00681906Y00525822D01*
X00682104Y00526020D01*
X00682348Y00526217D01*
X00682615Y00526392D01*
X00682627D01*
X00682650Y00526415D01*
X00682697Y00526427D01*
X00682755Y00526462D01*
X00682825Y00526497D01*
X00682918Y00526532D01*
X00683011Y00526567D01*
X00683127Y00526613D01*
X00683383Y00526683D01*
X00683674Y00526753D01*
X00683988Y00526799D01*
X00684337Y00526822D01*
X00684407D01*
X00684477Y00526811D01*
D02*
G37*
G36*
X00698113Y00828220D02*
X00687003Y00834635D01*
X00675893Y00828220D01*
X00687003Y00847465D01*
X00698113Y00828220D01*
D02*
G37*
G36*
X00692104Y00533760D02*
X00694501Y00530351D01*
X00692395D01*
X00691080Y00532352D01*
X00689754Y00530351D01*
X00687753D01*
X00690080Y00533679D01*
X00687846Y00536831D01*
X00689929D01*
X00691080Y00535040D01*
X00692302Y00536831D01*
X00694303D01*
X00692104Y00533760D01*
D02*
G37*
G36*
X00697234Y00537715D02*
X00695524D01*
Y00539297D01*
X00697234D01*
Y00537715D01*
D02*
G37*
G36*
X00938677Y00754126D02*
X00936923D01*
X00934028Y00762251D01*
X00935803D01*
X00937853Y00756239D01*
X00939850Y00762251D01*
X00941594D01*
X00938677Y00754126D01*
D02*
G37*
G36*
X00644004Y00786345D02*
X00645286D01*
Y00784859D01*
X00644004D01*
Y00781989D01*
Y00781977D01*
Y00781951D01*
Y00781913D01*
Y00781850D01*
Y00781710D01*
Y00781545D01*
X00644016Y00781367D01*
Y00781202D01*
Y00781062D01*
X00644029Y00781011D01*
Y00780973D01*
X00644042Y00780948D01*
X00644067Y00780897D01*
X00644118Y00780821D01*
X00644194Y00780745D01*
X00644207D01*
X00644220Y00780732D01*
X00644283Y00780707D01*
X00644398Y00780668D01*
X00644525Y00780656D01*
X00644575D01*
X00644626Y00780668D01*
X00644715Y00780681D01*
X00644817Y00780694D01*
X00644944Y00780732D01*
X00645096Y00780770D01*
X00645274Y00780834D01*
X00645439Y00779373D01*
X00645426D01*
X00645414Y00779360D01*
X00645375Y00779348D01*
X00645325Y00779335D01*
X00645185Y00779284D01*
X00645007Y00779246D01*
X00644791Y00779195D01*
X00644537Y00779145D01*
X00644258Y00779119D01*
X00643953Y00779106D01*
X00643864D01*
X00643775Y00779119D01*
X00643661Y00779132D01*
X00643521Y00779145D01*
X00643369Y00779183D01*
X00643204Y00779221D01*
X00643051Y00779271D01*
X00643039Y00779284D01*
X00642988Y00779297D01*
X00642912Y00779335D01*
X00642823Y00779386D01*
X00642632Y00779526D01*
X00642531Y00779614D01*
X00642454Y00779703D01*
X00642442Y00779716D01*
X00642429Y00779754D01*
X00642391Y00779818D01*
X00642353Y00779906D01*
X00642302Y00780008D01*
X00642264Y00780135D01*
X00642226Y00780275D01*
X00642188Y00780440D01*
Y00780453D01*
X00642175Y00780503D01*
Y00780592D01*
X00642162Y00780732D01*
X00642150Y00780910D01*
Y00781011D01*
Y00781138D01*
X00642137Y00781265D01*
Y00781418D01*
Y00781583D01*
Y00781761D01*
Y00784859D01*
X00641273D01*
Y00786345D01*
X00642137D01*
Y00787755D01*
X00644004Y00788860D01*
Y00786345D01*
D02*
G37*
G36*
X00656132D02*
X00657415D01*
Y00784859D01*
X00656132D01*
Y00781989D01*
Y00781977D01*
Y00781951D01*
Y00781913D01*
Y00781850D01*
Y00781710D01*
Y00781545D01*
X00656145Y00781367D01*
Y00781202D01*
Y00781062D01*
X00656158Y00781011D01*
Y00780973D01*
X00656170Y00780948D01*
X00656196Y00780897D01*
X00656247Y00780821D01*
X00656323Y00780745D01*
X00656336D01*
X00656348Y00780732D01*
X00656412Y00780707D01*
X00656526Y00780668D01*
X00656653Y00780656D01*
X00656704D01*
X00656755Y00780668D01*
X00656843Y00780681D01*
X00656945Y00780694D01*
X00657072Y00780732D01*
X00657225Y00780770D01*
X00657402Y00780834D01*
X00657567Y00779373D01*
X00657555D01*
X00657542Y00779360D01*
X00657504Y00779348D01*
X00657453Y00779335D01*
X00657313Y00779284D01*
X00657136Y00779246D01*
X00656920Y00779195D01*
X00656666Y00779145D01*
X00656386Y00779119D01*
X00656081Y00779106D01*
X00655993D01*
X00655904Y00779119D01*
X00655789Y00779132D01*
X00655650Y00779145D01*
X00655497Y00779183D01*
X00655332Y00779221D01*
X00655180Y00779271D01*
X00655167Y00779284D01*
X00655116Y00779297D01*
X00655040Y00779335D01*
X00654951Y00779386D01*
X00654761Y00779526D01*
X00654659Y00779614D01*
X00654583Y00779703D01*
X00654570Y00779716D01*
X00654557Y00779754D01*
X00654519Y00779818D01*
X00654481Y00779906D01*
X00654430Y00780008D01*
X00654392Y00780135D01*
X00654354Y00780275D01*
X00654316Y00780440D01*
Y00780453D01*
X00654304Y00780503D01*
Y00780592D01*
X00654291Y00780732D01*
X00654278Y00780910D01*
Y00781011D01*
Y00781138D01*
X00654265Y00781265D01*
Y00781418D01*
Y00781583D01*
Y00781761D01*
Y00784859D01*
X00653402D01*
Y00786345D01*
X00654265D01*
Y00787755D01*
X00656132Y00788860D01*
Y00786345D01*
D02*
G37*
G36*
X00649655Y00786498D02*
X00649782D01*
X00649909Y00786485D01*
X00650062Y00786472D01*
X00650354Y00786434D01*
X00650671Y00786384D01*
X00650963Y00786307D01*
X00651090Y00786256D01*
X00651217Y00786206D01*
X00651230D01*
X00651243Y00786193D01*
X00651319Y00786155D01*
X00651421Y00786091D01*
X00651560Y00786003D01*
X00651700Y00785901D01*
X00651840Y00785761D01*
X00651967Y00785621D01*
X00652081Y00785456D01*
X00652094Y00785431D01*
X00652119Y00785368D01*
X00652144Y00785317D01*
X00652157Y00785253D01*
X00652183Y00785164D01*
X00652208Y00785075D01*
X00652233Y00784974D01*
X00652259Y00784847D01*
X00652271Y00784707D01*
X00652297Y00784555D01*
X00652310Y00784390D01*
X00652322Y00784199D01*
X00652335Y00783996D01*
Y00783780D01*
X00652310Y00781596D01*
Y00781583D01*
Y00781557D01*
Y00781507D01*
Y00781443D01*
Y00781367D01*
Y00781278D01*
X00652322Y00781075D01*
X00652335Y00780846D01*
X00652348Y00780618D01*
X00652373Y00780402D01*
X00652399Y00780211D01*
Y00780186D01*
X00652411Y00780135D01*
X00652437Y00780046D01*
X00652475Y00779932D01*
X00652525Y00779792D01*
X00652576Y00779627D01*
X00652653Y00779449D01*
X00652741Y00779271D01*
X00650887D01*
Y00779284D01*
X00650874Y00779310D01*
X00650862Y00779348D01*
X00650836Y00779411D01*
X00650811Y00779487D01*
X00650773Y00779576D01*
X00650735Y00779691D01*
X00650697Y00779818D01*
Y00779830D01*
Y00779843D01*
X00650671Y00779906D01*
X00650659Y00779983D01*
X00650633Y00780033D01*
X00650608Y00780008D01*
X00650544Y00779957D01*
X00650455Y00779868D01*
X00650328Y00779767D01*
X00650176Y00779652D01*
X00649998Y00779538D01*
X00649808Y00779437D01*
X00649604Y00779335D01*
X00649579Y00779322D01*
X00649516Y00779297D01*
X00649401Y00779259D01*
X00649262Y00779221D01*
X00649084Y00779183D01*
X00648893Y00779145D01*
X00648677Y00779119D01*
X00648449Y00779106D01*
X00648347D01*
X00648271Y00779119D01*
X00648182D01*
X00648068Y00779132D01*
X00647827Y00779183D01*
X00647547Y00779246D01*
X00647255Y00779348D01*
X00646976Y00779500D01*
X00646849Y00779589D01*
X00646722Y00779691D01*
X00646709Y00779703D01*
X00646696Y00779716D01*
X00646671Y00779754D01*
X00646620Y00779792D01*
X00646531Y00779932D01*
X00646417Y00780097D01*
X00646302Y00780313D01*
X00646201Y00780580D01*
X00646125Y00780872D01*
X00646112Y00781024D01*
X00646099Y00781189D01*
Y00781202D01*
Y00781215D01*
Y00781291D01*
X00646112Y00781405D01*
X00646137Y00781545D01*
X00646163Y00781710D01*
X00646214Y00781888D01*
X00646290Y00782078D01*
X00646379Y00782256D01*
X00646391Y00782281D01*
X00646430Y00782332D01*
X00646493Y00782421D01*
X00646595Y00782523D01*
X00646709Y00782637D01*
X00646836Y00782751D01*
X00647001Y00782866D01*
X00647179Y00782967D01*
X00647204Y00782980D01*
X00647280Y00783005D01*
X00647395Y00783056D01*
X00647560Y00783120D01*
X00647776Y00783183D01*
X00648030Y00783259D01*
X00648322Y00783335D01*
X00648665Y00783399D01*
X00648677D01*
X00648728Y00783412D01*
X00648792Y00783424D01*
X00648881Y00783437D01*
X00648982Y00783463D01*
X00649109Y00783488D01*
X00649389Y00783551D01*
X00649693Y00783628D01*
X00649998Y00783704D01*
X00650138Y00783742D01*
X00650265Y00783793D01*
X00650392Y00783831D01*
X00650493Y00783869D01*
Y00784047D01*
Y00784059D01*
Y00784072D01*
Y00784136D01*
X00650481Y00784237D01*
X00650455Y00784352D01*
X00650430Y00784491D01*
X00650379Y00784618D01*
X00650303Y00784733D01*
X00650214Y00784834D01*
X00650201Y00784847D01*
X00650163Y00784872D01*
X00650087Y00784910D01*
X00649986Y00784961D01*
X00649858Y00784999D01*
X00649681Y00785037D01*
X00649465Y00785063D01*
X00649211Y00785075D01*
X00649122D01*
X00649033Y00785063D01*
X00648919Y00785050D01*
X00648792Y00785025D01*
X00648665Y00784986D01*
X00648538Y00784936D01*
X00648423Y00784872D01*
X00648411Y00784859D01*
X00648373Y00784834D01*
X00648322Y00784783D01*
X00648258Y00784707D01*
X00648195Y00784618D01*
X00648119Y00784491D01*
X00648042Y00784352D01*
X00647979Y00784174D01*
X00646290Y00784479D01*
Y00784491D01*
X00646302Y00784529D01*
X00646315Y00784580D01*
X00646341Y00784644D01*
X00646379Y00784733D01*
X00646417Y00784834D01*
X00646518Y00785050D01*
X00646645Y00785304D01*
X00646823Y00785558D01*
X00647026Y00785799D01*
X00647268Y00786003D01*
X00647280D01*
X00647306Y00786028D01*
X00647344Y00786053D01*
X00647395Y00786079D01*
X00647471Y00786117D01*
X00647560Y00786168D01*
X00647674Y00786206D01*
X00647788Y00786256D01*
X00647928Y00786307D01*
X00648081Y00786345D01*
X00648258Y00786396D01*
X00648436Y00786434D01*
X00648639Y00786460D01*
X00648868Y00786485D01*
X00649097Y00786510D01*
X00649554D01*
X00649655Y00786498D01*
D02*
G37*
G36*
X00672820Y00738238D02*
X00672972Y00738212D01*
X00673163Y00738162D01*
X00673379Y00738098D01*
X00673595Y00738009D01*
X00673823Y00737895D01*
X00673239Y00736257D01*
X00673214Y00736269D01*
X00673163Y00736307D01*
X00673074Y00736358D01*
X00672960Y00736422D01*
X00672820Y00736472D01*
X00672668Y00736523D01*
X00672515Y00736561D01*
X00672363Y00736574D01*
X00672299D01*
X00672223Y00736561D01*
X00672122Y00736549D01*
X00672020Y00736523D01*
X00671906Y00736472D01*
X00671791Y00736422D01*
X00671677Y00736346D01*
X00671664Y00736333D01*
X00671639Y00736307D01*
X00671588Y00736244D01*
X00671525Y00736168D01*
X00671461Y00736053D01*
X00671385Y00735926D01*
X00671321Y00735761D01*
X00671258Y00735558D01*
Y00735533D01*
X00671245Y00735495D01*
X00671233Y00735444D01*
X00671220Y00735368D01*
X00671207Y00735291D01*
X00671195Y00735177D01*
X00671182Y00735050D01*
X00671169Y00734910D01*
X00671156Y00734733D01*
X00671144Y00734542D01*
X00671131Y00734326D01*
X00671118Y00734085D01*
Y00733818D01*
X00671106Y00733526D01*
Y00733196D01*
Y00731012D01*
X00669239D01*
Y00738085D01*
X00670979D01*
Y00737082D01*
X00671004Y00737095D01*
X00671017Y00737133D01*
X00671055Y00737184D01*
X00671144Y00737311D01*
X00671245Y00737450D01*
X00671372Y00737616D01*
X00671499Y00737768D01*
X00671639Y00737908D01*
X00671779Y00738009D01*
X00671791Y00738022D01*
X00671842Y00738047D01*
X00671918Y00738085D01*
X00672007Y00738136D01*
X00672134Y00738174D01*
X00672261Y00738212D01*
X00672414Y00738238D01*
X00672579Y00738251D01*
X00672693D01*
X00672820Y00738238D01*
D02*
G37*
G36*
X00769233Y01054819D02*
X00766693D01*
Y01047199D01*
X00769233D01*
Y01044659D01*
X00761613D01*
Y01047199D01*
X00764153D01*
Y01054819D01*
X00759073Y01049739D01*
X00753993Y01054819D01*
Y01047199D01*
X00756533D01*
Y01044659D01*
X00748913D01*
Y01047199D01*
X00751453D01*
Y01054819D01*
X00748913D01*
Y01057359D01*
X00755263D01*
X00759073Y01053549D01*
X00762883Y01057359D01*
X00769233D01*
Y01054819D01*
D02*
G37*
G36*
X00658482Y00731012D02*
X00656678D01*
X00655459Y00735558D01*
X00654265Y00731012D01*
X00652449D01*
X00650214Y00738085D01*
X00652030D01*
X00653351Y00733437D01*
X00654570Y00738085D01*
X00656374D01*
X00657555Y00733437D01*
X00658901Y00738085D01*
X00660755D01*
X00658482Y00731012D01*
D02*
G37*
G36*
X00916891Y00749688D02*
X00917018Y00749678D01*
X00917166Y00749667D01*
X00917325Y00749646D01*
X00917504Y00749614D01*
X00917874Y00749530D01*
X00918064Y00749477D01*
X00918255Y00749414D01*
X00918445Y00749340D01*
X00918624Y00749245D01*
X00918793Y00749139D01*
X00918941Y00749023D01*
X00918952Y00749012D01*
X00918973Y00748991D01*
X00919015Y00748959D01*
X00919068Y00748906D01*
X00919121Y00748832D01*
X00919184Y00748759D01*
X00919258Y00748663D01*
X00919332Y00748547D01*
X00919406Y00748431D01*
X00919480Y00748294D01*
X00919544Y00748146D01*
X00919607Y00747987D01*
X00919660Y00747818D01*
X00919713Y00747638D01*
X00919744Y00747438D01*
X00919755Y00747237D01*
X00918117Y00747174D01*
Y00747184D01*
Y00747205D01*
X00918107Y00747237D01*
X00918096Y00747279D01*
X00918064Y00747385D01*
X00918022Y00747522D01*
X00917959Y00747670D01*
X00917885Y00747818D01*
X00917779Y00747955D01*
X00917663Y00748072D01*
X00917642Y00748082D01*
X00917599Y00748114D01*
X00917515Y00748156D01*
X00917399Y00748209D01*
X00917261Y00748262D01*
X00917082Y00748304D01*
X00916870Y00748336D01*
X00916627Y00748346D01*
X00916511D01*
X00916448Y00748336D01*
X00916384D01*
X00916215Y00748315D01*
X00916036Y00748272D01*
X00915856Y00748220D01*
X00915666Y00748146D01*
X00915507Y00748051D01*
X00915497Y00748040D01*
X00915465Y00748019D01*
X00915423Y00747977D01*
X00915380Y00747913D01*
X00915338Y00747839D01*
X00915296Y00747755D01*
X00915264Y00747660D01*
X00915254Y00747543D01*
Y00747533D01*
Y00747501D01*
X00915264Y00747438D01*
X00915285Y00747374D01*
X00915317Y00747300D01*
X00915359Y00747216D01*
X00915412Y00747131D01*
X00915497Y00747047D01*
X00915507Y00747036D01*
X00915528Y00747026D01*
X00915560Y00747005D01*
X00915602Y00746983D01*
X00915655Y00746952D01*
X00915719Y00746920D01*
X00915803Y00746888D01*
X00915888Y00746846D01*
X00915993Y00746804D01*
X00916120Y00746761D01*
X00916258Y00746709D01*
X00916416Y00746666D01*
X00916585Y00746614D01*
X00916786Y00746561D01*
X00916997Y00746508D01*
X00917008D01*
X00917050Y00746497D01*
X00917113Y00746476D01*
X00917198Y00746455D01*
X00917293Y00746434D01*
X00917409Y00746402D01*
X00917536Y00746371D01*
X00917663Y00746328D01*
X00917948Y00746233D01*
X00918244Y00746138D01*
X00918519Y00746032D01*
X00918646Y00745969D01*
X00918762Y00745916D01*
X00918772D01*
X00918783Y00745906D01*
X00918815Y00745884D01*
X00918857Y00745863D01*
X00918963Y00745789D01*
X00919089Y00745694D01*
X00919237Y00745578D01*
X00919385Y00745430D01*
X00919523Y00745272D01*
X00919660Y00745081D01*
Y00745071D01*
X00919670Y00745060D01*
X00919692Y00745029D01*
X00919713Y00744986D01*
X00919734Y00744933D01*
X00919766Y00744881D01*
X00919829Y00744722D01*
X00919882Y00744543D01*
X00919935Y00744321D01*
X00919977Y00744067D01*
X00919987Y00743792D01*
Y00743782D01*
Y00743761D01*
Y00743718D01*
X00919977Y00743676D01*
Y00743613D01*
X00919966Y00743539D01*
X00919935Y00743359D01*
X00919892Y00743158D01*
X00919818Y00742936D01*
X00919723Y00742704D01*
X00919596Y00742472D01*
Y00742461D01*
X00919575Y00742450D01*
X00919554Y00742419D01*
X00919523Y00742376D01*
X00919438Y00742271D01*
X00919311Y00742133D01*
X00919153Y00741985D01*
X00918973Y00741838D01*
X00918751Y00741700D01*
X00918498Y00741573D01*
X00918487D01*
X00918466Y00741563D01*
X00918424Y00741542D01*
X00918371Y00741531D01*
X00918297Y00741510D01*
X00918223Y00741478D01*
X00918117Y00741457D01*
X00918012Y00741425D01*
X00917885Y00741394D01*
X00917758Y00741373D01*
X00917610Y00741351D01*
X00917452Y00741320D01*
X00917113Y00741288D01*
X00916733Y00741278D01*
X00916585D01*
X00916479Y00741288D01*
X00916353Y00741299D01*
X00916205Y00741320D01*
X00916036Y00741341D01*
X00915856Y00741362D01*
X00915476Y00741447D01*
X00915285Y00741510D01*
X00915085Y00741573D01*
X00914894Y00741658D01*
X00914704Y00741753D01*
X00914525Y00741859D01*
X00914366Y00741985D01*
X00914356Y00741996D01*
X00914334Y00742017D01*
X00914292Y00742059D01*
X00914239Y00742123D01*
X00914165Y00742197D01*
X00914102Y00742281D01*
X00914017Y00742387D01*
X00913933Y00742514D01*
X00913848Y00742651D01*
X00913764Y00742799D01*
X00913679Y00742968D01*
X00913605Y00743158D01*
X00913531Y00743359D01*
X00913468Y00743581D01*
X00913426Y00743813D01*
X00913383Y00744056D01*
X00914979Y00744215D01*
Y00744204D01*
X00914990Y00744183D01*
X00915000Y00744141D01*
X00915011Y00744088D01*
X00915021Y00744014D01*
X00915042Y00743940D01*
X00915106Y00743771D01*
X00915180Y00743570D01*
X00915285Y00743380D01*
X00915412Y00743190D01*
X00915560Y00743032D01*
X00915581Y00743021D01*
X00915645Y00742979D01*
X00915740Y00742915D01*
X00915877Y00742852D01*
X00916046Y00742778D01*
X00916247Y00742725D01*
X00916479Y00742683D01*
X00916744Y00742662D01*
X00916818D01*
X00916870Y00742672D01*
X00916944D01*
X00917018Y00742683D01*
X00917187Y00742704D01*
X00917388Y00742746D01*
X00917578Y00742799D01*
X00917768Y00742884D01*
X00917938Y00742989D01*
X00917959Y00743000D01*
X00918001Y00743053D01*
X00918064Y00743116D01*
X00918149Y00743211D01*
X00918223Y00743327D01*
X00918286Y00743465D01*
X00918329Y00743613D01*
X00918350Y00743771D01*
Y00743782D01*
Y00743824D01*
X00918339Y00743877D01*
X00918329Y00743940D01*
X00918307Y00744025D01*
X00918276Y00744109D01*
X00918233Y00744194D01*
X00918181Y00744268D01*
X00918170Y00744278D01*
X00918149Y00744300D01*
X00918107Y00744342D01*
X00918043Y00744384D01*
X00917959Y00744437D01*
X00917864Y00744500D01*
X00917737Y00744564D01*
X00917589Y00744616D01*
X00917578Y00744627D01*
X00917525Y00744638D01*
X00917494Y00744648D01*
X00917441Y00744659D01*
X00917388Y00744680D01*
X00917314Y00744701D01*
X00917240Y00744722D01*
X00917145Y00744754D01*
X00917039Y00744786D01*
X00916913Y00744817D01*
X00916775Y00744849D01*
X00916627Y00744891D01*
X00916458Y00744933D01*
X00916279Y00744976D01*
X00916268D01*
X00916226Y00744986D01*
X00916152Y00745007D01*
X00916067Y00745039D01*
X00915962Y00745071D01*
X00915835Y00745103D01*
X00915697Y00745145D01*
X00915550Y00745198D01*
X00915243Y00745314D01*
X00914937Y00745451D01*
X00914799Y00745525D01*
X00914662Y00745610D01*
X00914535Y00745694D01*
X00914430Y00745779D01*
X00914419Y00745789D01*
X00914398Y00745810D01*
X00914366Y00745853D01*
X00914313Y00745895D01*
X00914260Y00745969D01*
X00914197Y00746043D01*
X00914134Y00746138D01*
X00914060Y00746244D01*
X00913996Y00746349D01*
X00913922Y00746476D01*
X00913806Y00746761D01*
X00913753Y00746909D01*
X00913722Y00747078D01*
X00913700Y00747248D01*
X00913690Y00747427D01*
Y00747438D01*
Y00747459D01*
Y00747491D01*
X00913700Y00747533D01*
X00913711Y00747649D01*
X00913732Y00747797D01*
X00913774Y00747977D01*
X00913838Y00748167D01*
X00913922Y00748378D01*
X00914039Y00748579D01*
Y00748589D01*
X00914060Y00748600D01*
X00914102Y00748674D01*
X00914186Y00748769D01*
X00914292Y00748885D01*
X00914440Y00749023D01*
X00914609Y00749160D01*
X00914810Y00749297D01*
X00915042Y00749414D01*
X00915053D01*
X00915074Y00749424D01*
X00915106Y00749445D01*
X00915159Y00749456D01*
X00915222Y00749477D01*
X00915307Y00749509D01*
X00915391Y00749530D01*
X00915497Y00749562D01*
X00915602Y00749583D01*
X00915729Y00749604D01*
X00915993Y00749657D01*
X00916300Y00749688D01*
X00916638Y00749699D01*
X00916786D01*
X00916891Y00749688D01*
D02*
G37*
G36*
X00665111Y00779271D02*
X00663371D01*
Y00780326D01*
X00663359Y00780300D01*
X00663295Y00780237D01*
X00663219Y00780122D01*
X00663092Y00779995D01*
X00662952Y00779856D01*
X00662774Y00779703D01*
X00662584Y00779564D01*
X00662355Y00779424D01*
X00662343D01*
X00662330Y00779411D01*
X00662292Y00779398D01*
X00662254Y00779373D01*
X00662127Y00779322D01*
X00661962Y00779271D01*
X00661758Y00779208D01*
X00661530Y00779157D01*
X00661289Y00779119D01*
X00661034Y00779106D01*
X00660920D01*
X00660780Y00779119D01*
X00660603Y00779145D01*
X00660412Y00779183D01*
X00660196Y00779233D01*
X00659968Y00779310D01*
X00659752Y00779411D01*
X00659726Y00779424D01*
X00659663Y00779475D01*
X00659561Y00779538D01*
X00659447Y00779640D01*
X00659307Y00779767D01*
X00659168Y00779919D01*
X00659053Y00780084D01*
X00658939Y00780287D01*
Y00780300D01*
X00658926Y00780313D01*
X00658914Y00780351D01*
X00658901Y00780389D01*
X00658863Y00780516D01*
X00658825Y00780694D01*
X00658774Y00780922D01*
X00658736Y00781189D01*
X00658710Y00781507D01*
X00658698Y00781862D01*
Y00786345D01*
X00660565D01*
Y00783094D01*
Y00783082D01*
Y00783031D01*
Y00782954D01*
Y00782853D01*
Y00782739D01*
Y00782599D01*
X00660577Y00782307D01*
X00660590Y00781989D01*
X00660603Y00781684D01*
X00660615Y00781545D01*
X00660628Y00781431D01*
X00660654Y00781329D01*
X00660666Y00781253D01*
Y00781240D01*
X00660692Y00781202D01*
X00660717Y00781138D01*
X00660755Y00781062D01*
X00660806Y00780986D01*
X00660869Y00780897D01*
X00660946Y00780808D01*
X00661034Y00780732D01*
X00661047Y00780719D01*
X00661085Y00780707D01*
X00661149Y00780668D01*
X00661225Y00780643D01*
X00661327Y00780605D01*
X00661441Y00780567D01*
X00661581Y00780554D01*
X00661720Y00780542D01*
X00661796D01*
X00661898Y00780554D01*
X00662012Y00780580D01*
X00662139Y00780605D01*
X00662292Y00780643D01*
X00662431Y00780707D01*
X00662584Y00780796D01*
X00662597Y00780808D01*
X00662647Y00780846D01*
X00662711Y00780897D01*
X00662787Y00780973D01*
X00662876Y00781075D01*
X00662965Y00781177D01*
X00663041Y00781303D01*
X00663105Y00781443D01*
X00663117Y00781469D01*
Y00781494D01*
X00663130Y00781532D01*
X00663143Y00781583D01*
X00663155Y00781646D01*
X00663168Y00781735D01*
X00663181Y00781837D01*
X00663194Y00781951D01*
X00663206Y00782091D01*
Y00782243D01*
X00663219Y00782421D01*
X00663232Y00782624D01*
X00663244Y00782840D01*
Y00783094D01*
Y00783361D01*
Y00786345D01*
X00665111D01*
Y00779271D01*
D02*
G37*
G36*
X00669861Y00786498D02*
X00669975D01*
X00670115Y00786485D01*
X00670267Y00786472D01*
X00670433Y00786447D01*
X00670788Y00786396D01*
X00671144Y00786307D01*
X00671487Y00786193D01*
X00671639Y00786117D01*
X00671779Y00786028D01*
X00671791D01*
X00671804Y00786003D01*
X00671842Y00785977D01*
X00671893Y00785939D01*
X00672020Y00785837D01*
X00672172Y00785685D01*
X00672325Y00785482D01*
X00672490Y00785240D01*
X00672642Y00784961D01*
X00672757Y00784644D01*
X00670991Y00784313D01*
Y00784326D01*
X00670966Y00784377D01*
X00670940Y00784453D01*
X00670890Y00784542D01*
X00670839Y00784644D01*
X00670763Y00784745D01*
X00670674Y00784847D01*
X00670559Y00784936D01*
X00670547Y00784948D01*
X00670496Y00784974D01*
X00670433Y00785012D01*
X00670331Y00785050D01*
X00670204Y00785088D01*
X00670051Y00785126D01*
X00669861Y00785152D01*
X00669658Y00785164D01*
X00669531D01*
X00669404Y00785152D01*
X00669239Y00785139D01*
X00669074Y00785114D01*
X00668896Y00785075D01*
X00668731Y00785025D01*
X00668591Y00784948D01*
X00668578D01*
X00668566Y00784923D01*
X00668489Y00784847D01*
X00668426Y00784733D01*
X00668400Y00784656D01*
X00668388Y00784567D01*
Y00784555D01*
Y00784529D01*
X00668400Y00784491D01*
X00668413Y00784453D01*
X00668464Y00784339D01*
X00668502Y00784275D01*
X00668566Y00784224D01*
X00668578Y00784212D01*
X00668629Y00784186D01*
X00668667Y00784174D01*
X00668731Y00784148D01*
X00668794Y00784123D01*
X00668883Y00784098D01*
X00668985Y00784059D01*
X00669112Y00784021D01*
X00669251Y00783983D01*
X00669417Y00783932D01*
X00669594Y00783882D01*
X00669810Y00783831D01*
X00670051Y00783767D01*
X00670318Y00783704D01*
X00670331D01*
X00670382Y00783691D01*
X00670458Y00783666D01*
X00670559Y00783640D01*
X00670686Y00783615D01*
X00670826Y00783564D01*
X00670979Y00783526D01*
X00671144Y00783475D01*
X00671487Y00783348D01*
X00671830Y00783208D01*
X00671995Y00783132D01*
X00672147Y00783043D01*
X00672287Y00782954D01*
X00672401Y00782866D01*
X00672414D01*
X00672426Y00782840D01*
X00672490Y00782777D01*
X00672591Y00782662D01*
X00672706Y00782510D01*
X00672807Y00782307D01*
X00672909Y00782066D01*
X00672972Y00781786D01*
X00672998Y00781634D01*
Y00781469D01*
Y00781456D01*
Y00781431D01*
Y00781380D01*
X00672985Y00781303D01*
X00672972Y00781227D01*
X00672960Y00781126D01*
X00672896Y00780897D01*
X00672795Y00780643D01*
X00672731Y00780503D01*
X00672655Y00780364D01*
X00672566Y00780224D01*
X00672452Y00780072D01*
X00672325Y00779945D01*
X00672185Y00779805D01*
X00672172Y00779792D01*
X00672147Y00779780D01*
X00672096Y00779741D01*
X00672033Y00779691D01*
X00671944Y00779640D01*
X00671842Y00779589D01*
X00671715Y00779526D01*
X00671575Y00779462D01*
X00671423Y00779386D01*
X00671245Y00779322D01*
X00671042Y00779271D01*
X00670826Y00779221D01*
X00670585Y00779170D01*
X00670331Y00779132D01*
X00670064Y00779119D01*
X00669772Y00779106D01*
X00669632D01*
X00669531Y00779119D01*
X00669417D01*
X00669277Y00779132D01*
X00669112Y00779157D01*
X00668947Y00779183D01*
X00668578Y00779246D01*
X00668197Y00779348D01*
X00667829Y00779487D01*
X00667651Y00779576D01*
X00667486Y00779678D01*
X00667473Y00779691D01*
X00667448Y00779703D01*
X00667410Y00779741D01*
X00667346Y00779780D01*
X00667283Y00779843D01*
X00667207Y00779919D01*
X00667042Y00780097D01*
X00666851Y00780326D01*
X00666673Y00780592D01*
X00666508Y00780910D01*
X00666445Y00781088D01*
X00666394Y00781265D01*
X00668273Y00781557D01*
Y00781532D01*
X00668299Y00781469D01*
X00668324Y00781367D01*
X00668375Y00781253D01*
X00668439Y00781113D01*
X00668515Y00780973D01*
X00668616Y00780846D01*
X00668743Y00780732D01*
X00668756Y00780719D01*
X00668807Y00780694D01*
X00668896Y00780643D01*
X00669010Y00780592D01*
X00669163Y00780542D01*
X00669328Y00780491D01*
X00669544Y00780465D01*
X00669772Y00780453D01*
X00669886D01*
X00670026Y00780465D01*
X00670179Y00780491D01*
X00670356Y00780516D01*
X00670534Y00780567D01*
X00670712Y00780630D01*
X00670864Y00780719D01*
X00670877Y00780732D01*
X00670902Y00780757D01*
X00670940Y00780796D01*
X00670991Y00780846D01*
X00671042Y00780922D01*
X00671080Y00780999D01*
X00671106Y00781100D01*
X00671118Y00781215D01*
Y00781227D01*
Y00781253D01*
X00671106Y00781291D01*
Y00781342D01*
X00671055Y00781456D01*
X00671029Y00781519D01*
X00670979Y00781570D01*
X00670966D01*
X00670953Y00781596D01*
X00670915Y00781621D01*
X00670852Y00781646D01*
X00670763Y00781684D01*
X00670661Y00781723D01*
X00670521Y00781773D01*
X00670356Y00781812D01*
X00670331D01*
X00670255Y00781837D01*
X00670140Y00781862D01*
X00669988Y00781900D01*
X00669810Y00781938D01*
X00669607Y00781989D01*
X00669378Y00782053D01*
X00669150Y00782116D01*
X00668654Y00782256D01*
X00668413Y00782332D01*
X00668185Y00782408D01*
X00667969Y00782497D01*
X00667778Y00782573D01*
X00667613Y00782650D01*
X00667486Y00782726D01*
X00667473Y00782739D01*
X00667448Y00782751D01*
X00667410Y00782789D01*
X00667359Y00782828D01*
X00667296Y00782891D01*
X00667219Y00782967D01*
X00667067Y00783145D01*
X00666915Y00783374D01*
X00666775Y00783653D01*
X00666724Y00783805D01*
X00666686Y00783970D01*
X00666661Y00784136D01*
X00666648Y00784326D01*
Y00784339D01*
Y00784364D01*
Y00784415D01*
X00666661Y00784479D01*
X00666673Y00784555D01*
X00666686Y00784656D01*
X00666737Y00784872D01*
X00666826Y00785114D01*
X00666889Y00785240D01*
X00666953Y00785368D01*
X00667042Y00785507D01*
X00667131Y00785634D01*
X00667245Y00785761D01*
X00667372Y00785875D01*
X00667384Y00785888D01*
X00667410Y00785901D01*
X00667448Y00785939D01*
X00667512Y00785977D01*
X00667588Y00786028D01*
X00667677Y00786079D01*
X00667791Y00786130D01*
X00667931Y00786193D01*
X00668070Y00786256D01*
X00668235Y00786307D01*
X00668426Y00786358D01*
X00668629Y00786409D01*
X00668845Y00786447D01*
X00669086Y00786485D01*
X00669340Y00786498D01*
X00669620Y00786510D01*
X00669759D01*
X00669861Y00786498D01*
D02*
G37*
G36*
X00636676Y00789203D02*
X00636828Y00789190D01*
X00637006Y00789177D01*
X00637197Y00789152D01*
X00637412Y00789114D01*
X00637857Y00789012D01*
X00638086Y00788949D01*
X00638314Y00788873D01*
X00638543Y00788784D01*
X00638759Y00788670D01*
X00638962Y00788542D01*
X00639140Y00788403D01*
X00639152Y00788390D01*
X00639178Y00788365D01*
X00639229Y00788327D01*
X00639292Y00788263D01*
X00639356Y00788174D01*
X00639432Y00788085D01*
X00639521Y00787971D01*
X00639610Y00787831D01*
X00639698Y00787692D01*
X00639787Y00787526D01*
X00639864Y00787349D01*
X00639940Y00787158D01*
X00640003Y00786955D01*
X00640067Y00786739D01*
X00640105Y00786498D01*
X00640118Y00786256D01*
X00638149Y00786180D01*
Y00786193D01*
Y00786218D01*
X00638136Y00786256D01*
X00638124Y00786307D01*
X00638086Y00786434D01*
X00638035Y00786599D01*
X00637959Y00786777D01*
X00637870Y00786955D01*
X00637743Y00787120D01*
X00637603Y00787260D01*
X00637578Y00787272D01*
X00637527Y00787311D01*
X00637425Y00787361D01*
X00637285Y00787425D01*
X00637120Y00787488D01*
X00636904Y00787539D01*
X00636651Y00787577D01*
X00636358Y00787590D01*
X00636219D01*
X00636143Y00787577D01*
X00636066D01*
X00635863Y00787552D01*
X00635647Y00787501D01*
X00635431Y00787438D01*
X00635203Y00787349D01*
X00635012Y00787234D01*
X00635000Y00787222D01*
X00634961Y00787196D01*
X00634911Y00787145D01*
X00634860Y00787069D01*
X00634809Y00786980D01*
X00634758Y00786879D01*
X00634720Y00786765D01*
X00634707Y00786625D01*
Y00786612D01*
Y00786574D01*
X00634720Y00786498D01*
X00634745Y00786422D01*
X00634784Y00786333D01*
X00634834Y00786231D01*
X00634898Y00786130D01*
X00635000Y00786028D01*
X00635012Y00786015D01*
X00635038Y00786003D01*
X00635076Y00785977D01*
X00635126Y00785952D01*
X00635190Y00785914D01*
X00635266Y00785875D01*
X00635368Y00785837D01*
X00635469Y00785787D01*
X00635596Y00785736D01*
X00635749Y00785685D01*
X00635914Y00785621D01*
X00636104Y00785571D01*
X00636308Y00785507D01*
X00636549Y00785444D01*
X00636803Y00785380D01*
X00636816D01*
X00636866Y00785368D01*
X00636943Y00785342D01*
X00637044Y00785317D01*
X00637159Y00785291D01*
X00637298Y00785253D01*
X00637451Y00785215D01*
X00637603Y00785164D01*
X00637946Y00785050D01*
X00638302Y00784936D01*
X00638632Y00784809D01*
X00638784Y00784733D01*
X00638924Y00784669D01*
X00638937D01*
X00638949Y00784656D01*
X00638987Y00784631D01*
X00639038Y00784605D01*
X00639165Y00784517D01*
X00639318Y00784402D01*
X00639495Y00784263D01*
X00639673Y00784085D01*
X00639838Y00783894D01*
X00640003Y00783666D01*
Y00783653D01*
X00640016Y00783640D01*
X00640041Y00783602D01*
X00640067Y00783551D01*
X00640092Y00783488D01*
X00640130Y00783424D01*
X00640207Y00783234D01*
X00640270Y00783018D01*
X00640333Y00782751D01*
X00640384Y00782447D01*
X00640397Y00782116D01*
Y00782104D01*
Y00782078D01*
Y00782027D01*
X00640384Y00781977D01*
Y00781900D01*
X00640372Y00781812D01*
X00640333Y00781596D01*
X00640283Y00781354D01*
X00640194Y00781088D01*
X00640079Y00780808D01*
X00639927Y00780529D01*
Y00780516D01*
X00639902Y00780503D01*
X00639876Y00780465D01*
X00639838Y00780415D01*
X00639737Y00780287D01*
X00639584Y00780122D01*
X00639394Y00779945D01*
X00639178Y00779767D01*
X00638911Y00779602D01*
X00638606Y00779449D01*
X00638594D01*
X00638568Y00779437D01*
X00638517Y00779411D01*
X00638454Y00779398D01*
X00638365Y00779373D01*
X00638276Y00779335D01*
X00638149Y00779310D01*
X00638022Y00779271D01*
X00637870Y00779233D01*
X00637717Y00779208D01*
X00637539Y00779183D01*
X00637349Y00779145D01*
X00636943Y00779106D01*
X00636485Y00779094D01*
X00636308D01*
X00636181Y00779106D01*
X00636028Y00779119D01*
X00635850Y00779145D01*
X00635647Y00779170D01*
X00635431Y00779195D01*
X00634974Y00779297D01*
X00634745Y00779373D01*
X00634504Y00779449D01*
X00634276Y00779551D01*
X00634047Y00779665D01*
X00633831Y00779792D01*
X00633641Y00779945D01*
X00633628Y00779957D01*
X00633602Y00779983D01*
X00633552Y00780033D01*
X00633488Y00780110D01*
X00633399Y00780199D01*
X00633323Y00780300D01*
X00633222Y00780427D01*
X00633120Y00780580D01*
X00633018Y00780745D01*
X00632917Y00780922D01*
X00632815Y00781126D01*
X00632726Y00781354D01*
X00632637Y00781596D01*
X00632561Y00781862D01*
X00632510Y00782142D01*
X00632459Y00782434D01*
X00634377Y00782624D01*
Y00782612D01*
X00634390Y00782586D01*
X00634403Y00782535D01*
X00634415Y00782472D01*
X00634428Y00782383D01*
X00634453Y00782294D01*
X00634530Y00782091D01*
X00634618Y00781850D01*
X00634745Y00781621D01*
X00634898Y00781392D01*
X00635076Y00781202D01*
X00635101Y00781189D01*
X00635177Y00781138D01*
X00635292Y00781062D01*
X00635457Y00780986D01*
X00635660Y00780897D01*
X00635901Y00780834D01*
X00636181Y00780783D01*
X00636498Y00780757D01*
X00636587D01*
X00636651Y00780770D01*
X00636739D01*
X00636828Y00780783D01*
X00637032Y00780808D01*
X00637273Y00780859D01*
X00637501Y00780922D01*
X00637730Y00781024D01*
X00637933Y00781151D01*
X00637959Y00781164D01*
X00638009Y00781227D01*
X00638086Y00781303D01*
X00638187Y00781418D01*
X00638276Y00781557D01*
X00638352Y00781723D01*
X00638403Y00781900D01*
X00638428Y00782091D01*
Y00782104D01*
Y00782154D01*
X00638416Y00782218D01*
X00638403Y00782294D01*
X00638378Y00782396D01*
X00638340Y00782497D01*
X00638289Y00782599D01*
X00638225Y00782688D01*
X00638213Y00782701D01*
X00638187Y00782726D01*
X00638136Y00782777D01*
X00638060Y00782828D01*
X00637959Y00782891D01*
X00637844Y00782967D01*
X00637692Y00783043D01*
X00637514Y00783107D01*
X00637501Y00783120D01*
X00637438Y00783132D01*
X00637400Y00783145D01*
X00637336Y00783158D01*
X00637273Y00783183D01*
X00637184Y00783208D01*
X00637095Y00783234D01*
X00636981Y00783272D01*
X00636854Y00783310D01*
X00636701Y00783348D01*
X00636536Y00783386D01*
X00636358Y00783437D01*
X00636155Y00783488D01*
X00635939Y00783539D01*
X00635927D01*
X00635876Y00783551D01*
X00635787Y00783577D01*
X00635685Y00783615D01*
X00635558Y00783653D01*
X00635406Y00783691D01*
X00635241Y00783742D01*
X00635063Y00783805D01*
X00634695Y00783945D01*
X00634326Y00784110D01*
X00634161Y00784199D01*
X00633996Y00784301D01*
X00633844Y00784402D01*
X00633717Y00784504D01*
X00633704Y00784517D01*
X00633679Y00784542D01*
X00633641Y00784593D01*
X00633577Y00784644D01*
X00633514Y00784733D01*
X00633437Y00784821D01*
X00633361Y00784936D01*
X00633272Y00785063D01*
X00633196Y00785190D01*
X00633107Y00785342D01*
X00632967Y00785685D01*
X00632904Y00785863D01*
X00632866Y00786066D01*
X00632840Y00786269D01*
X00632828Y00786485D01*
Y00786498D01*
Y00786523D01*
Y00786561D01*
X00632840Y00786612D01*
X00632853Y00786752D01*
X00632879Y00786930D01*
X00632929Y00787145D01*
X00633006Y00787374D01*
X00633107Y00787628D01*
X00633247Y00787869D01*
Y00787882D01*
X00633272Y00787895D01*
X00633323Y00787984D01*
X00633425Y00788098D01*
X00633552Y00788238D01*
X00633730Y00788403D01*
X00633933Y00788568D01*
X00634174Y00788733D01*
X00634453Y00788873D01*
X00634466D01*
X00634492Y00788885D01*
X00634530Y00788911D01*
X00634593Y00788923D01*
X00634669Y00788949D01*
X00634771Y00788987D01*
X00634873Y00789012D01*
X00635000Y00789051D01*
X00635126Y00789076D01*
X00635279Y00789101D01*
X00635596Y00789165D01*
X00635965Y00789203D01*
X00636371Y00789216D01*
X00636549D01*
X00636676Y00789203D01*
D02*
G37*
G36*
X00931251Y00742799D02*
X00935330D01*
Y00741425D01*
X00929613D01*
Y00749488D01*
X00931251D01*
Y00742799D01*
D02*
G37*
G36*
X00925165Y00749540D02*
X00925397Y00749530D01*
X00925640Y00749519D01*
X00925862Y00749498D01*
X00925968Y00749477D01*
X00926063Y00749466D01*
X00926084D01*
X00926148Y00749445D01*
X00926232Y00749424D01*
X00926348Y00749393D01*
X00926475Y00749350D01*
X00926623Y00749287D01*
X00926771Y00749213D01*
X00926908Y00749128D01*
X00926930Y00749118D01*
X00926972Y00749086D01*
X00927035Y00749023D01*
X00927130Y00748949D01*
X00927225Y00748854D01*
X00927331Y00748737D01*
X00927437Y00748600D01*
X00927532Y00748452D01*
X00927542Y00748431D01*
X00927574Y00748378D01*
X00927616Y00748294D01*
X00927659Y00748177D01*
X00927701Y00748029D01*
X00927743Y00747871D01*
X00927775Y00747691D01*
X00927785Y00747501D01*
Y00747491D01*
Y00747480D01*
Y00747448D01*
Y00747406D01*
X00927775Y00747300D01*
X00927743Y00747152D01*
X00927711Y00746994D01*
X00927659Y00746814D01*
X00927585Y00746635D01*
X00927479Y00746455D01*
X00927468Y00746434D01*
X00927426Y00746381D01*
X00927352Y00746297D01*
X00927257Y00746191D01*
X00927141Y00746075D01*
X00926993Y00745948D01*
X00926834Y00745842D01*
X00926644Y00745737D01*
X00926655D01*
X00926676Y00745726D01*
X00926718Y00745715D01*
X00926771Y00745694D01*
X00926824Y00745673D01*
X00926898Y00745641D01*
X00927067Y00745557D01*
X00927247Y00745462D01*
X00927437Y00745335D01*
X00927616Y00745177D01*
X00927785Y00744997D01*
Y00744986D01*
X00927807Y00744976D01*
X00927828Y00744944D01*
X00927849Y00744902D01*
X00927912Y00744796D01*
X00927986Y00744648D01*
X00928060Y00744469D01*
X00928124Y00744257D01*
X00928166Y00744025D01*
X00928187Y00743771D01*
Y00743761D01*
Y00743750D01*
Y00743718D01*
Y00743676D01*
X00928176Y00743570D01*
X00928155Y00743433D01*
X00928124Y00743264D01*
X00928071Y00743084D01*
X00928007Y00742894D01*
X00927923Y00742693D01*
Y00742683D01*
X00927912Y00742672D01*
X00927881Y00742609D01*
X00927817Y00742514D01*
X00927743Y00742398D01*
X00927638Y00742260D01*
X00927521Y00742123D01*
X00927373Y00741985D01*
X00927215Y00741859D01*
X00927194Y00741848D01*
X00927141Y00741806D01*
X00927035Y00741753D01*
X00926908Y00741700D01*
X00926750Y00741626D01*
X00926560Y00741573D01*
X00926348Y00741521D01*
X00926116Y00741478D01*
X00926074D01*
X00926031Y00741468D01*
X00925905D01*
X00925820Y00741457D01*
X00925714D01*
X00925598Y00741447D01*
X00925292D01*
X00925112Y00741436D01*
X00924679D01*
X00924425Y00741425D01*
X00921382D01*
Y00749551D01*
X00924954D01*
X00925165Y00749540D01*
D02*
G37*
%LPC*%
G36*
X00801976Y01050578D02*
X00801968Y01050574D01*
X00801943Y01050565D01*
X00801901Y01050549D01*
X00801847Y01050528D01*
X00801772Y01050503D01*
X00801685Y01050478D01*
X00801576Y01050457D01*
X00801455Y01050432D01*
X00801447D01*
X00801422Y01050424D01*
X00801389Y01050420D01*
X00801347Y01050407D01*
X00801255Y01050382D01*
X00801210Y01050365D01*
X00801176Y01050349D01*
X00801172D01*
X00801164Y01050340D01*
X00801147Y01050332D01*
X00801131Y01050320D01*
X00801089Y01050278D01*
X00801051Y01050224D01*
Y01050220D01*
X00801043Y01050211D01*
X00801039Y01050195D01*
X00801031Y01050170D01*
X00801022Y01050145D01*
X00801018Y01050111D01*
X00801010Y01050036D01*
Y01050028D01*
Y01050011D01*
X00801014Y01049978D01*
X00801022Y01049945D01*
X00801035Y01049903D01*
X00801051Y01049857D01*
X00801076Y01049816D01*
X00801110Y01049774D01*
X00801114Y01049770D01*
X00801126Y01049757D01*
X00801151Y01049745D01*
X00801180Y01049728D01*
X00801222Y01049707D01*
X00801268Y01049695D01*
X00801326Y01049682D01*
X00801389Y01049678D01*
X00801418D01*
X00801451Y01049682D01*
X00801493Y01049691D01*
X00801539Y01049699D01*
X00801593Y01049716D01*
X00801643Y01049736D01*
X00801697Y01049766D01*
X00801705Y01049770D01*
X00801722Y01049782D01*
X00801747Y01049803D01*
X00801776Y01049828D01*
X00801809Y01049861D01*
X00801843Y01049903D01*
X00801876Y01049949D01*
X00801905Y01049999D01*
X00801909Y01050007D01*
X00801918Y01050028D01*
X00801926Y01050061D01*
X00801943Y01050111D01*
X00801955Y01050170D01*
X00801964Y01050245D01*
X00801972Y01050332D01*
X00801976Y01050432D01*
Y01050578D01*
D02*
G37*
G36*
X00817647Y01051449D02*
X00817626D01*
X00817614Y01051444D01*
X00817572Y01051440D01*
X00817522Y01051428D01*
X00817464Y01051407D01*
X00817405Y01051374D01*
X00817343Y01051328D01*
X00817314Y01051303D01*
X00817285Y01051269D01*
X00817276Y01051261D01*
X00817260Y01051236D01*
X00817235Y01051199D01*
X00817210Y01051144D01*
X00817176Y01051078D01*
X00817151Y01050994D01*
X00817131Y01050903D01*
X00817118Y01050795D01*
X00818168D01*
Y01050799D01*
Y01050807D01*
X00818164Y01050824D01*
Y01050844D01*
X00818159Y01050870D01*
X00818155Y01050894D01*
X00818143Y01050961D01*
X00818126Y01051032D01*
X00818101Y01051107D01*
X00818076Y01051173D01*
X00818039Y01051236D01*
Y01051240D01*
X00818030Y01051244D01*
X00818009Y01051269D01*
X00817976Y01051303D01*
X00817930Y01051344D01*
X00817876Y01051382D01*
X00817810Y01051415D01*
X00817730Y01051440D01*
X00817689Y01051444D01*
X00817647Y01051449D01*
D02*
G37*
G36*
X00924721Y00744965D02*
X00923020D01*
Y00742799D01*
X00924837D01*
X00925017Y00742810D01*
X00925207D01*
X00925387Y00742820D01*
X00925471D01*
X00925545Y00742831D01*
X00925609D01*
X00925662Y00742841D01*
X00925683D01*
X00925725Y00742852D01*
X00925788Y00742873D01*
X00925873Y00742905D01*
X00925968Y00742947D01*
X00926074Y00743000D01*
X00926169Y00743074D01*
X00926264Y00743158D01*
X00926274Y00743169D01*
X00926296Y00743211D01*
X00926338Y00743264D01*
X00926380Y00743349D01*
X00926422Y00743444D01*
X00926465Y00743560D01*
X00926486Y00743697D01*
X00926496Y00743856D01*
Y00743877D01*
Y00743919D01*
X00926486Y00743983D01*
X00926475Y00744067D01*
X00926454Y00744162D01*
X00926422Y00744268D01*
X00926380Y00744373D01*
X00926317Y00744469D01*
X00926306Y00744479D01*
X00926285Y00744511D01*
X00926243Y00744564D01*
X00926190Y00744616D01*
X00926116Y00744680D01*
X00926021Y00744743D01*
X00925915Y00744796D01*
X00925799Y00744849D01*
X00925778Y00744860D01*
X00925725Y00744870D01*
X00925683Y00744881D01*
X00925630Y00744891D01*
X00925567Y00744902D01*
X00925493Y00744912D01*
X00925397Y00744923D01*
X00925292Y00744933D01*
X00925176D01*
X00925038Y00744944D01*
X00924890Y00744955D01*
X00924721Y00744965D01*
D02*
G37*
G36*
X00924668Y00748199D02*
X00923020D01*
Y00746318D01*
X00924594D01*
X00924806Y00746328D01*
X00925165D01*
X00925228Y00746339D01*
X00925302D01*
X00925355Y00746349D01*
X00925429Y00746371D01*
X00925524Y00746392D01*
X00925630Y00746434D01*
X00925736Y00746487D01*
X00925852Y00746550D01*
X00925947Y00746635D01*
X00925957Y00746645D01*
X00925989Y00746677D01*
X00926021Y00746730D01*
X00926074Y00746804D01*
X00926116Y00746899D01*
X00926148Y00747005D01*
X00926179Y00747131D01*
X00926190Y00747269D01*
Y00747290D01*
Y00747332D01*
X00926179Y00747406D01*
X00926169Y00747491D01*
X00926137Y00747586D01*
X00926105Y00747691D01*
X00926053Y00747786D01*
X00925979Y00747882D01*
X00925968Y00747892D01*
X00925936Y00747924D01*
X00925894Y00747955D01*
X00925820Y00748008D01*
X00925736Y00748051D01*
X00925630Y00748103D01*
X00925503Y00748135D01*
X00925355Y00748167D01*
X00925345D01*
X00925302Y00748177D01*
X00925165D01*
X00925091Y00748188D01*
X00924795D01*
X00924668Y00748199D01*
D02*
G37*
G36*
X00676101Y00527625D02*
X00674903D01*
Y00525077D01*
X00676136D01*
X00676240Y00525089D01*
X00676461Y00525101D01*
X00676694Y00525112D01*
X00676927Y00525136D01*
X00677043Y00525147D01*
X00677136Y00525171D01*
X00677229Y00525194D01*
X00677299Y00525217D01*
X00677311Y00525229D01*
X00677357Y00525240D01*
X00677427Y00525275D01*
X00677508Y00525322D01*
X00677601Y00525380D01*
X00677695Y00525461D01*
X00677788Y00525543D01*
X00677869Y00525648D01*
X00677881Y00525659D01*
X00677904Y00525706D01*
X00677939Y00525764D01*
X00677974Y00525845D01*
X00678009Y00525950D01*
X00678044Y00526078D01*
X00678067Y00526206D01*
X00678079Y00526357D01*
Y00526380D01*
Y00526438D01*
X00678067Y00526532D01*
X00678044Y00526636D01*
X00678009Y00526764D01*
X00677951Y00526904D01*
X00677881Y00527032D01*
X00677788Y00527160D01*
X00677776Y00527171D01*
X00677741Y00527206D01*
X00677671Y00527265D01*
X00677590Y00527323D01*
X00677485Y00527392D01*
X00677357Y00527462D01*
X00677218Y00527520D01*
X00677066Y00527555D01*
X00677055D01*
X00676997Y00527567D01*
X00676915Y00527579D01*
X00676787Y00527590D01*
X00676694Y00527602D01*
X00676601D01*
X00676496Y00527613D01*
X00676252D01*
X00676101Y00527625D01*
D02*
G37*
G36*
X00650493Y00782650D02*
X00650481D01*
X00650430Y00782624D01*
X00650341Y00782599D01*
X00650214Y00782561D01*
X00650049Y00782523D01*
X00649846Y00782472D01*
X00649617Y00782421D01*
X00649338Y00782358D01*
X00649325D01*
X00649300Y00782345D01*
X00649262D01*
X00649211Y00782332D01*
X00649084Y00782294D01*
X00648919Y00782256D01*
X00648754Y00782205D01*
X00648588Y00782154D01*
X00648436Y00782104D01*
X00648322Y00782040D01*
X00648309Y00782027D01*
X00648271Y00781989D01*
X00648207Y00781938D01*
X00648144Y00781862D01*
X00648081Y00781761D01*
X00648017Y00781646D01*
X00647979Y00781519D01*
X00647966Y00781380D01*
Y00781367D01*
Y00781316D01*
X00647979Y00781240D01*
X00648004Y00781151D01*
X00648042Y00781037D01*
X00648093Y00780935D01*
X00648157Y00780821D01*
X00648258Y00780707D01*
X00648271Y00780694D01*
X00648309Y00780668D01*
X00648373Y00780618D01*
X00648462Y00780567D01*
X00648563Y00780516D01*
X00648690Y00780465D01*
X00648830Y00780440D01*
X00648995Y00780427D01*
X00649084D01*
X00649185Y00780440D01*
X00649312Y00780465D01*
X00649452Y00780503D01*
X00649617Y00780567D01*
X00649795Y00780643D01*
X00649973Y00780757D01*
X00649986Y00780770D01*
X00650024Y00780796D01*
X00650087Y00780859D01*
X00650151Y00780922D01*
X00650227Y00781011D01*
X00650303Y00781113D01*
X00650367Y00781240D01*
X00650417Y00781367D01*
Y00781380D01*
X00650430Y00781418D01*
X00650443Y00781481D01*
X00650455Y00781570D01*
X00650468Y00781697D01*
X00650481Y00781850D01*
X00650493Y00782040D01*
Y00782269D01*
Y00782650D01*
D02*
G37*
G36*
X00908061Y00533162D02*
X00908050D01*
X00908008Y00533141D01*
X00907934Y00533120D01*
X00907828Y00533088D01*
X00907691Y00533056D01*
X00907522Y00533014D01*
X00907332Y00532972D01*
X00907099Y00532919D01*
X00907089D01*
X00907068Y00532909D01*
X00907036D01*
X00906994Y00532898D01*
X00906888Y00532866D01*
X00906751Y00532835D01*
X00906613Y00532792D01*
X00906476Y00532750D01*
X00906349Y00532708D01*
X00906254Y00532655D01*
X00906244Y00532644D01*
X00906212Y00532613D01*
X00906159Y00532570D01*
X00906106Y00532507D01*
X00906053Y00532422D01*
X00906000Y00532327D01*
X00905969Y00532222D01*
X00905958Y00532105D01*
Y00532095D01*
Y00532053D01*
X00905969Y00531989D01*
X00905990Y00531915D01*
X00906022Y00531820D01*
X00906064Y00531736D01*
X00906117Y00531641D01*
X00906201Y00531545D01*
X00906212Y00531535D01*
X00906244Y00531514D01*
X00906296Y00531471D01*
X00906370Y00531429D01*
X00906455Y00531387D01*
X00906560Y00531345D01*
X00906677Y00531324D01*
X00906814Y00531313D01*
X00906888D01*
X00906973Y00531324D01*
X00907078Y00531345D01*
X00907194Y00531376D01*
X00907332Y00531429D01*
X00907480Y00531493D01*
X00907628Y00531588D01*
X00907638Y00531598D01*
X00907670Y00531619D01*
X00907723Y00531672D01*
X00907776Y00531725D01*
X00907839Y00531799D01*
X00907902Y00531884D01*
X00907955Y00531989D01*
X00907998Y00532095D01*
Y00532105D01*
X00908008Y00532137D01*
X00908019Y00532190D01*
X00908029Y00532264D01*
X00908040Y00532370D01*
X00908050Y00532496D01*
X00908061Y00532655D01*
Y00532845D01*
Y00533162D01*
D02*
G37*
G36*
X00898351Y00527625D02*
X00897153D01*
Y00525077D01*
X00898386D01*
X00898491Y00525089D01*
X00898711Y00525101D01*
X00898944Y00525112D01*
X00899177Y00525136D01*
X00899293Y00525147D01*
X00899386Y00525171D01*
X00899479Y00525194D01*
X00899549Y00525217D01*
X00899561Y00525229D01*
X00899607Y00525240D01*
X00899677Y00525275D01*
X00899759Y00525322D01*
X00899852Y00525380D01*
X00899945Y00525461D01*
X00900038Y00525543D01*
X00900119Y00525648D01*
X00900131Y00525659D01*
X00900154Y00525706D01*
X00900189Y00525764D01*
X00900224Y00525845D01*
X00900259Y00525950D01*
X00900294Y00526078D01*
X00900317Y00526206D01*
X00900329Y00526357D01*
Y00526380D01*
Y00526438D01*
X00900317Y00526532D01*
X00900294Y00526636D01*
X00900259Y00526764D01*
X00900201Y00526904D01*
X00900131Y00527032D01*
X00900038Y00527160D01*
X00900026Y00527171D01*
X00899991Y00527206D01*
X00899921Y00527265D01*
X00899840Y00527323D01*
X00899735Y00527392D01*
X00899607Y00527462D01*
X00899468Y00527520D01*
X00899316Y00527555D01*
X00899305D01*
X00899247Y00527567D01*
X00899165Y00527579D01*
X00899037Y00527590D01*
X00898944Y00527602D01*
X00898851D01*
X00898746Y00527613D01*
X00898502D01*
X00898351Y00527625D01*
D02*
G37*
G36*
X00770439Y00754459D02*
X00765361D01*
X00765235Y00754417D01*
X00765086Y00754374D01*
X00765044Y00754353D01*
X00764959Y00754332D01*
X00764811Y00754268D01*
X00764663Y00754184D01*
X00764621Y00754163D01*
X00764536Y00754099D01*
X00764430Y00753993D01*
X00764282Y00753845D01*
X00764261Y00753803D01*
X00764177Y00753718D01*
X00764092Y00753570D01*
X00764007Y00753359D01*
X00761003Y00744578D01*
Y00744557D01*
X00760982Y00744536D01*
X00760960Y00744388D01*
X00760939Y00744218D01*
Y00744049D01*
X00760960Y00744028D01*
X00760982Y00743943D01*
X00761045Y00743837D01*
X00761109Y00743732D01*
X00761130Y00743710D01*
X00761193Y00743668D01*
X00761278Y00743605D01*
X00761405Y00743541D01*
X00761447D01*
X00761511Y00743520D01*
X00761616Y00743499D01*
X00766927D01*
X00767033Y00743520D01*
X00767160D01*
X00767477Y00743541D01*
X00767858Y00743605D01*
X00768260Y00743668D01*
X00768704Y00743774D01*
X00769170Y00743901D01*
X00769191D01*
X00769233Y00743922D01*
X00769297Y00743943D01*
X00769381Y00743986D01*
X00769614Y00744070D01*
X00769910Y00744218D01*
X00770270Y00744366D01*
X00770651Y00744578D01*
X00771074Y00744811D01*
X00771476Y00745086D01*
X00771497D01*
X00771518Y00745128D01*
X00771582Y00745170D01*
X00771667Y00745213D01*
X00771857Y00745382D01*
X00772111Y00745572D01*
X00772407Y00745826D01*
X00772725Y00746123D01*
X00773042Y00746440D01*
X00773338Y00746800D01*
Y00746821D01*
X00773380Y00746842D01*
X00773465Y00746969D01*
X00773613Y00747180D01*
X00773782Y00747434D01*
X00773994Y00747752D01*
X00774184Y00748111D01*
X00774375Y00748513D01*
X00774544Y00748937D01*
Y00748958D01*
X00774565Y00748979D01*
X00774586Y00749042D01*
X00774608Y00749127D01*
X00774650Y00749360D01*
X00774713Y00749635D01*
X00774777Y00749973D01*
X00774819Y00750333D01*
Y00750693D01*
X00774798Y00751074D01*
Y00751095D01*
Y00751116D01*
X00774777Y00751243D01*
X00774734Y00751433D01*
X00774671Y00751666D01*
X00774565Y00751941D01*
X00774460Y00752237D01*
X00774290Y00752533D01*
X00774100Y00752830D01*
X00774079Y00752872D01*
X00773994Y00752957D01*
X00773867Y00753084D01*
X00773698Y00753274D01*
X00773486Y00753464D01*
X00773232Y00753655D01*
X00772936Y00753845D01*
X00772598Y00754015D01*
X00772555Y00754036D01*
X00772428Y00754078D01*
X00772238Y00754163D01*
X00771984Y00754247D01*
X00771667Y00754311D01*
X00771286Y00754395D01*
X00770884Y00754438D01*
X00770439Y00754459D01*
D02*
G37*
G36*
X00646150Y00736727D02*
X00645934D01*
X00645883Y00736714D01*
X00645756Y00736701D01*
X00645579Y00736650D01*
X00645388Y00736587D01*
X00645185Y00736485D01*
X00644969Y00736346D01*
X00644880Y00736257D01*
X00644779Y00736155D01*
X00644753Y00736130D01*
X00644728Y00736092D01*
X00644702Y00736053D01*
X00644664Y00735990D01*
X00644626Y00735926D01*
X00644537Y00735749D01*
X00644436Y00735520D01*
X00644359Y00735241D01*
X00644309Y00734910D01*
X00644283Y00734542D01*
Y00734529D01*
Y00734491D01*
Y00734441D01*
X00644296Y00734364D01*
Y00734275D01*
X00644309Y00734174D01*
X00644347Y00733945D01*
X00644410Y00733691D01*
X00644486Y00733412D01*
X00644613Y00733158D01*
X00644779Y00732929D01*
X00644804Y00732904D01*
X00644867Y00732840D01*
X00644969Y00732751D01*
X00645121Y00732650D01*
X00645299Y00732548D01*
X00645502Y00732459D01*
X00645744Y00732396D01*
X00645871Y00732383D01*
X00646010Y00732370D01*
X00646087D01*
X00646137Y00732383D01*
X00646264Y00732396D01*
X00646430Y00732447D01*
X00646633Y00732510D01*
X00646836Y00732612D01*
X00647039Y00732751D01*
X00647141Y00732828D01*
X00647230Y00732929D01*
Y00732942D01*
X00647255Y00732955D01*
X00647280Y00732993D01*
X00647306Y00733031D01*
X00647344Y00733094D01*
X00647395Y00733158D01*
X00647484Y00733348D01*
X00647572Y00733577D01*
X00647661Y00733856D01*
X00647712Y00734174D01*
X00647738Y00734555D01*
Y00734567D01*
Y00734606D01*
Y00734656D01*
X00647725Y00734733D01*
Y00734809D01*
X00647712Y00734910D01*
X00647674Y00735152D01*
X00647611Y00735406D01*
X00647522Y00735672D01*
X00647395Y00735926D01*
X00647230Y00736155D01*
Y00736168D01*
X00647204Y00736180D01*
X00647141Y00736244D01*
X00647039Y00736333D01*
X00646887Y00736447D01*
X00646709Y00736549D01*
X00646506Y00736638D01*
X00646277Y00736701D01*
X00646150Y00736727D01*
D02*
G37*
G36*
X00664540Y00736815D02*
X00664514D01*
X00664438Y00736803D01*
X00664324Y00736790D01*
X00664184Y00736765D01*
X00664019Y00736701D01*
X00663854Y00736625D01*
X00663689Y00736511D01*
X00663524Y00736358D01*
X00663511Y00736333D01*
X00663460Y00736282D01*
X00663397Y00736180D01*
X00663333Y00736041D01*
X00663257Y00735863D01*
X00663194Y00735660D01*
X00663143Y00735418D01*
X00663130Y00735152D01*
X00665937D01*
Y00735164D01*
Y00735190D01*
Y00735228D01*
X00665924Y00735291D01*
X00665911Y00735431D01*
X00665873Y00735609D01*
X00665822Y00735812D01*
X00665746Y00736015D01*
X00665645Y00736206D01*
X00665505Y00736384D01*
X00665492Y00736396D01*
X00665429Y00736447D01*
X00665352Y00736523D01*
X00665238Y00736600D01*
X00665098Y00736676D01*
X00664933Y00736752D01*
X00664743Y00736803D01*
X00664540Y00736815D01*
D02*
G37*
G36*
X00637006Y00739127D02*
X00635698D01*
Y00736346D01*
X00637044D01*
X00637159Y00736358D01*
X00637400Y00736371D01*
X00637654Y00736384D01*
X00637908Y00736409D01*
X00638035Y00736422D01*
X00638136Y00736447D01*
X00638238Y00736472D01*
X00638314Y00736498D01*
X00638327Y00736511D01*
X00638378Y00736523D01*
X00638454Y00736561D01*
X00638543Y00736612D01*
X00638644Y00736676D01*
X00638746Y00736765D01*
X00638848Y00736853D01*
X00638937Y00736968D01*
X00638949Y00736981D01*
X00638975Y00737031D01*
X00639013Y00737095D01*
X00639051Y00737184D01*
X00639089Y00737298D01*
X00639127Y00737438D01*
X00639152Y00737577D01*
X00639165Y00737742D01*
Y00737768D01*
Y00737831D01*
X00639152Y00737933D01*
X00639127Y00738047D01*
X00639089Y00738187D01*
X00639025Y00738339D01*
X00638949Y00738479D01*
X00638848Y00738619D01*
X00638835Y00738632D01*
X00638797Y00738670D01*
X00638721Y00738733D01*
X00638632Y00738797D01*
X00638517Y00738873D01*
X00638378Y00738949D01*
X00638225Y00739013D01*
X00638060Y00739051D01*
X00638047D01*
X00637984Y00739063D01*
X00637895Y00739076D01*
X00637755Y00739089D01*
X00637654Y00739101D01*
X00637552D01*
X00637438Y00739114D01*
X00637171D01*
X00637006Y00739127D01*
D02*
G37*
G36*
X00906727Y00525426D02*
X00906529D01*
X00906482Y00525415D01*
X00906366Y00525403D01*
X00906203Y00525357D01*
X00906029Y00525299D01*
X00905843Y00525205D01*
X00905645Y00525077D01*
X00905563Y00524996D01*
X00905470Y00524903D01*
X00905447Y00524880D01*
X00905424Y00524845D01*
X00905401Y00524810D01*
X00905366Y00524752D01*
X00905331Y00524693D01*
X00905249Y00524531D01*
X00905156Y00524321D01*
X00905087Y00524065D01*
X00905040Y00523763D01*
X00905017Y00523425D01*
Y00523414D01*
Y00523379D01*
Y00523332D01*
X00905028Y00523263D01*
Y00523181D01*
X00905040Y00523088D01*
X00905075Y00522879D01*
X00905133Y00522646D01*
X00905203Y00522390D01*
X00905319Y00522158D01*
X00905470Y00521948D01*
X00905494Y00521925D01*
X00905552Y00521867D01*
X00905645Y00521785D01*
X00905785Y00521692D01*
X00905947Y00521599D01*
X00906133Y00521518D01*
X00906355Y00521460D01*
X00906471Y00521448D01*
X00906599Y00521436D01*
X00906669D01*
X00906715Y00521448D01*
X00906832Y00521460D01*
X00906983Y00521506D01*
X00907169Y00521564D01*
X00907355Y00521657D01*
X00907541Y00521785D01*
X00907634Y00521855D01*
X00907716Y00521948D01*
Y00521960D01*
X00907739Y00521971D01*
X00907762Y00522006D01*
X00907785Y00522041D01*
X00907820Y00522099D01*
X00907867Y00522158D01*
X00907948Y00522332D01*
X00908030Y00522541D01*
X00908111Y00522797D01*
X00908158Y00523088D01*
X00908181Y00523437D01*
Y00523449D01*
Y00523484D01*
Y00523530D01*
X00908169Y00523600D01*
Y00523670D01*
X00908158Y00523763D01*
X00908123Y00523984D01*
X00908065Y00524217D01*
X00907983Y00524461D01*
X00907867Y00524693D01*
X00907716Y00524903D01*
Y00524915D01*
X00907692Y00524926D01*
X00907634Y00524984D01*
X00907541Y00525066D01*
X00907402Y00525171D01*
X00907239Y00525264D01*
X00907053Y00525345D01*
X00906843Y00525403D01*
X00906727Y00525426D01*
D02*
G37*
G36*
X00756768Y01069992D02*
X00756748Y01069982D01*
X00756706Y01069971D01*
X00756633Y01069940D01*
X00756529Y01069909D01*
X00756414Y01069877D01*
X00756289Y01069836D01*
X00755998Y01069763D01*
X00755987D01*
X00755977Y01069753D01*
X00755914Y01069742D01*
X00755821Y01069711D01*
X00755716Y01069669D01*
X00755602Y01069628D01*
X00755487Y01069586D01*
X00755394Y01069534D01*
X00755321Y01069482D01*
X00755310Y01069471D01*
X00755300Y01069461D01*
X00755279Y01069430D01*
X00755248Y01069388D01*
X00755196Y01069284D01*
X00755185Y01069221D01*
X00755175Y01069159D01*
Y01069148D01*
Y01069128D01*
X00755185Y01069086D01*
X00755196Y01069034D01*
X00755238Y01068930D01*
X00755269Y01068867D01*
X00755321Y01068815D01*
X00755331D01*
X00755352Y01068794D01*
X00755383Y01068774D01*
X00755425Y01068753D01*
X00755487Y01068732D01*
X00755560Y01068711D01*
X00755654Y01068701D01*
X00755748Y01068690D01*
X00755800D01*
X00755852Y01068701D01*
X00755925Y01068711D01*
X00756008Y01068721D01*
X00756102Y01068753D01*
X00756196Y01068784D01*
X00756289Y01068826D01*
X00756300Y01068836D01*
X00756331Y01068857D01*
X00756373Y01068878D01*
X00756435Y01068919D01*
X00756550Y01069034D01*
X00756612Y01069096D01*
X00756654Y01069169D01*
X00756664Y01069180D01*
X00756675Y01069211D01*
X00756695Y01069253D01*
X00756716Y01069315D01*
X00756737Y01069398D01*
X00756748Y01069482D01*
X00756768Y01069596D01*
Y01069711D01*
Y01069992D01*
D02*
G37*
G36*
X00718351D02*
X00718330Y01069982D01*
X00718289Y01069971D01*
X00718216Y01069940D01*
X00718112Y01069909D01*
X00717997Y01069877D01*
X00717872Y01069836D01*
X00717580Y01069763D01*
X00717570D01*
X00717560Y01069753D01*
X00717497Y01069742D01*
X00717403Y01069711D01*
X00717299Y01069669D01*
X00717185Y01069628D01*
X00717070Y01069586D01*
X00716976Y01069534D01*
X00716904Y01069482D01*
X00716893Y01069471D01*
X00716883Y01069461D01*
X00716862Y01069430D01*
X00716831Y01069388D01*
X00716779Y01069284D01*
X00716768Y01069221D01*
X00716758Y01069159D01*
Y01069148D01*
Y01069128D01*
X00716768Y01069086D01*
X00716779Y01069034D01*
X00716820Y01068930D01*
X00716852Y01068867D01*
X00716904Y01068815D01*
X00716914D01*
X00716935Y01068794D01*
X00716966Y01068774D01*
X00717008Y01068753D01*
X00717070Y01068732D01*
X00717143Y01068711D01*
X00717237Y01068701D01*
X00717330Y01068690D01*
X00717383D01*
X00717435Y01068701D01*
X00717508Y01068711D01*
X00717591Y01068721D01*
X00717685Y01068753D01*
X00717778Y01068784D01*
X00717872Y01068826D01*
X00717883Y01068836D01*
X00717914Y01068857D01*
X00717955Y01068878D01*
X00718018Y01068919D01*
X00718132Y01069034D01*
X00718195Y01069096D01*
X00718237Y01069169D01*
X00718247Y01069180D01*
X00718257Y01069211D01*
X00718278Y01069253D01*
X00718299Y01069315D01*
X00718320Y01069398D01*
X00718330Y01069482D01*
X00718351Y01069596D01*
Y01069711D01*
Y01069992D01*
D02*
G37*
G36*
X00684477Y00525426D02*
X00684279D01*
X00684232Y00525415D01*
X00684116Y00525403D01*
X00683953Y00525357D01*
X00683779Y00525299D01*
X00683593Y00525205D01*
X00683395Y00525077D01*
X00683313Y00524996D01*
X00683220Y00524903D01*
X00683197Y00524880D01*
X00683174Y00524845D01*
X00683151Y00524810D01*
X00683116Y00524752D01*
X00683081Y00524693D01*
X00682999Y00524531D01*
X00682906Y00524321D01*
X00682837Y00524065D01*
X00682790Y00523763D01*
X00682767Y00523425D01*
Y00523414D01*
Y00523379D01*
Y00523332D01*
X00682778Y00523263D01*
Y00523181D01*
X00682790Y00523088D01*
X00682825Y00522879D01*
X00682883Y00522646D01*
X00682953Y00522390D01*
X00683069Y00522158D01*
X00683220Y00521948D01*
X00683244Y00521925D01*
X00683302Y00521867D01*
X00683395Y00521785D01*
X00683534Y00521692D01*
X00683697Y00521599D01*
X00683884Y00521518D01*
X00684105Y00521460D01*
X00684221Y00521448D01*
X00684349Y00521436D01*
X00684419D01*
X00684465Y00521448D01*
X00684582Y00521460D01*
X00684733Y00521506D01*
X00684919Y00521564D01*
X00685105Y00521657D01*
X00685291Y00521785D01*
X00685384Y00521855D01*
X00685466Y00521948D01*
Y00521960D01*
X00685489Y00521971D01*
X00685512Y00522006D01*
X00685535Y00522041D01*
X00685570Y00522099D01*
X00685617Y00522158D01*
X00685698Y00522332D01*
X00685780Y00522541D01*
X00685861Y00522797D01*
X00685908Y00523088D01*
X00685931Y00523437D01*
Y00523449D01*
Y00523484D01*
Y00523530D01*
X00685919Y00523600D01*
Y00523670D01*
X00685908Y00523763D01*
X00685873Y00523984D01*
X00685815Y00524217D01*
X00685733Y00524461D01*
X00685617Y00524693D01*
X00685466Y00524903D01*
Y00524915D01*
X00685442Y00524926D01*
X00685384Y00524984D01*
X00685291Y00525066D01*
X00685152Y00525171D01*
X00684989Y00525264D01*
X00684802Y00525345D01*
X00684593Y00525403D01*
X00684477Y00525426D01*
D02*
G37*
G36*
X00684205Y00535668D02*
X00684182D01*
X00684112Y00535656D01*
X00684007Y00535645D01*
X00683879Y00535621D01*
X00683728Y00535563D01*
X00683577Y00535493D01*
X00683426Y00535389D01*
X00683275Y00535249D01*
X00683263Y00535226D01*
X00683216Y00535179D01*
X00683158Y00535086D01*
X00683100Y00534958D01*
X00683030Y00534795D01*
X00682972Y00534609D01*
X00682926Y00534388D01*
X00682914Y00534144D01*
X00685485D01*
Y00534156D01*
Y00534179D01*
Y00534214D01*
X00685473Y00534272D01*
X00685462Y00534400D01*
X00685427Y00534563D01*
X00685380Y00534749D01*
X00685310Y00534935D01*
X00685217Y00535109D01*
X00685089Y00535272D01*
X00685078Y00535284D01*
X00685020Y00535331D01*
X00684950Y00535400D01*
X00684845Y00535470D01*
X00684717Y00535540D01*
X00684566Y00535610D01*
X00684391Y00535656D01*
X00684205Y00535668D01*
D02*
G37*
G36*
X00765922Y01071471D02*
X00765849D01*
X00765777Y01071450D01*
X00765683Y01071429D01*
X00765579Y01071387D01*
X00765464Y01071325D01*
X00765350Y01071242D01*
X00765245Y01071127D01*
X00765235Y01071117D01*
X00765225Y01071086D01*
X00765193Y01071044D01*
X00765162Y01070971D01*
X00765131Y01070888D01*
X00765100Y01070783D01*
X00765068Y01070658D01*
X00765048Y01070513D01*
X00766787D01*
Y01070523D01*
Y01070534D01*
X00766776Y01070596D01*
X00766755Y01070690D01*
X00766735Y01070794D01*
X00766693Y01070919D01*
X00766651Y01071033D01*
X00766589Y01071148D01*
X00766506Y01071242D01*
X00766495Y01071252D01*
X00766464Y01071273D01*
X00766422Y01071315D01*
X00766349Y01071356D01*
X00766266Y01071398D01*
X00766172Y01071440D01*
X00766047Y01071460D01*
X00765922Y01071471D01*
D02*
G37*
G36*
X00744740D02*
X00744667D01*
X00744594Y01071450D01*
X00744501Y01071429D01*
X00744397Y01071387D01*
X00744282Y01071325D01*
X00744167Y01071242D01*
X00744063Y01071127D01*
X00744053Y01071117D01*
X00744043Y01071086D01*
X00744011Y01071044D01*
X00743980Y01070971D01*
X00743949Y01070888D01*
X00743917Y01070783D01*
X00743886Y01070658D01*
X00743865Y01070513D01*
X00745605D01*
Y01070523D01*
Y01070534D01*
X00745594Y01070596D01*
X00745573Y01070690D01*
X00745553Y01070794D01*
X00745511Y01070919D01*
X00745469Y01071033D01*
X00745407Y01071148D01*
X00745323Y01071242D01*
X00745313Y01071252D01*
X00745282Y01071273D01*
X00745240Y01071315D01*
X00745167Y01071356D01*
X00745084Y01071398D01*
X00744990Y01071440D01*
X00744865Y01071460D01*
X00744740Y01071471D01*
D02*
G37*
G36*
X00711738D02*
X00711665D01*
X00711592Y01071450D01*
X00711499Y01071429D01*
X00711395Y01071387D01*
X00711280Y01071325D01*
X00711165Y01071242D01*
X00711061Y01071127D01*
X00711051Y01071117D01*
X00711040Y01071086D01*
X00711009Y01071044D01*
X00710978Y01070971D01*
X00710947Y01070888D01*
X00710916Y01070783D01*
X00710884Y01070658D01*
X00710863Y01070513D01*
X00712603D01*
Y01070523D01*
Y01070534D01*
X00712592Y01070596D01*
X00712571Y01070690D01*
X00712551Y01070794D01*
X00712509Y01070919D01*
X00712467Y01071033D01*
X00712405Y01071148D01*
X00712321Y01071242D01*
X00712311Y01071252D01*
X00712280Y01071273D01*
X00712238Y01071315D01*
X00712165Y01071356D01*
X00712082Y01071398D01*
X00711988Y01071440D01*
X00711863Y01071460D01*
X00711738Y01071471D01*
D02*
G37*
%LPD*%
D10*
X00816059Y00773042D02*
G03*
X00818059Y00775042I00002000J00000000D01*
G01*
X00864870Y00577341D02*
G03*
X00864870Y00577341I-00001270J00000000D01*
G01*
X00630170Y00942509D02*
X00620014D01*
X00630170Y00952665D01*
Y00955205D01*
X00627631Y00957744D01*
X00622553D01*
X00620014Y00955205D01*
X00622553Y00912876D02*
X00627631D01*
X00625092D01*
Y00928111D01*
X00622553Y00925571D01*
X01355343Y00609346D02*
Y00624581D01*
X01362961D01*
X01365500Y00622041D01*
Y00616963D01*
X01362961Y00614424D01*
X01355343D01*
X01373118Y00609346D02*
X01378196D01*
X01380735Y00611885D01*
Y00616963D01*
X01378196Y00619502D01*
X01373118D01*
X01370579Y00616963D01*
Y00611885D01*
X01373118Y00609346D01*
X01385814Y00619502D02*
Y00611885D01*
X01388353Y00609346D01*
X01390892Y00611885D01*
X01393431Y00609346D01*
X01395970Y00611885D01*
Y00619502D01*
X01408666Y00609346D02*
X01403588D01*
X01401049Y00611885D01*
Y00616963D01*
X01403588Y00619502D01*
X01408666D01*
X01411205Y00616963D01*
Y00614424D01*
X01401049D01*
X01416284Y00619502D02*
Y00609346D01*
Y00614424D01*
X01418823Y00616963D01*
X01421362Y00619502D01*
X01423901D01*
X01295658Y01014475D02*
X01310894D01*
Y01022093D01*
X01308354Y01024632D01*
X01298198D01*
X01295658Y01022093D01*
Y01014475D01*
X01310894Y01037328D02*
Y01032250D01*
X01308354Y01029711D01*
X01303276D01*
X01300737Y01032250D01*
Y01037328D01*
X01303276Y01039867D01*
X01305815D01*
Y01029711D01*
X01295658Y01044946D02*
X01310894D01*
Y01052563D01*
X01308354Y01055102D01*
X01305815D01*
X01303276D01*
X01300737Y01052563D01*
Y01044946D01*
Y01060181D02*
X01308354D01*
X01310894Y01062720D01*
Y01070337D01*
X01300737D01*
X01315972Y01080494D02*
Y01083033D01*
X01313433Y01085573D01*
X01300737D01*
Y01077955D01*
X01303276Y01075416D01*
X01308354D01*
X01310894Y01077955D01*
Y01085573D01*
X00627631Y01001775D02*
Y01017010D01*
X00620014Y01009393D01*
X00630170D01*
X00620014Y00984838D02*
X00622553Y00987377D01*
X00627631D01*
X00630170Y00984838D01*
Y00982299D01*
X00627631Y00979760D01*
X00625092D01*
X00627631D01*
X00630170Y00977221D01*
Y00974681D01*
X00627631Y00972142D01*
X00622553D01*
X00620014Y00974681D01*
X00641603Y01025903D02*
X00651760D01*
X00667003Y01028443D02*
X00677160D01*
X00672082Y01033521D02*
Y01023365D01*
D11*
X01045972Y00503936D02*
X01066038D01*
X01045972D02*
Y00524002D01*
X01193291Y00531875D02*
Y00542035D01*
X01045972Y00734060D02*
Y00754126D01*
X01066038D01*
X01193291Y00531875D02*
X01361185D01*
X01193291Y00542035D02*
X01361185D01*
X01401064Y00503936D02*
Y00524002D01*
X01380997Y00503936D02*
X01401064D01*
X01361185Y00531875D02*
Y00542035D01*
X01380997Y00754126D02*
X01401064D01*
Y00734060D02*
Y00754126D01*
D14*
X01205229Y00527049D02*
G03*
X01205229Y00527049I-00001016J00000000D01*
G01*
D67*
X00858784Y00787145D02*
X00891783D01*
Y00785368D02*
Y00787145D01*
X00858784Y00785368D02*
Y00787145D01*
X00891783Y00733805D02*
Y00735583D01*
X00858784Y00733805D02*
Y00735583D01*
Y00733805D02*
X00891783D01*
D69*
X00824483Y01039620D02*
Y01081530D01*
X00694943Y01039620D02*
X00824483D01*
X00694943D02*
Y01081530D01*
X00824483D01*
X00694943Y01062480D02*
X00824483D01*
X00772413D02*
Y01081530D01*
D71*
X01017344Y00653846D02*
G03*
X01017344Y00653846I-00001250J00000000D01*
G01*
X01014803Y00691945D02*
G03*
X01014803Y00691945I-00001250J00000000D01*
G01*
X01044124Y00559655D02*
G03*
X01044124Y00559655I-00001250J00000000D01*
G01*
X00876660Y00977140D02*
G03*
X00876660Y00977140I-00001250J00000000D01*
G01*
X00704849Y00813561D02*
G03*
X00704849Y00813561I-00001250J00000000D01*
G01*
X00662940Y00600201D02*
G03*
X00662940Y00600201I-00001250J00000000D01*
G01*
X00839660Y00705471D02*
G03*
X00839660Y00705471I-00001250J00000000D01*
G01*
X00826769Y00548131D02*
G03*
X00826769Y00548131I-00001250J00000000D01*
G01*
X00901460Y00590701D02*
G03*
X00901460Y00590701I-00001250J00000000D01*
G01*
D72*
X00994164Y00551236D02*
X00995163D01*
X00994164Y00558236D02*
X00995163D01*
X00836224Y00974605D02*
Y00975605D01*
X00843223Y00974605D02*
Y00975605D01*
X00855923Y00974605D02*
Y00975605D01*
X00848923Y00974605D02*
Y00975605D01*
X01036993Y00587256D02*
Y00588256D01*
X01025993Y00587256D02*
Y00588256D01*
X01028454Y00626706D02*
X01029454D01*
X01028454Y00637705D02*
X01029454D01*
X00843923Y01002446D02*
X00844923D01*
X00843923Y00990946D02*
X00844923D01*
X00933204Y00919826D02*
X00934203D01*
X00933204Y00931326D02*
X00934203D01*
X00967324Y00620275D02*
Y00621275D01*
X00978823Y00620275D02*
Y00621275D01*
X00968764Y00564226D02*
X00969763D01*
X00968764Y00575726D02*
X00969763D01*
X00944533Y00953016D02*
Y00954016D01*
X00933034Y00953016D02*
Y00954016D01*
X00885023Y01063505D02*
Y01064505D01*
X00896023Y01063505D02*
Y01064505D01*
X00799503Y01019055D02*
Y01020055D01*
X00788503Y01019055D02*
Y01020055D01*
X00833064Y00810776D02*
Y00811775D01*
X00826063Y00810776D02*
Y00811775D01*
X01034223Y00671076D02*
Y00672075D01*
X01026224Y00671076D02*
Y00672075D01*
X01030414Y00710446D02*
Y00711445D01*
X01022413Y00710446D02*
Y00711445D01*
X00999594Y00658246D02*
X01007744D01*
X00999594D02*
Y00664846D01*
Y00687445D02*
X01007744D01*
X00999594Y00680845D02*
Y00687445D01*
X00997054Y00696346D02*
X01005203D01*
X00997054D02*
Y00702945D01*
Y00725545D02*
X01005203D01*
X00997054Y00718945D02*
Y00725545D01*
X00966124Y00953016D02*
Y00954015D01*
X00954623Y00953016D02*
Y00954015D01*
X01013784Y00618976D02*
X01019534D01*
X00985033D02*
X00990783D01*
X00985033Y00584475D02*
X00990783D01*
X01019534D02*
Y00586475D01*
X01013784Y00584475D02*
X01019534D01*
Y00616976D02*
Y00618976D01*
X00985033Y00616976D02*
Y00618976D01*
Y00584475D02*
Y00586475D01*
X01038473Y00543156D02*
Y00551306D01*
X01031873Y00543156D02*
X01038473D01*
X01009274D02*
Y00551306D01*
Y00543156D02*
X01015873D01*
X00778783Y00996935D02*
Y01011936D01*
X00718284Y00996935D02*
X00778783D01*
X00718284D02*
Y01026936D01*
X00778783D01*
Y01011936D02*
Y01026936D01*
X00865244Y00798266D02*
X00866244D01*
X00865244Y00791265D02*
X00866244D01*
X00898914Y00848795D02*
X00899913D01*
X00898914Y00839796D02*
X00899913D01*
X00907224Y00721646D02*
Y00725646D01*
X00899223Y00721646D02*
Y00725646D01*
X00881910Y00974390D02*
Y00978640D01*
X00886160D01*
X00881910Y00944140D02*
Y00948390D01*
Y00944140D02*
X00886160D01*
X00916410D02*
Y00948390D01*
X00912160Y00944140D02*
X00916410D01*
Y00974390D02*
Y00978640D01*
X00912160D02*
X00916410D01*
X00722319Y00780282D02*
Y00811282D01*
X00715319Y00780282D02*
Y00811282D01*
Y00780282D02*
X00722319D01*
X00715319Y00811282D02*
X00722319D01*
X00672370Y00766382D02*
X00676370D01*
X00672370Y00774381D02*
X00676370D01*
X00672370Y00754062D02*
X00676369D01*
X00672370Y00746061D02*
X00676369D01*
X00672580Y00597854D02*
X00679579D01*
X00672580Y00566854D02*
X00679579D01*
X00672580D02*
Y00597854D01*
X00679579Y00566854D02*
Y00597854D01*
X00659129Y00767842D02*
Y00772922D01*
Y00770382D02*
Y00774192D01*
Y00766572D02*
Y00769747D01*
X00744030Y00810811D02*
X00752030D01*
X00799910Y00525812D02*
Y00529812D01*
X00807910Y00525812D02*
Y00529812D01*
X00776409Y00692472D02*
X00831410D01*
X00776409Y00637471D02*
X00831410D01*
Y00692472D01*
X00776409Y00637471D02*
Y00692472D01*
X00865300Y00590042D02*
X00887300D01*
X00865300Y00582421D02*
X00887300D01*
Y00590042D01*
X00865300Y00582421D02*
Y00590042D01*
X00776731Y00551180D02*
X00815847D01*
X00776731Y00600456D02*
X00815847D01*
X00659129Y00747522D02*
Y00752602D01*
Y00750062D02*
Y00753872D01*
Y00746252D02*
Y00749427D01*
X00897700Y00551212D02*
Y00555211D01*
X00905699Y00551212D02*
Y00555211D01*
X00732060Y00634682D02*
X00736060D01*
X00732060Y00626682D02*
X00736060D01*
X00732059Y00618172D02*
X00736059D01*
X00732059Y00610172D02*
X00736059D01*
X00705929Y00636301D02*
Y00640302D01*
X00713930Y00636301D02*
Y00640302D01*
X00903210Y00602202D02*
Y00607202D01*
X00911210D01*
X00933210Y00602202D02*
Y00607202D01*
X00925210D02*
X00933210D01*
X00829849Y00826071D02*
X00833849D01*
X00829849Y00834072D02*
X00833849D01*
X00927354Y00775715D02*
Y00785712D01*
X00930686Y00782380D01*
X00934018Y00785712D01*
Y00775715D01*
X00944015Y00784046D02*
X00942349Y00785712D01*
X00939016D01*
X00937350Y00784046D01*
Y00782380D01*
X00939016Y00780714D01*
X00942349D01*
X00944015Y00779048D01*
Y00777382D01*
X00942349Y00775715D01*
X00939016D01*
X00937350Y00777382D01*
X00954012Y00784046D02*
X00952345Y00785712D01*
X00949013D01*
X00947347Y00784046D01*
Y00777382D01*
X00949013Y00775715D01*
X00952345D01*
X00954012Y00777382D01*
X00957344Y00785712D02*
Y00775715D01*
X00964008D01*
X00659383Y00870965D02*
Y00880962D01*
X00662716Y00877630D01*
X00666048Y00880962D01*
Y00870965D01*
X00676045Y00879296D02*
X00674379Y00880962D01*
X00671046D01*
X00669380Y00879296D01*
Y00877630D01*
X00671046Y00875964D01*
X00674379D01*
X00676045Y00874298D01*
Y00872632D01*
X00674379Y00870965D01*
X00671046D01*
X00669380Y00872632D01*
X00679377Y00880962D02*
Y00870965D01*
X00684375D01*
X00686042Y00872632D01*
Y00879296D01*
X00684375Y00880962D01*
X00679377D01*
X00689374Y00870965D02*
Y00877630D01*
X00692706Y00880962D01*
X00696038Y00877630D01*
Y00870965D01*
Y00875964D01*
X00689374D01*
X01014028Y00508456D02*
X01012362Y00510122D01*
X01009030D01*
X01007364Y00508456D01*
Y00506790D01*
X01009030Y00505124D01*
X01012362D01*
X01014028Y00503458D01*
Y00501792D01*
X01012362Y00500126D01*
X01009030D01*
X01007364Y00501792D01*
X01024025Y00508456D02*
X01022359Y00510122D01*
X01019026D01*
X01017360Y00508456D01*
Y00501792D01*
X01019026Y00500126D01*
X01022359D01*
X01024025Y00501792D01*
X01027357Y00510122D02*
Y00500126D01*
X01034022D01*
X00928624Y01030822D02*
Y01024158D01*
X00931956Y01020826D01*
X00935288Y01024158D01*
Y01030822D01*
X00945285Y01029156D02*
X00943619Y01030822D01*
X00940286D01*
X00938620Y01029156D01*
Y01027490D01*
X00940286Y01025824D01*
X00943619D01*
X00945285Y01024158D01*
Y01022492D01*
X00943619Y01020826D01*
X00940286D01*
X00938620Y01022492D01*
X00948617Y01030822D02*
Y01029156D01*
X00951949Y01025824D01*
X00955282Y01029156D01*
Y01030822D01*
X00951949Y01025824D02*
Y01020826D01*
X00965278Y01029156D02*
X00963612Y01030822D01*
X00960280D01*
X00958614Y01029156D01*
Y01027490D01*
X00960280Y01025824D01*
X00963612D01*
X00965278Y01024158D01*
Y01022492D01*
X00963612Y01020826D01*
X00960280D01*
X00958614Y01022492D01*
X00691448Y01031696D02*
X00689782Y01033362D01*
X00686450D01*
X00684783Y01031696D01*
Y01030030D01*
X00686450Y01028364D01*
X00689782D01*
X00691448Y01026698D01*
Y01025032D01*
X00689782Y01023365D01*
X00686450D01*
X00684783Y01025032D01*
X00694780Y01033362D02*
X00698112D01*
X00696446D01*
Y01023365D01*
X00694780D01*
X00698112D01*
X00709775Y01031696D02*
X00708109Y01033362D01*
X00704777D01*
X00703111Y01031696D01*
Y01025032D01*
X00704777Y01023365D01*
X00708109D01*
X00709775Y01025032D01*
Y01028364D01*
X00706443D01*
X00773998Y00936842D02*
X00767334D01*
Y00931844D01*
X00770666Y00933510D01*
X00772332D01*
X00773998Y00931844D01*
Y00928512D01*
X00772332Y00926845D01*
X00769000D01*
X00767334Y00928512D01*
X00777330Y00936842D02*
Y00930178D01*
X00780663Y00926845D01*
X00783995Y00930178D01*
Y00936842D01*
X00729630Y00970025D02*
Y00980022D01*
X00732962D02*
Y00970025D01*
X00727963Y00976690D02*
X00732962D01*
X00734628D01*
X00727963Y00973358D02*
X00734628D01*
X00744625Y00978356D02*
X00742959Y00980022D01*
X00739626D01*
X00737960Y00978356D01*
Y00971692D01*
X00739626Y00970025D01*
X00742959D01*
X00744625Y00971692D01*
X00749623Y00970025D02*
X00752955D01*
X00754622Y00971692D01*
Y00975024D01*
X00752955Y00976690D01*
X00749623D01*
X00747957Y00975024D01*
Y00971692D01*
X00749623Y00970025D01*
X00757954D02*
Y00976690D01*
X00762952D01*
X00764618Y00975024D01*
Y00970025D01*
X00769617D02*
Y00978356D01*
Y00975024D01*
X00767951D01*
X00771283D01*
X00769617D01*
Y00978356D01*
X00771283Y00980022D01*
X00776281Y00970025D02*
X00779613D01*
X00777947D01*
Y00976690D01*
X00776281D01*
X00791276Y00980022D02*
Y00970025D01*
X00786278D01*
X00784612Y00971692D01*
Y00975024D01*
X00786278Y00976690D01*
X00791276D01*
X00799607Y00970025D02*
X00796275D01*
X00794609Y00971692D01*
Y00975024D01*
X00796275Y00976690D01*
X00799607D01*
X00801273Y00975024D01*
Y00973358D01*
X00794609D01*
X00804605Y00970025D02*
Y00976690D01*
X00809604D01*
X00811270Y00975024D01*
Y00970025D01*
X00821267Y00976690D02*
X00816268D01*
X00814602Y00975024D01*
Y00971692D01*
X00816268Y00970025D01*
X00821267D01*
X00829597D02*
X00826265D01*
X00824599Y00971692D01*
Y00975024D01*
X00826265Y00976690D01*
X00829597D01*
X00831264Y00975024D01*
Y00973358D01*
X00824599D01*
D78*
X00824409Y00682471D02*
G03*
X00824409Y00682471I-00003000J00000000D01*
G01*
D79*
X00616203Y00477266D02*
Y01092505D01*
X01427634Y01092505D01*
X01427634Y00477266D01*
X00616203Y00477266D02*
X01427634Y00477266D01*
D107*
X01024034Y00584476D02*
G03*
X01024034Y00584476I-00000500J00000000D01*
G01*
X01004913Y00538106D02*
Y00545856D01*
X00984414D02*
X01004913D01*
X00984414Y00533355D02*
Y00545856D01*
Y00533355D02*
X01004913D01*
Y00538106D01*
X00780033Y01066930D02*
Y01074428D01*
X00783782D01*
X00785032Y01073178D01*
Y01070679D01*
X00783782Y01069429D01*
X00780033D01*
X00782533D02*
X00785032Y01066930D01*
X00791280D02*
X00788781D01*
X00787531Y01068180D01*
Y01070679D01*
X00788781Y01071928D01*
X00791280D01*
X00792530Y01070679D01*
Y01069429D01*
X00787531D01*
X00795029Y01071928D02*
X00797528Y01066930D01*
X00800027Y01071928D01*
X00802526Y01066930D02*
Y01068180D01*
X00803776D01*
Y01066930D01*
X00802526D01*
X00821270D02*
X00816272D01*
X00821270Y01071928D01*
Y01073178D01*
X00820021Y01074428D01*
X00817522D01*
X00816272Y01073178D01*
X00705626Y01053508D02*
X00702293D01*
Y01048510D01*
X00705626D01*
X00702293Y01051009D02*
X00703960D01*
X00710624Y01053508D02*
X00707292D01*
Y01048510D01*
X00710624D01*
X00707292Y01051009D02*
X00708958D01*
X00715622Y01052675D02*
X00714789Y01053508D01*
X00713123D01*
X00712290Y01052675D01*
Y01049343D01*
X00713123Y01048510D01*
X00714789D01*
X00715622Y01049343D01*
X00720621Y01052675D02*
X00719788Y01053508D01*
X00718122D01*
X00717289Y01052675D01*
Y01051842D01*
X00718122Y01051009D01*
X00719788D01*
X00720621Y01050176D01*
Y01049343D01*
X00719788Y01048510D01*
X00718122D01*
X00717289Y01049343D01*
X00724786Y01048510D02*
Y01053508D01*
X00722287Y01051009D01*
X00725619D01*
X00727285Y01053508D02*
X00730618D01*
Y01052675D01*
X00727285Y01049343D01*
Y01048510D01*
X00732284Y01052675D02*
X00733117Y01053508D01*
X00734783D01*
X00735616Y01052675D01*
Y01051842D01*
X00734783Y01051009D01*
X00733950D01*
X00734783D01*
X00735616Y01050176D01*
Y01049343D01*
X00734783Y01048510D01*
X00733117D01*
X00732284Y01049343D01*
D108*
X00911777Y00831076D02*
Y00835076D01*
Y00831076D02*
X00915777D01*
X00877776Y00801075D02*
X00881777D01*
Y00797075D02*
Y00801075D01*
X00877776Y00831076D02*
X00881777D01*
Y00835076D01*
X00911777Y00801075D02*
X00915777D01*
X00911777Y00797075D02*
Y00801075D01*
X00877777Y00797075D02*
Y00801075D01*
X00877776Y00797075D02*
X00881777D01*
X00896974Y00740086D02*
Y00763085D01*
X00909474Y00740086D02*
Y00763085D01*
X00896974D02*
X00909474D01*
X00896974Y00740086D02*
X00909474D01*
D109*
X00813559Y00773791D02*
X00817558Y00773790D01*
X00777558Y00773794D02*
X00781560Y00773793D01*
X00777562Y00809791D02*
Y00813792D01*
X00777558Y00773794D02*
X00777559Y00777791D01*
X00813559Y00813789D02*
X00817562Y00813788D01*
X00777562Y00813792D02*
X00781560D01*
X00817562Y00809791D02*
X00817562Y00813788D01*
X00817558Y00773790D02*
X00817559Y00777791D01*
X00891500Y00519042D02*
Y00541542D01*
X00831499Y00519042D02*
Y00541542D01*
X00836500D01*
X00886500D02*
X00891500D01*
X00841499Y00499042D02*
X00881500D01*
X00710183Y00907795D02*
Y00933195D01*
X00633983D02*
X00710183D01*
X00633983Y00907795D02*
X00710183D01*
X00633983D02*
Y00933195D01*
X00710183Y00936582D02*
Y00961982D01*
X00633983D02*
X00710183D01*
X00633983Y00936582D02*
X00710183D01*
X00633983D02*
Y00961982D01*
X00710183Y00965369D02*
Y00990769D01*
X00633983D02*
X00710183D01*
X00633983Y00965369D02*
X00710183D01*
X00633983D02*
Y00990769D01*
X00710183Y00994155D02*
Y01019555D01*
X00633983D02*
X00710183D01*
X00633983Y00994155D02*
X00710183D01*
X00633983D02*
Y01019555D01*
X00928938Y00490676D02*
X00927272Y00492342D01*
X00923940D01*
X00922273Y00490676D01*
Y00489010D01*
X00923940Y00487344D01*
X00927272D01*
X00928938Y00485678D01*
Y00484012D01*
X00927272Y00482346D01*
X00923940D01*
X00922273Y00484012D01*
X00932270Y00492342D02*
Y00482346D01*
X00937269D01*
X00938935Y00484012D01*
Y00490676D01*
X00937269Y00492342D01*
X00932270D01*
X00942267Y00482346D02*
Y00489010D01*
X00945599Y00492342D01*
X00948932Y00489010D01*
Y00482346D01*
Y00487344D01*
X00942267D01*
D110*
X00869175Y00583982D02*
D03*
M02*
