%FSAX44Y44*%
%MOMM*%
G71*
G01*
G75*
G04 Layer_Color=8388736*
%ADD10C,0.2540*%
%ADD11C,0.2032*%
%ADD12C,0.6350*%
%ADD13C,0.5080*%
%ADD14C,0.3048*%
%ADD15C,0.7620*%
%ADD16C,0.3810*%
%ADD17R,0.9000X0.7000*%
%ADD18R,0.3200X0.3600*%
%ADD19R,0.4500X0.5500*%
%ADD20R,1.0000X0.9000*%
%ADD21R,0.9000X0.8000*%
%ADD22R,1.3500X0.9500*%
%ADD23R,0.4600X0.4200*%
%ADD24R,1.6500X2.4000*%
%ADD25O,0.8500X0.3000*%
%ADD26R,0.5500X0.5500*%
%ADD27R,0.8000X0.9000*%
%ADD28R,0.6500X0.9000*%
%ADD29R,0.9500X1.4000*%
%ADD30R,1.0000X1.0000*%
%ADD31R,0.7000X0.9000*%
%ADD32R,0.9000X0.8000*%
%ADD33R,0.5200X0.5200*%
%ADD34R,1.1000X1.1000*%
%ADD35R,0.6298X0.2500*%
%ADD36R,0.6298X0.2500*%
%ADD37R,0.2500X0.6298*%
%ADD38R,0.2500X0.6298*%
%ADD39R,1.4000X0.6000*%
%ADD40R,0.4500X0.4500*%
%ADD41R,1.7000X1.7000*%
%ADD42O,0.2800X0.8500*%
%ADD43O,0.8500X0.2800*%
%ADD44R,0.8500X2.3000*%
%ADD45R,0.4200X0.4600*%
%ADD46R,0.2032X1.1430*%
%ADD47R,1.4000X1.1000*%
%ADD48R,1.1000X1.4000*%
%ADD49R,0.9000X0.6500*%
%ADD50R,0.9000X1.0000*%
%ADD51R,0.8000X0.9000*%
%ADD52R,1.0000X1.0000*%
%ADD53R,1.0160X0.8000*%
%ADD54R,0.7112X0.3366*%
%ADD55R,0.3366X0.7112*%
%ADD56O,0.2650X1.8500*%
%ADD57O,1.8500X0.2650*%
%ADD58O,1.8500X0.2650*%
%ADD59R,0.3500X0.6500*%
%ADD60O,2.2000X0.6000*%
%ADD61R,1.2000X1.8000*%
%ADD62R,0.6000X1.5500*%
%ADD63R,0.6000X1.5000*%
%ADD64C,0.3000*%
%ADD65C,0.5000*%
%ADD66C,2.1590*%
%ADD67C,1.5000*%
%ADD68C,0.1540*%
%ADD69C,0.7500*%
%ADD70C,0.1524*%
%ADD71C,0.2500*%
%ADD72C,0.2000*%
%ADD73C,0.4000*%
%ADD74C,0.4500*%
%ADD75C,0.5588*%
%ADD76C,2.0000*%
%ADD77C,0.1600*%
%ADD78C,0.1700*%
%ADD79C,0.3500*%
%ADD80C,0.6000*%
%ADD81C,1.0000*%
%ADD82C,0.0254*%
%ADD83C,2.0066*%
%ADD84C,0.9000*%
%ADD85C,2.5400*%
G04:AMPARAMS|DCode=86|XSize=1.8796mm|YSize=1.8796mm|CornerRadius=0.4699mm|HoleSize=0mm|Usage=FLASHONLY|Rotation=180.000|XOffset=0mm|YOffset=0mm|HoleType=Round|Shape=RoundedRectangle|*
%AMROUNDEDRECTD86*
21,1,1.8796,0.9398,0,0,180.0*
21,1,0.9398,1.8796,0,0,180.0*
1,1,0.9398,-0.4699,0.4699*
1,1,0.9398,0.4699,0.4699*
1,1,0.9398,0.4699,-0.4699*
1,1,0.9398,-0.4699,-0.4699*
%
%ADD86ROUNDEDRECTD86*%
%ADD87C,1.8796*%
%ADD88C,0.6600*%
%ADD89C,0.5000*%
%ADD90C,0.7112*%
%ADD91C,0.6900*%
%ADD92C,1.0000*%
%ADD93C,0.7300*%
%ADD94C,1.1000*%
%ADD95C,0.8000*%
%ADD96R,0.3000X0.3000*%
%ADD97R,0.3000X0.5000*%
%ADD98R,0.3000X0.3000*%
%ADD99R,0.5000X0.3000*%
%ADD100R,3.3000X3.3000*%
%ADD101R,0.3600X0.3200*%
%ADD102R,0.6500X0.5500*%
%ADD103R,1.3000X4.5000*%
%ADD104R,1.8000X3.9000*%
%ADD105R,1.5500X0.6000*%
%ADD106R,1.8000X1.2000*%
%ADD107R,1.2000X1.8000*%
%ADD108R,2.0500X2.5000*%
%ADD109R,0.5000X2.3000*%
%ADD110R,2.3000X0.5000*%
%ADD111R,2.5000X2.0500*%
%ADD112C,0.1000*%
%ADD113C,0.1270*%
%ADD114C,0.1500*%
%ADD115R,0.7750X0.4500*%
%ADD116R,0.6500X1.0000*%
%ADD117R,0.7000X0.7000*%
%ADD118R,0.7000X0.7000*%
%ADD119R,0.7000X0.7000*%
%ADD120O,0.8000X0.2500*%
%ADD121O,0.2300X0.8000*%
%ADD122O,0.8000X0.2300*%
%ADD123R,0.6512X0.2766*%
%ADD124R,0.2766X0.6512*%
%ADD125R,1.0524X0.8524*%
%ADD126R,0.4724X0.5124*%
%ADD127R,0.6024X0.7024*%
%ADD128R,1.1524X1.0524*%
%ADD129R,1.0524X0.9524*%
%ADD130R,1.5024X1.1024*%
%ADD131R,0.6124X0.5724*%
%ADD132R,1.7900X2.5400*%
%ADD133O,0.9900X0.4400*%
%ADD134R,0.7024X0.7024*%
%ADD135R,0.9524X1.0524*%
%ADD136R,0.8024X1.0524*%
%ADD137R,1.1024X1.5524*%
%ADD138R,1.1524X1.1524*%
%ADD139R,0.8524X1.0524*%
%ADD140R,1.0524X0.9524*%
%ADD141R,0.6724X0.6724*%
%ADD142R,1.2524X1.2524*%
%ADD143R,0.6806X0.3008*%
%ADD144R,0.6806X0.3008*%
%ADD145R,0.3008X0.6806*%
%ADD146R,0.3008X0.6806*%
%ADD147R,1.5524X0.7524*%
%ADD148R,0.6024X0.6024*%
%ADD149R,1.8400X1.8400*%
%ADD150O,0.4200X0.9900*%
%ADD151O,0.9900X0.4200*%
%ADD152R,1.0024X2.4524*%
%ADD153R,0.5724X0.6124*%
%ADD154R,0.2232X1.1630*%
%ADD155R,1.5524X1.2524*%
%ADD156R,1.2524X1.5524*%
%ADD157R,1.0524X0.8024*%
%ADD158R,1.0524X1.1524*%
%ADD159R,0.9524X1.0524*%
%ADD160R,1.1524X1.1524*%
%ADD161R,0.7912X0.4165*%
%ADD162R,0.4165X0.7912*%
%ADD163O,0.4174X2.0024*%
%ADD164O,2.0024X0.4174*%
%ADD165O,2.0024X0.4174*%
%ADD166R,0.5024X0.8024*%
%ADD167O,2.3524X0.7524*%
%ADD168R,1.3020X1.9020*%
%ADD169R,0.7020X1.6520*%
%ADD170R,0.7524X1.6524*%
%ADD171C,2.1590*%
%ADD172C,0.1524*%
%ADD173C,1.0524*%
%ADD174C,2.6924*%
G04:AMPARAMS|DCode=175|XSize=2.032mm|YSize=2.032mm|CornerRadius=0.5461mm|HoleSize=0mm|Usage=FLASHONLY|Rotation=180.000|XOffset=0mm|YOffset=0mm|HoleType=Round|Shape=RoundedRectangle|*
%AMROUNDEDRECTD175*
21,1,2.0320,0.9398,0,0,180.0*
21,1,0.9398,2.0320,0,0,180.0*
1,1,1.0922,-0.4699,0.4699*
1,1,1.0922,0.4699,0.4699*
1,1,1.0922,0.4699,-0.4699*
1,1,1.0922,-0.4699,-0.4699*
%
%ADD175ROUNDEDRECTD175*%
%ADD176C,2.0320*%
%ADD177C,0.6524*%
%ADD178C,0.8636*%
%ADD179C,0.8424*%
%ADD180C,1.1524*%
%ADD181C,0.8824*%
%ADD182C,1.2524*%
%ADD183C,0.9524*%
D53*
X00903223Y00745235D02*
D03*
Y00757935D02*
D03*
D82*
X00616203Y00477266D02*
Y01092505D01*
X01427634Y01092505D01*
X01427634Y00477266D01*
X00616203Y00477266D02*
X01427634Y00477266D01*
D83*
X01381252Y00533400D02*
D03*
D85*
X00645160Y01058925D02*
D03*
D125*
X00829564Y00804276D02*
D03*
Y00818276D02*
D03*
D126*
X00978154Y00610876D02*
D03*
Y00605275D02*
D03*
Y00584955D02*
D03*
Y00590556D02*
D03*
X00938783Y00946905D02*
D03*
Y00952506D02*
D03*
D127*
X00980113Y00539496D02*
D03*
X00971114D02*
D03*
D128*
X01030223Y00663576D02*
D03*
Y00679576D02*
D03*
X01026413Y00702945D02*
D03*
Y00718945D02*
D03*
X00903223Y00732146D02*
D03*
Y00715146D02*
D03*
X00803910Y00519312D02*
D03*
Y00536312D02*
D03*
X00901700Y00544711D02*
D03*
Y00561711D02*
D03*
X00709930Y00629802D02*
D03*
Y00646802D02*
D03*
D129*
X01016094Y00663345D02*
D03*
Y00682346D02*
D03*
X00996094Y00672846D02*
D03*
X01013553Y00701445D02*
D03*
Y00720446D02*
D03*
X00993553Y00710946D02*
D03*
D130*
X00955294Y00961516D02*
D03*
Y00945516D02*
D03*
D131*
X00930404Y00935735D02*
D03*
X00937003D02*
D03*
D132*
X01002283Y00601726D02*
D03*
D133*
X00987534Y00591975D02*
D03*
Y00598475D02*
D03*
Y00604976D02*
D03*
Y00611475D02*
D03*
X01017033D02*
D03*
Y00604976D02*
D03*
Y00598475D02*
D03*
Y00591975D02*
D03*
D134*
X01028953Y00604076D02*
D03*
Y00612076D02*
D03*
X01031494Y00591755D02*
D03*
Y00583755D02*
D03*
X00785114Y01023556D02*
D03*
Y01015555D02*
D03*
D135*
X01033374Y00559655D02*
D03*
X01014373D02*
D03*
X01023874Y00539655D02*
D03*
D136*
X00999663Y00539606D02*
D03*
X00989663D02*
D03*
D137*
X00727534Y01011936D02*
D03*
X00769033D02*
D03*
D138*
X00884554Y00715146D02*
D03*
X00868553D02*
D03*
X00686180Y00607822D02*
D03*
X00670180D02*
D03*
X00649350Y00770382D02*
D03*
X00633349D02*
D03*
X00790829Y00743712D02*
D03*
X00806830D02*
D03*
X00649350Y00750062D02*
D03*
X00633349D02*
D03*
X00881760Y00620522D02*
D03*
X00865760D02*
D03*
X00713360Y00770382D02*
D03*
X00729360D02*
D03*
X00713360Y00821182D02*
D03*
X00729360D02*
D03*
D139*
X00872744Y00794765D02*
D03*
X00858744D02*
D03*
D140*
X00860043Y00820786D02*
D03*
Y00806786D02*
D03*
X00872744Y00820786D02*
D03*
Y00834786D02*
D03*
X00847344Y00767475D02*
D03*
Y00753475D02*
D03*
X00760730Y00764651D02*
D03*
Y00778651D02*
D03*
Y00790601D02*
D03*
Y00804601D02*
D03*
X00748029Y00790601D02*
D03*
Y00804602D02*
D03*
D141*
X00872744Y00844296D02*
D03*
X00864743D02*
D03*
D142*
X00890414D02*
D03*
X00908414D02*
D03*
D143*
X00882503Y00808575D02*
D03*
Y00823576D02*
D03*
X00911051D02*
D03*
Y00808575D02*
D03*
D144*
X00882503Y00813576D02*
D03*
Y00818575D02*
D03*
X00911051D02*
D03*
Y00813576D02*
D03*
D145*
X00904277Y00830350D02*
D03*
X00889277D02*
D03*
Y00801802D02*
D03*
X00904277D02*
D03*
D146*
X00899277Y00830350D02*
D03*
X00894277D02*
D03*
Y00801802D02*
D03*
X00899277D02*
D03*
D147*
X00862784Y00779225D02*
D03*
Y00766725D02*
D03*
Y00754226D02*
D03*
Y00741726D02*
D03*
X00887783D02*
D03*
Y00754226D02*
D03*
Y00766725D02*
D03*
Y00779225D02*
D03*
D148*
X00890524Y01065585D02*
D03*
Y01072586D02*
D03*
X00858773Y00970335D02*
D03*
Y00977336D02*
D03*
X00849883Y00969716D02*
D03*
Y00962715D02*
D03*
D149*
X00899160Y00961390D02*
D03*
D150*
X00891660Y00976140D02*
D03*
X00896660D02*
D03*
X00901660D02*
D03*
X00906660D02*
D03*
Y00946640D02*
D03*
X00901660D02*
D03*
X00896660D02*
D03*
X00891660D02*
D03*
D151*
X00913910Y00968890D02*
D03*
Y00963890D02*
D03*
Y00958890D02*
D03*
Y00953890D02*
D03*
X00884410D02*
D03*
Y00958890D02*
D03*
Y00963890D02*
D03*
Y00968890D02*
D03*
D152*
X00901544Y01005585D02*
D03*
X00882043D02*
D03*
D153*
X00870203Y00977135D02*
D03*
Y00970536D02*
D03*
D154*
X01063283Y00818174D02*
D03*
Y00844589D02*
D03*
X01067347Y00818174D02*
D03*
Y00844589D02*
D03*
X01071158Y00818174D02*
D03*
Y00844589D02*
D03*
X01075221Y00818174D02*
D03*
Y00844589D02*
D03*
X01079286Y00818174D02*
D03*
Y00844589D02*
D03*
X01083350Y00818174D02*
D03*
Y00844589D02*
D03*
X01087160Y00818174D02*
D03*
Y00844589D02*
D03*
X01091224Y00818174D02*
D03*
Y00844589D02*
D03*
X01095287Y00818174D02*
D03*
Y00844589D02*
D03*
X01099352Y00818174D02*
D03*
Y00844589D02*
D03*
X01103161Y00818174D02*
D03*
Y00844589D02*
D03*
X01107225Y00818174D02*
D03*
Y00844589D02*
D03*
X01111290Y00818174D02*
D03*
Y00844589D02*
D03*
X01115353Y00818174D02*
D03*
Y00844589D02*
D03*
X01119164Y00818174D02*
D03*
Y00844589D02*
D03*
X01123227Y00818174D02*
D03*
Y00844589D02*
D03*
X01127291Y00818174D02*
D03*
Y00844589D02*
D03*
X01131356Y00818174D02*
D03*
Y00844589D02*
D03*
X01135165Y00818174D02*
D03*
Y00844589D02*
D03*
X01139230Y00818174D02*
D03*
Y00844589D02*
D03*
X01143294Y00818174D02*
D03*
Y00844589D02*
D03*
X01147104Y00818174D02*
D03*
Y00844589D02*
D03*
X01151168Y00818174D02*
D03*
Y00844589D02*
D03*
X01155231Y00818174D02*
D03*
Y00844589D02*
D03*
X01159296Y00818174D02*
D03*
Y00844589D02*
D03*
X01163105Y00818174D02*
D03*
Y00844589D02*
D03*
X01167169Y00818174D02*
D03*
Y00844589D02*
D03*
X01171234Y00818174D02*
D03*
Y00844589D02*
D03*
X01175297Y00818174D02*
D03*
Y00844589D02*
D03*
X01179108Y00818174D02*
D03*
Y00844589D02*
D03*
X01183171Y00818174D02*
D03*
Y00844589D02*
D03*
X01187235Y00818174D02*
D03*
Y00844589D02*
D03*
X01191300Y00818174D02*
D03*
Y00844589D02*
D03*
X01195109Y00818174D02*
D03*
Y00844589D02*
D03*
X01199174Y00818174D02*
D03*
Y00844589D02*
D03*
X01225295Y00523747D02*
D03*
X01209294D02*
D03*
X01213357D02*
D03*
X01221232D02*
D03*
X01217168D02*
D03*
X01257299D02*
D03*
X01253235D02*
D03*
X01261364D02*
D03*
X01237234D02*
D03*
X01229360D02*
D03*
X01233169D02*
D03*
X01249172D02*
D03*
X01241298D02*
D03*
X01245361D02*
D03*
X01209294Y00550163D02*
D03*
X01229360D02*
D03*
X01213357D02*
D03*
X01217168D02*
D03*
X01233169D02*
D03*
X01221232D02*
D03*
X01225295D02*
D03*
X01249172D02*
D03*
X01237234D02*
D03*
X01245361D02*
D03*
X01257299D02*
D03*
X01241298D02*
D03*
X01253235D02*
D03*
X01269238D02*
D03*
X01261364D02*
D03*
X01265173D02*
D03*
X01301241D02*
D03*
X01297177D02*
D03*
X01313179D02*
D03*
X01305305D02*
D03*
X01309115D02*
D03*
X01281176D02*
D03*
X01273301D02*
D03*
X01277112D02*
D03*
X01293114D02*
D03*
X01285240D02*
D03*
X01289303D02*
D03*
X01325117D02*
D03*
X01321308D02*
D03*
X01329182D02*
D03*
X01333246D02*
D03*
X01341120D02*
D03*
X01317243D02*
D03*
X01337310D02*
D03*
X01345184D02*
D03*
X01301241Y00523747D02*
D03*
X01289303D02*
D03*
X01277112D02*
D03*
X01265173D02*
D03*
X01305305D02*
D03*
X01313179D02*
D03*
X01325117D02*
D03*
X01337310D02*
D03*
X01297177D02*
D03*
X01285240D02*
D03*
X01273301D02*
D03*
X01309115D02*
D03*
X01321308D02*
D03*
X01333246D02*
D03*
X01345184D02*
D03*
X01293114D02*
D03*
X01281176D02*
D03*
X01269238D02*
D03*
X01317243D02*
D03*
X01329182D02*
D03*
X01341120D02*
D03*
D155*
X00706120Y00596511D02*
D03*
Y00611512D02*
D03*
D156*
X00715129Y00838961D02*
D03*
X00730130D02*
D03*
X00628770Y00600201D02*
D03*
X00643770D02*
D03*
D157*
X00706820Y00786282D02*
D03*
Y00805282D02*
D03*
Y00795782D02*
D03*
X00730819Y00805282D02*
D03*
Y00786282D02*
D03*
X00664079Y00591853D02*
D03*
Y00582354D02*
D03*
Y00572854D02*
D03*
X00688079D02*
D03*
Y00591853D02*
D03*
D158*
X00682870Y00770381D02*
D03*
X00665870D02*
D03*
Y00750061D02*
D03*
X00682870D02*
D03*
X00725560Y00630681D02*
D03*
X00742560D02*
D03*
X00725560Y00614171D02*
D03*
X00742559D02*
D03*
X00840349Y00830071D02*
D03*
X00823350D02*
D03*
D159*
X00644540Y00584962D02*
D03*
X00630540D02*
D03*
X00791829Y00728472D02*
D03*
X00805829D02*
D03*
X00794400Y00832611D02*
D03*
X00780400D02*
D03*
D160*
X00852170Y00575691D02*
D03*
Y00591692D02*
D03*
X00748030Y00834811D02*
D03*
Y00818811D02*
D03*
X00787400Y00519812D02*
D03*
Y00535812D02*
D03*
X00693419Y00646301D02*
D03*
Y00630302D02*
D03*
X00703579Y00577721D02*
D03*
Y00561721D02*
D03*
X00834643Y00751475D02*
D03*
Y00767475D02*
D03*
X00689610Y00789052D02*
D03*
Y00805052D02*
D03*
D161*
X00817309Y00781291D02*
D03*
Y00786291D02*
D03*
Y00791291D02*
D03*
Y00796291D02*
D03*
Y00801291D02*
D03*
Y00806292D02*
D03*
X00777810D02*
D03*
Y00801291D02*
D03*
Y00796291D02*
D03*
Y00791291D02*
D03*
Y00786291D02*
D03*
Y00781291D02*
D03*
D162*
X00810059Y00813541D02*
D03*
X00805059D02*
D03*
X00800059D02*
D03*
X00795059D02*
D03*
X00790059D02*
D03*
X00785059D02*
D03*
Y00774041D02*
D03*
X00790059D02*
D03*
X00795059D02*
D03*
X00800059D02*
D03*
X00805059D02*
D03*
X00810059D02*
D03*
D163*
X00831410Y00705472D02*
D03*
X00826410D02*
D03*
X00821410D02*
D03*
X00816410D02*
D03*
X00811410D02*
D03*
X00806409D02*
D03*
X00801410D02*
D03*
X00796409D02*
D03*
X00791410D02*
D03*
X00786409D02*
D03*
X00781410D02*
D03*
X00776409D02*
D03*
Y00624472D02*
D03*
X00781410D02*
D03*
X00786409D02*
D03*
X00791410D02*
D03*
X00796409D02*
D03*
X00801410D02*
D03*
X00806409D02*
D03*
X00811410D02*
D03*
X00816410D02*
D03*
X00821410D02*
D03*
X00826410D02*
D03*
X00831410D02*
D03*
D164*
X00763410Y00692472D02*
D03*
Y00687472D02*
D03*
Y00682472D02*
D03*
Y00677472D02*
D03*
Y00672472D02*
D03*
Y00667471D02*
D03*
Y00662472D02*
D03*
Y00657471D02*
D03*
Y00652472D02*
D03*
Y00647471D02*
D03*
Y00642472D02*
D03*
Y00637471D02*
D03*
D165*
X00844410D02*
D03*
Y00642472D02*
D03*
Y00647471D02*
D03*
Y00652472D02*
D03*
Y00657471D02*
D03*
Y00662472D02*
D03*
Y00667471D02*
D03*
Y00672472D02*
D03*
Y00677472D02*
D03*
Y00682472D02*
D03*
Y00687472D02*
D03*
Y00692472D02*
D03*
D166*
X00869800Y00595482D02*
D03*
X00882800D02*
D03*
Y00576982D02*
D03*
X00876300D02*
D03*
X00869800D02*
D03*
D167*
X00820290Y00557021D02*
D03*
Y00569721D02*
D03*
Y00582421D02*
D03*
Y00595121D02*
D03*
X00772290Y00557021D02*
D03*
Y00569721D02*
D03*
Y00582421D02*
D03*
Y00595121D02*
D03*
D168*
X00889500Y00506541D02*
D03*
X00833500D02*
D03*
D169*
X00876500Y00545042D02*
D03*
X00856500D02*
D03*
X00846500D02*
D03*
X00866500D02*
D03*
D170*
X00908710Y00590702D02*
D03*
X00927710D02*
D03*
X00918210Y00609702D02*
D03*
D171*
X01094231Y00739393D02*
D03*
D172*
X00645160Y00521461D02*
D03*
Y00826462D02*
D03*
D173*
X00773459Y00544282D02*
D03*
X00817460D02*
D03*
X01327814Y01032735D02*
D03*
X01283813D02*
D03*
X01368523Y00593695D02*
D03*
Y00637695D02*
D03*
X01230883Y00511555D02*
D03*
X01199134Y00534416D02*
D03*
X01230883Y00571245D02*
D03*
D174*
X00959103Y00505205D02*
D03*
X00989584Y00503936D02*
D03*
X00642874Y00874775D02*
D03*
X00910844Y00780796D02*
D03*
X00914653Y01041145D02*
D03*
X00802894Y00929386D02*
D03*
D175*
X00697483Y00920495D02*
D03*
Y00949282D02*
D03*
Y00978069D02*
D03*
Y01006855D02*
D03*
D176*
X00646683Y00920495D02*
D03*
X00672083D02*
D03*
X00646683Y00949282D02*
D03*
X00672083D02*
D03*
X00646683Y00978069D02*
D03*
X00672083D02*
D03*
X00646683Y01006855D02*
D03*
X00672083D02*
D03*
D177*
X00997284Y00594225D02*
D03*
Y00609226D02*
D03*
X01002283Y00601726D02*
D03*
X01007283Y00594225D02*
D03*
Y00609226D02*
D03*
D178*
X01011173Y00646176D02*
D03*
X01191514Y00552196D02*
D03*
X01262634Y00776985D02*
D03*
X01167383Y00865885D02*
D03*
X00957833Y00589025D02*
D03*
X00997582Y00583755D02*
D03*
X01047624Y00663576D02*
D03*
X00730503Y00735076D02*
D03*
X00997204Y00644905D02*
D03*
X01040384Y00702056D02*
D03*
X00987044Y00864615D02*
D03*
X00910844Y01072896D02*
D03*
X00847344Y00844296D02*
D03*
X00844803Y00813816D02*
D03*
X00843533Y00785875D02*
D03*
X00872744Y00808736D02*
D03*
X00882904Y00793495D02*
D03*
X00899414Y00817626D02*
D03*
X01307083Y00975106D02*
D03*
X01323593Y00967486D02*
D03*
X01335023Y00959865D02*
D03*
Y00929386D02*
D03*
X01307083Y00937005D02*
D03*
X01323593Y00923036D02*
D03*
X01399794Y00854455D02*
D03*
X01209294Y00872235D02*
D03*
X00674370Y00649732D02*
D03*
X00778764Y00732535D02*
D03*
X00932433Y00502665D02*
D03*
X00915923Y00511555D02*
D03*
X01042924Y00737616D02*
D03*
X01354073Y00776985D02*
D03*
X01243584Y00710946D02*
D03*
X01188973Y00802385D02*
D03*
X01199134Y00717296D02*
D03*
X01257050Y00817122D02*
D03*
X01119841Y00634028D02*
D03*
X01138174Y00615695D02*
D03*
X01154684Y00605536D02*
D03*
X01248663Y00680465D02*
D03*
X01257553Y00848105D02*
D03*
X01370583Y00571245D02*
D03*
X01138174Y00696975D02*
D03*
X01088419Y00778001D02*
D03*
X01068324Y00771906D02*
D03*
X01049274Y00766825D02*
D03*
X01340103Y00495046D02*
D03*
X01327912D02*
D03*
X01315974D02*
D03*
X01304035D02*
D03*
X01292097D02*
D03*
X01279905D02*
D03*
X01113730Y00640139D02*
D03*
X01132063Y00621806D02*
D03*
X01145794Y00605536D02*
D03*
X01107619Y00646249D02*
D03*
X01081023Y00773176D02*
D03*
X01061590Y00765939D02*
D03*
X01125952Y00627917D02*
D03*
X01136904Y00605536D02*
D03*
X01164844D02*
D03*
X01167383Y00782066D02*
D03*
X01171193Y00591566D02*
D03*
X01125473Y00709676D02*
D03*
X01074673Y00779526D02*
D03*
X01055623Y00774445D02*
D03*
X01285240Y00502665D02*
D03*
X01345184D02*
D03*
X01333246D02*
D03*
X01321308D02*
D03*
X01309115D02*
D03*
X01297177D02*
D03*
X01273301D02*
D03*
X01267388Y00509960D02*
D03*
X01255014Y00500126D02*
D03*
X01237234Y00717296D02*
D03*
X01275333Y00538226D02*
D03*
X01340103D02*
D03*
X01324863D02*
D03*
X01309624D02*
D03*
X01290573D02*
D03*
X01263904Y00801115D02*
D03*
X00976883Y00636016D02*
D03*
X01401064Y00844296D02*
D03*
X01364234Y00823976D02*
D03*
X01155954Y00782066D02*
D03*
X01256283Y00704595D02*
D03*
X00989584Y00525526D02*
D03*
X00769874Y00851916D02*
D03*
X00748283Y00854455D02*
D03*
X00776224Y00860806D02*
D03*
D179*
X00849883Y00948436D02*
D03*
X00870203Y00958596D02*
D03*
X00915923Y00917955D02*
D03*
X01176273Y00802385D02*
D03*
X01162303Y00804926D02*
D03*
X01201674D02*
D03*
D180*
X00901954Y00933195D02*
D03*
D181*
X01246124Y00511555D02*
D03*
D182*
X01411223Y00729995D02*
D03*
Y00703326D02*
D03*
Y00676656D02*
D03*
X01149604Y00585215D02*
D03*
D183*
X00898403Y00680465D02*
D03*
X00887983Y00690626D02*
D03*
X00880363Y00699516D02*
D03*
X00908304Y00671575D02*
D03*
X00665000Y00860000D02*
D03*
X00680000Y01070000D02*
D03*
X00725000Y00920000D02*
D03*
X00755000D02*
D03*
X00770000Y00950000D02*
D03*
X00815000Y00860000D02*
D03*
X00800000Y00950000D02*
D03*
X00845000Y00860000D02*
D03*
X00830000Y01070000D02*
D03*
X00875000Y00920000D02*
D03*
X00905000Y00860000D02*
D03*
X00965000Y00680000D02*
D03*
Y00740000D02*
D03*
Y00920000D02*
D03*
X00950000Y01070000D02*
D03*
X00995000Y00620000D02*
D03*
Y00980000D02*
D03*
X01025000Y00920000D02*
D03*
Y00980000D02*
D03*
X01010000Y01010000D02*
D03*
X01025000Y01040000D02*
D03*
X01055000Y00620000D02*
D03*
Y00860000D02*
D03*
X01040000Y00890000D02*
D03*
X01055000Y00920000D02*
D03*
X01040000Y00950000D02*
D03*
X01055000Y00980000D02*
D03*
X01040000Y01010000D02*
D03*
X01055000Y01040000D02*
D03*
X01040000Y01070000D02*
D03*
X01070000Y00590000D02*
D03*
X01085000Y00920000D02*
D03*
X01070000Y00950000D02*
D03*
X01085000Y00980000D02*
D03*
X01070000Y01010000D02*
D03*
X01085000Y01040000D02*
D03*
X01070000Y01070000D02*
D03*
X01100000Y00950000D02*
D03*
X01115000Y00980000D02*
D03*
X01100000Y01010000D02*
D03*
X01115000Y01040000D02*
D03*
X01100000Y01070000D02*
D03*
X01130000Y00590000D02*
D03*
X01145000Y00980000D02*
D03*
X01130000Y01010000D02*
D03*
X01145000Y01040000D02*
D03*
X01130000Y01070000D02*
D03*
X01175000Y00980000D02*
D03*
X01160000Y01010000D02*
D03*
X01175000Y01040000D02*
D03*
X01160000Y01070000D02*
D03*
X01205000Y00980000D02*
D03*
X01190000Y01010000D02*
D03*
X01205000Y01040000D02*
D03*
X01190000Y01070000D02*
D03*
X01235000Y00980000D02*
D03*
X01220000Y01010000D02*
D03*
X01235000Y01040000D02*
D03*
X01220000Y01070000D02*
D03*
X01265000Y00980000D02*
D03*
X01250000Y01010000D02*
D03*
X01265000Y01040000D02*
D03*
X01250000Y01070000D02*
D03*
X01295000Y01040000D02*
D03*
X01325000Y00980000D02*
D03*
X01310000Y01070000D02*
D03*
X01355000Y00560000D02*
D03*
Y00680000D02*
D03*
Y00740000D02*
D03*
Y00920000D02*
D03*
Y00980000D02*
D03*
Y01040000D02*
D03*
X01385000Y00620000D02*
D03*
X01370000Y00650000D02*
D03*
X01385000Y00680000D02*
D03*
X01370000Y00710000D02*
D03*
X01385000Y00740000D02*
D03*
X01370000Y00890000D02*
D03*
Y00950000D02*
D03*
X01385000Y00980000D02*
D03*
X01370000Y01010000D02*
D03*
X01400000Y00710000D02*
D03*
Y00950000D02*
D03*
Y01010000D02*
D03*
M02*
