%FSAX44Y44*%
%MOMM*%
G71*
G01*
G75*
G04 Layer_Color=16711935*
%ADD10C,0.2540*%
%ADD11C,0.2032*%
%ADD12C,0.6350*%
%ADD13C,0.5080*%
%ADD14C,0.3048*%
%ADD15C,0.7620*%
%ADD16C,0.3810*%
%ADD17R,0.9000X0.7000*%
%ADD18R,0.3200X0.3600*%
%ADD19R,0.4500X0.5500*%
%ADD20R,1.0000X0.9000*%
%ADD21R,0.9000X0.8000*%
%ADD22R,1.3500X0.9500*%
%ADD23R,0.4600X0.4200*%
%ADD24R,1.6500X2.4000*%
%ADD25O,0.8500X0.3000*%
%ADD26R,0.5500X0.5500*%
%ADD27R,0.8000X0.9000*%
%ADD28R,0.6500X0.9000*%
%ADD29R,0.9500X1.4000*%
%ADD30R,1.0000X1.0000*%
%ADD31R,0.7000X0.9000*%
%ADD32R,0.9000X0.8000*%
%ADD33R,0.5200X0.5200*%
%ADD34R,1.1000X1.1000*%
%ADD35R,0.6298X0.2500*%
%ADD36R,0.6298X0.2500*%
%ADD37R,0.2500X0.6298*%
%ADD38R,0.2500X0.6298*%
%ADD39R,1.4000X0.6000*%
%ADD40R,0.4500X0.4500*%
%ADD41R,1.7000X1.7000*%
%ADD42O,0.2800X0.8500*%
%ADD43O,0.8500X0.2800*%
%ADD44R,0.8500X2.3000*%
%ADD45R,0.4200X0.4600*%
%ADD46R,0.2032X1.1430*%
%ADD47R,1.4000X1.1000*%
%ADD48R,1.1000X1.4000*%
%ADD49R,0.9000X0.6500*%
%ADD50R,0.9000X1.0000*%
%ADD51R,0.8000X0.9000*%
%ADD52R,1.0000X1.0000*%
%ADD53R,1.0160X0.8000*%
%ADD54R,0.7112X0.3366*%
%ADD55R,0.3366X0.7112*%
%ADD56O,0.2650X1.8500*%
%ADD57O,1.8500X0.2650*%
%ADD58O,1.8500X0.2650*%
%ADD59R,0.3500X0.6500*%
%ADD60O,2.2000X0.6000*%
%ADD61R,1.2000X1.8000*%
%ADD62R,0.6000X1.5500*%
%ADD63R,0.6000X1.5000*%
%ADD64C,0.3000*%
%ADD65C,0.5000*%
%ADD66C,2.1590*%
%ADD67C,1.5000*%
%ADD68C,0.1540*%
%ADD69C,0.7500*%
%ADD70C,0.1524*%
%ADD71C,0.2500*%
%ADD72C,0.2000*%
%ADD73C,0.4000*%
%ADD74C,0.4500*%
%ADD75C,0.5588*%
%ADD76C,2.0000*%
%ADD77C,0.1600*%
%ADD78C,0.1700*%
%ADD79C,0.3500*%
%ADD80C,0.6000*%
%ADD81C,1.0000*%
%ADD82C,0.0254*%
%ADD83C,2.0066*%
%ADD84C,0.9000*%
%ADD85C,2.5400*%
G04:AMPARAMS|DCode=86|XSize=1.8796mm|YSize=1.8796mm|CornerRadius=0.4699mm|HoleSize=0mm|Usage=FLASHONLY|Rotation=180.000|XOffset=0mm|YOffset=0mm|HoleType=Round|Shape=RoundedRectangle|*
%AMROUNDEDRECTD86*
21,1,1.8796,0.9398,0,0,180.0*
21,1,0.9398,1.8796,0,0,180.0*
1,1,0.9398,-0.4699,0.4699*
1,1,0.9398,0.4699,0.4699*
1,1,0.9398,0.4699,-0.4699*
1,1,0.9398,-0.4699,-0.4699*
%
%ADD86ROUNDEDRECTD86*%
%ADD87C,1.8796*%
%ADD88C,0.6600*%
%ADD89C,0.5000*%
%ADD90C,0.7112*%
%ADD91C,0.6900*%
%ADD92C,1.0000*%
%ADD93C,0.7300*%
%ADD94C,1.1000*%
%ADD95C,0.8000*%
%ADD96R,0.3000X0.3000*%
%ADD97R,0.3000X0.5000*%
%ADD98R,0.3000X0.3000*%
%ADD99R,0.5000X0.3000*%
%ADD100R,3.3000X3.3000*%
%ADD101R,0.3600X0.3200*%
%ADD102R,0.6500X0.5500*%
%ADD103R,1.3000X4.5000*%
%ADD104R,1.8000X3.9000*%
%ADD105R,1.5500X0.6000*%
%ADD106R,1.8000X1.2000*%
%ADD107R,1.2000X1.8000*%
%ADD108R,2.0500X2.5000*%
%ADD109R,0.5000X2.3000*%
%ADD110R,2.3000X0.5000*%
%ADD111R,2.5000X2.0500*%
%ADD112C,0.1000*%
%ADD113C,0.1270*%
%ADD114C,0.1500*%
%ADD115R,0.7750X0.4500*%
%ADD116R,0.6500X1.0000*%
%ADD117R,0.7000X0.7000*%
%ADD118R,0.7000X0.7000*%
%ADD119R,0.7000X0.7000*%
%ADD120O,0.8000X0.2500*%
%ADD121O,0.2300X0.8000*%
%ADD122O,0.8000X0.2300*%
%ADD123R,0.6512X0.2766*%
%ADD124R,0.2766X0.6512*%
%ADD125R,1.0524X0.8524*%
%ADD126R,0.4724X0.5124*%
%ADD127R,0.6024X0.7024*%
%ADD128R,1.1524X1.0524*%
%ADD129R,1.0524X0.9524*%
%ADD130R,1.5024X1.1024*%
%ADD131R,0.6124X0.5724*%
%ADD132R,1.7900X2.5400*%
%ADD133O,0.9900X0.4400*%
%ADD134R,0.7024X0.7024*%
%ADD135R,0.9524X1.0524*%
%ADD136R,0.8024X1.0524*%
%ADD137R,1.1024X1.5524*%
%ADD138R,1.1524X1.1524*%
%ADD139R,0.8524X1.0524*%
%ADD140R,1.0524X0.9524*%
%ADD141R,0.6724X0.6724*%
%ADD142R,1.2524X1.2524*%
%ADD143R,0.6806X0.3008*%
%ADD144R,0.6806X0.3008*%
%ADD145R,0.3008X0.6806*%
%ADD146R,0.3008X0.6806*%
%ADD147R,1.5524X0.7524*%
%ADD148R,0.6024X0.6024*%
%ADD149R,1.8400X1.8400*%
%ADD150O,0.4200X0.9900*%
%ADD151O,0.9900X0.4200*%
%ADD152R,1.0024X2.4524*%
%ADD153R,0.5724X0.6124*%
%ADD154R,0.2232X1.1630*%
%ADD155R,1.5524X1.2524*%
%ADD156R,1.2524X1.5524*%
%ADD157R,1.0524X0.8024*%
%ADD158R,1.0524X1.1524*%
%ADD159R,0.9524X1.0524*%
%ADD160R,1.1524X1.1524*%
%ADD161R,0.7912X0.4165*%
%ADD162R,0.4165X0.7912*%
%ADD163O,0.4174X2.0024*%
%ADD164O,2.0024X0.4174*%
%ADD165O,2.0024X0.4174*%
%ADD166R,0.5024X0.8024*%
%ADD167O,2.3524X0.7524*%
%ADD168R,1.3020X1.9020*%
%ADD169R,0.7020X1.6520*%
%ADD170R,0.7524X1.6524*%
%ADD171C,2.1590*%
%ADD172C,0.1524*%
%ADD173C,1.0524*%
%ADD174C,2.6924*%
G04:AMPARAMS|DCode=175|XSize=2.032mm|YSize=2.032mm|CornerRadius=0.5461mm|HoleSize=0mm|Usage=FLASHONLY|Rotation=180.000|XOffset=0mm|YOffset=0mm|HoleType=Round|Shape=RoundedRectangle|*
%AMROUNDEDRECTD175*
21,1,2.0320,0.9398,0,0,180.0*
21,1,0.9398,2.0320,0,0,180.0*
1,1,1.0922,-0.4699,0.4699*
1,1,1.0922,0.4699,0.4699*
1,1,1.0922,0.4699,-0.4699*
1,1,1.0922,-0.4699,-0.4699*
%
%ADD175ROUNDEDRECTD175*%
%ADD176C,2.0320*%
%ADD177C,0.6524*%
%ADD178C,0.8636*%
%ADD179C,0.8424*%
%ADD180C,1.1524*%
%ADD181C,0.8824*%
%ADD182C,1.2524*%
%ADD183C,0.9524*%
%ADD184R,0.4524X0.4524*%
%ADD185R,0.4524X0.6524*%
%ADD186R,0.4524X0.4524*%
%ADD187R,0.6524X0.4524*%
%ADD188R,3.4524X3.4524*%
%ADD189R,0.5124X0.4724*%
%ADD190R,0.8024X0.7024*%
%ADD191R,1.4524X4.6524*%
%ADD192R,1.9524X4.0524*%
%ADD193R,1.6520X0.7020*%
%ADD194R,1.7024X0.7524*%
%ADD195R,1.9020X1.3020*%
%ADD196R,1.3524X1.9524*%
%ADD197R,2.2024X2.6524*%
%ADD198R,0.6700X2.4700*%
%ADD199R,2.4700X0.6700*%
%ADD200R,2.6524X2.2024*%
%ADD201C,0.8124*%
%ADD202R,0.3000X0.6000*%
%ADD203R,0.6000X0.3000*%
%ADD204R,0.6000X0.3000*%
%ADD205R,0.3000X0.6000*%
%ADD206R,0.0000X0.0000*%
%ADD207C,0.0500*%
D64*
X01066413Y00542187D02*
X01063080Y00545519D01*
X01056416D01*
X01053083Y00542187D01*
Y00528858D01*
X01056416Y00525526D01*
X01063080D01*
X01066413Y00528858D01*
X01073077Y00545519D02*
Y00528858D01*
X01076409Y00525526D01*
X01083074D01*
X01086406Y00528858D01*
Y00545519D01*
X01093071D02*
X01106400D01*
X01099735D01*
Y00525526D01*
X01123061Y00545519D02*
X01116396D01*
X01113064Y00542187D01*
Y00528858D01*
X01116396Y00525526D01*
X01123061D01*
X01126393Y00528858D01*
Y00542187D01*
X01123061Y00545519D01*
X01133058D02*
Y00528858D01*
X01136390Y00525526D01*
X01143055D01*
X01146387Y00528858D01*
Y00545519D01*
X01153051D02*
X01166380D01*
X01159716D01*
Y00525526D01*
D68*
X01045463Y00562355D02*
X01177543D01*
Y00502665D02*
Y00562355D01*
X01045463Y00502665D02*
X01177543D01*
X01045463D02*
Y00562355D01*
D82*
X00616203Y00477266D02*
Y01092505D01*
X01427634Y01092505D01*
X01427634Y00477266D01*
X00616203Y00477266D02*
X01427634Y00477266D01*
X00616203Y00477266D02*
Y01092505D01*
X01427634Y01092505D01*
X01427634Y00477266D01*
X00616203Y00477266D02*
X01427634Y00477266D01*
M02*
