M48
;Layer_Color=9474304
;FILE_FORMAT=4:4
METRIC
;TYPE=PLATED
T1F00S00C0.2000
T2F00S00C0.3048
T3F00S00C0.3300
T4F00S00C0.3320
T5F00S00C0.4000
T6F00S00C0.5000
T7F00S00C0.6000
T8F00S00C0.7000
T9F00S00C1.0160
T10F00S00C2.0066
;TYPE=NON_PLATED
T11F00S00C0.9000
T12F00S00C1.2700
T13F00S00C2.0000
T14F00S00C3.0000
%
T01
X00997284Y00594225
X01007283
X01002283Y00601726
X00997284Y00609226
X01007283
X00904160Y00956390
X00903223Y00964946
X00899160Y00961390
X00894160Y00956390
Y00966390
T02
X00836929Y00545592
X00848360Y00567182
X00858802Y00558380
X00871219Y00567182
X00890660Y00561711
X00885190Y00551941
X00879019Y00586052
X00894080Y00597662
X00892810Y00610362
X00901954
X00928370Y00614171
X00904240Y00577341
X00873760Y00630681
X00863599Y00629412
X00876300Y00644651
X00863599Y00659892
X00862329Y00692531
X00824230Y00682751
X00815289Y00689051
X00808823Y00682585
X00828294Y00663956
X00826410Y00639212
X00802639Y00642112
X00800099Y00652271
X00815593Y00724915
X00817879Y00737362
X00823849Y00746631
X00810259Y00762762
X00795020Y00761491
X00827519Y00781291
X00751190Y00778651
X00702310Y00770382
X00682870Y00759785
X00678560Y00789052
X00629920Y00784352
X00748029Y00717041
X00751840Y00706881
X00778510Y00690371
X00784859Y00682751
X00792479Y00690371
X00790898Y00652883
X00787039Y00643809
X00778510Y00649732
X00760730Y00629412
X00732790Y00595121
X00718820Y00578611
X00714420Y00558972
X00693039Y00561721
X00673100Y00555751
X00673667Y00582421
X00681990Y00596391
X00670180Y00617602
X00693419Y00620522
X00655320Y00604011
X00646430Y00612901
X00645160Y00572262
X00790991Y00590331
X00777240Y00524002
Y00814831
X00764539Y00821181
X00770340Y00831891
X00739139Y00795781
X00717550Y00795782
X00702310Y00821182
X00702309Y00838962
X00806450Y00833882
T03
X00849883Y00948436
X00870203Y00958596
X00915923Y00917955
X01162303Y00804926
X01176273Y00802385
X01201674Y00804926
X01352233Y00848805
X01364234
X01376234
Y00860806
Y00872805
X01364234
Y00860806
X01352233
Y00872805
T04
X01191514Y00552196
X01246124Y00511555
X01255014Y00500126
X01273301Y00502665
X01285240
X01297177
X01309115
X01321308
X01333246
X01345184
X01340103Y00495046
X01327912
X01315974
X01304035
X01292097
X01279905
X01267388Y00509960
X01275333Y00538226
X01290573
X01309624
X01324863
X01340103
X01370583Y00571245
X01354073Y00776985
X01262634
X01256283Y00704595
X01243584Y00710946
X01237234Y00717296
X01199134
X01248663Y00680465
X01138174Y00696975
X01125473Y00709676
X01119841Y00634028
X01113730Y00640139
X01107619Y00646249
X01125952Y00627917
X01132063Y00621806
X01138174Y00615695
X01136904Y00605536
X01145794
X01154684
X01164844
X01171193Y00591566
X00997582Y00583755
X00957833Y00589025
X00976883Y00647446
X00997204Y00644905
X01011173Y00646176
X01047624Y00663576
X01040384Y00702056
X01042924Y00737616
X01049274Y00766825
X01061590Y00765939
X01068324Y00771906
X01081023Y00773176
X01088419Y00778001
X01074673Y00779526
X01055623Y00774445
X01155954Y00782066
X01167383
X00882904Y00793495
X00843533Y00785875
X00915923Y00511555
X00932433Y00502665
X00989584Y00525526
X00778764Y00732535
X00730503Y00735076
X00674370Y00649732
X00748283Y00854455
X00769874Y00851916
X00776224Y00860806
X00847344Y00844296
X00844803Y00813816
X00872744Y00808736
X00899414Y00817626
X00987044Y00864615
X01167383Y00865885
X01188973Y00802385
X00910844Y01072896
X01307083Y00975106
X01323593Y00967486
X01335023Y00959865
Y00929386
X01323593Y00923036
X01307083Y00937005
X01257553Y00848105
X01257050Y00817122
X01263904Y00801115
X01364234Y00823976
X01401064Y00844296
X01399794Y00854455
X01209294Y00872235
T05
X01355000Y00560000
X01385000Y00620000
X01370000Y00650000
X01355000Y00680000
X01385000
X01370000Y00710000
X01400000
X01385000Y00740000
X01355000
X01130000Y00590000
X01070000
X01055000Y00620000
X00995000
X00965000Y00680000
Y00740000
X00880363Y00699516
X00887983Y00690626
X00898403Y00680465
X00908304Y00671575
X00755000Y00920000
X00725000
X00770000Y00950000
X00665000Y00860000
X00815000
X00845000
X00905000
X00875000Y00920000
X00965000
X01025000
X01055000
X01085000
X01070000Y00950000
X01040000
X01025000Y00980000
X00995000
X01010000Y01010000
X01040000
X01070000
X01100000
X01130000
X01160000
X01190000
X01175000Y00980000
X01145000
X01115000
X01085000
X01055000
Y01040000
X01025000
X01040000Y01070000
X01070000
X01100000
X01130000
X01160000
X01190000
X01175000Y01040000
X01145000
X01115000
X01085000
X01100000Y00950000
X01040000Y00890000
X01055000Y00860000
X00950000Y01070000
X00830000
X00800000Y00950000
X01205000Y00980000
X01235000
X01265000
X01250000Y01010000
X01220000
X01205000Y01040000
X01235000
X01265000
X01295000
X01310000Y01070000
X01250000
X01220000
X01355000Y01040000
X01370000Y01010000
X01400000
X01385000Y00980000
X01355000
X01325000
X01370000Y00950000
X01400000
X01355000Y00920000
X01370000Y00890000
T06
X01199134Y00534416
X01230883Y00511555
Y00571245
T07
X00901954Y00933195
T08
X01411223Y00676656
Y00703326
Y00729995
X01149604Y00585215
T09
X00646683Y00920495
X00672083
X00697483
Y00949282
X00672083
X00646683
Y00978069
X00672083
X00697483
Y01006855
X00672083
X00646683
T10
X01381252Y00533400
X01094231Y00739393
T11
X01368523Y00593695
Y00637695
X00817460Y00544282
X00773459
X01283813Y01032735
X01327814
T12
X00959103Y00505205
X00989584Y00503936
X00910844Y00780796
X00642874Y00874775
X00802894Y00929386
X00914653Y01041145
T13
X01394713Y00792225
X00988314
Y01058925
X01394713
T14
X00665163Y00504465
Y01058925
M30
