%FSAX44Y44*%
%MOMM*%
G71*
G01*
G75*
G04 Layer_Color=16711935*
%ADD10C,0.2540*%
%ADD11C,0.2032*%
%ADD12C,0.6350*%
%ADD13C,0.5080*%
%ADD14C,0.3048*%
%ADD15C,0.7620*%
%ADD16C,0.3810*%
%ADD17R,0.7000X0.9000*%
%ADD18R,0.9000X0.7000*%
%ADD19R,1.3000X0.8500*%
%ADD20R,0.8500X1.3000*%
%ADD21R,0.9500X1.3500*%
%ADD22R,1.3500X0.9500*%
%ADD23R,1.0000X0.9000*%
%ADD24R,0.9000X0.8000*%
%ADD25R,1.6500X2.4000*%
%ADD26O,0.8500X0.3000*%
%ADD27R,0.8000X0.9000*%
%ADD28R,0.6500X0.9000*%
%ADD29R,0.9500X1.4000*%
%ADD30R,1.0000X1.0000*%
%ADD31R,0.9000X0.8000*%
%ADD32R,0.5200X0.5200*%
%ADD33R,1.1000X1.1000*%
%ADD34R,0.6298X0.2500*%
%ADD35R,0.6298X0.2500*%
%ADD36R,0.2500X0.6298*%
%ADD37R,0.2500X0.6298*%
%ADD38R,1.4000X0.6000*%
%ADD39R,1.7000X1.7000*%
%ADD40O,0.2800X0.8500*%
%ADD41O,0.8500X0.2800*%
%ADD42R,0.8500X2.3000*%
%ADD43R,0.2032X1.1430*%
%ADD44R,1.4000X1.1000*%
%ADD45R,1.1000X1.4000*%
%ADD46R,0.9000X0.6500*%
%ADD47R,0.9000X1.0000*%
%ADD48R,0.8000X0.9000*%
%ADD49R,1.0000X1.0000*%
%ADD50R,1.0160X0.8000*%
%ADD51R,0.7112X0.3366*%
%ADD52R,0.3366X0.7112*%
%ADD53O,0.2650X1.8500*%
%ADD54O,1.8500X0.2650*%
%ADD55O,1.8500X0.2650*%
%ADD56R,0.3500X0.6500*%
%ADD57O,2.2000X0.6000*%
%ADD58R,1.2000X1.8000*%
%ADD59R,0.6000X1.5500*%
%ADD60R,0.6000X1.5000*%
%ADD61C,0.5000*%
%ADD62C,0.4000*%
%ADD63C,0.4500*%
%ADD64C,2.1590*%
%ADD65C,1.0000*%
%ADD66C,0.3000*%
%ADD67C,0.1524*%
%ADD68C,1.5000*%
%ADD69C,0.1540*%
%ADD70C,0.7500*%
%ADD71C,0.2500*%
%ADD72C,0.2000*%
%ADD73C,0.5588*%
%ADD74C,2.0000*%
%ADD75C,0.1600*%
%ADD76C,0.1700*%
%ADD77C,0.3500*%
%ADD78C,0.6000*%
%ADD79C,0.0254*%
%ADD80C,2.0066*%
%ADD81C,0.9000*%
%ADD82C,2.5400*%
G04:AMPARAMS|DCode=83|XSize=1.8796mm|YSize=1.8796mm|CornerRadius=0.4699mm|HoleSize=0mm|Usage=FLASHONLY|Rotation=180.000|XOffset=0mm|YOffset=0mm|HoleType=Round|Shape=RoundedRectangle|*
%AMROUNDEDRECTD83*
21,1,1.8796,0.9398,0,0,180.0*
21,1,0.9398,1.8796,0,0,180.0*
1,1,0.9398,-0.4699,0.4699*
1,1,0.9398,0.4699,0.4699*
1,1,0.9398,0.4699,-0.4699*
1,1,0.9398,-0.4699,-0.4699*
%
%ADD83ROUNDEDRECTD83*%
%ADD84C,1.8796*%
%ADD85C,0.7112*%
%ADD86C,0.6600*%
%ADD87C,0.5000*%
%ADD88C,0.6900*%
%ADD89C,1.0000*%
%ADD90C,0.7300*%
%ADD91C,1.1000*%
%ADD92C,0.8000*%
%ADD93R,0.3000X0.3000*%
%ADD94R,0.3000X0.5000*%
%ADD95R,0.3000X0.3000*%
%ADD96R,0.5000X0.3000*%
%ADD97R,3.3000X3.3000*%
%ADD98R,1.3000X4.5000*%
%ADD99R,1.8000X3.9000*%
%ADD100R,1.5500X0.6000*%
%ADD101R,1.8000X1.2000*%
%ADD102R,1.2000X1.8000*%
%ADD103R,2.0500X2.5000*%
%ADD104R,0.5000X2.3000*%
%ADD105R,2.3000X0.5000*%
%ADD106R,2.5000X2.0500*%
%ADD107C,0.1000*%
%ADD108C,0.1270*%
%ADD109C,0.1500*%
%ADD110R,0.7750X0.4500*%
%ADD111R,0.6500X1.0000*%
%ADD112R,0.7000X0.7000*%
%ADD113R,0.7000X0.7000*%
%ADD114R,0.7000X0.7000*%
%ADD115O,0.8000X0.2500*%
%ADD116O,0.2300X0.8000*%
%ADD117O,0.8000X0.2300*%
%ADD118R,0.6512X0.2766*%
%ADD119R,0.2766X0.6512*%
%ADD120R,0.8524X1.0524*%
%ADD121R,1.0524X0.8524*%
%ADD122R,1.4524X1.0024*%
%ADD123R,1.0024X1.4524*%
%ADD124R,1.1024X1.5024*%
%ADD125R,1.5024X1.1024*%
%ADD126R,1.1524X1.0524*%
%ADD127R,1.0524X0.9524*%
%ADD128R,1.7900X2.5400*%
%ADD129O,0.9900X0.4400*%
%ADD130R,0.9524X1.0524*%
%ADD131R,0.8024X1.0524*%
%ADD132R,1.1024X1.5524*%
%ADD133R,1.1524X1.1524*%
%ADD134R,1.0524X0.9524*%
%ADD135R,0.6724X0.6724*%
%ADD136R,1.2524X1.2524*%
%ADD137R,0.6806X0.3008*%
%ADD138R,0.6806X0.3008*%
%ADD139R,0.3008X0.6806*%
%ADD140R,0.3008X0.6806*%
%ADD141R,1.5524X0.7524*%
%ADD142R,1.8400X1.8400*%
%ADD143O,0.4200X0.9900*%
%ADD144O,0.9900X0.4200*%
%ADD145R,1.0024X2.4524*%
%ADD146R,0.2232X1.1630*%
%ADD147R,1.5524X1.2524*%
%ADD148R,1.2524X1.5524*%
%ADD149R,1.0524X0.8024*%
%ADD150R,1.0524X1.1524*%
%ADD151R,0.9524X1.0524*%
%ADD152R,1.1524X1.1524*%
%ADD153R,0.7912X0.4165*%
%ADD154R,0.4165X0.7912*%
%ADD155O,0.4174X2.0024*%
%ADD156O,2.0024X0.4174*%
%ADD157O,2.0024X0.4174*%
%ADD158R,0.5024X0.8024*%
%ADD159O,2.3524X0.7524*%
%ADD160R,1.3020X1.9020*%
%ADD161R,0.7020X1.6520*%
%ADD162R,0.7524X1.6524*%
%ADD163C,2.1590*%
%ADD164C,0.1524*%
%ADD165C,1.0524*%
%ADD166C,2.6924*%
G04:AMPARAMS|DCode=167|XSize=2.032mm|YSize=2.032mm|CornerRadius=0.5461mm|HoleSize=0mm|Usage=FLASHONLY|Rotation=180.000|XOffset=0mm|YOffset=0mm|HoleType=Round|Shape=RoundedRectangle|*
%AMROUNDEDRECTD167*
21,1,2.0320,0.9398,0,0,180.0*
21,1,0.9398,2.0320,0,0,180.0*
1,1,1.0922,-0.4699,0.4699*
1,1,1.0922,0.4699,0.4699*
1,1,1.0922,0.4699,-0.4699*
1,1,1.0922,-0.4699,-0.4699*
%
%ADD167ROUNDEDRECTD167*%
%ADD168C,2.0320*%
%ADD169C,0.8636*%
%ADD170C,0.6524*%
%ADD171C,0.8424*%
%ADD172C,1.1524*%
%ADD173C,0.8824*%
%ADD174C,1.2524*%
%ADD175C,0.9524*%
%ADD176R,0.4524X0.4524*%
%ADD177R,0.4524X0.6524*%
%ADD178R,0.4524X0.4524*%
%ADD179R,0.6524X0.4524*%
%ADD180R,3.4524X3.4524*%
%ADD181R,1.4524X4.6524*%
%ADD182R,1.9524X4.0524*%
%ADD183R,1.6520X0.7020*%
%ADD184R,1.7024X0.7524*%
%ADD185R,1.9020X1.3020*%
%ADD186R,1.3524X1.9524*%
%ADD187R,2.2024X2.6524*%
%ADD188R,0.6700X2.4700*%
%ADD189R,2.4700X0.6700*%
%ADD190R,2.6524X2.2024*%
%ADD191C,0.8124*%
%ADD192R,0.3000X0.6000*%
%ADD193R,0.6000X0.3000*%
%ADD194R,0.6000X0.3000*%
%ADD195R,0.3000X0.6000*%
%ADD196R,0.0000X0.0000*%
%ADD197C,0.0500*%
D66*
X01066413Y00542187D02*
X01063080Y00545519D01*
X01056416D01*
X01053083Y00542187D01*
Y00528858D01*
X01056416Y00525526D01*
X01063080D01*
X01066413Y00528858D01*
X01073077Y00545519D02*
Y00528858D01*
X01076409Y00525526D01*
X01083074D01*
X01086406Y00528858D01*
Y00545519D01*
X01093071D02*
X01106400D01*
X01099735D01*
Y00525526D01*
X01123061Y00545519D02*
X01116396D01*
X01113064Y00542187D01*
Y00528858D01*
X01116396Y00525526D01*
X01123061D01*
X01126393Y00528858D01*
Y00542187D01*
X01123061Y00545519D01*
X01133058D02*
Y00528858D01*
X01136390Y00525526D01*
X01143055D01*
X01146387Y00528858D01*
Y00545519D01*
X01153051D02*
X01166380D01*
X01159716D01*
Y00525526D01*
D69*
X01045463Y00562355D02*
X01177543D01*
Y00502665D02*
Y00562355D01*
X01045463Y00502665D02*
X01177543D01*
X01045463D02*
Y00562355D01*
D79*
X00616203Y00477266D02*
Y01092505D01*
X01427634Y01092505D01*
X01427634Y00477266D01*
X00616203Y00477266D02*
X01427634Y00477266D01*
X00616203Y00477266D02*
Y01092505D01*
X01427634Y01092505D01*
X01427634Y00477266D01*
X00616203Y00477266D02*
X01427634Y00477266D01*
M02*
